<svg width="210" height="60" viewBox="0 0 210 60" fill="none" xmlns="http://www.w3.org/2000/svg">
<g clip-path="url(#clip0_7_1242)">
<mask id="mask0_7_1242" style="mask-type:luminance" maskUnits="userSpaceOnUse" x="4" y="21" width="169" height="31">
<path d="M105.04 26.7991C101.769 26.7991 99.2524 28.4299 97.9366 30.7479H112.236C111.08 28.3273 108.804 26.7991 105.04 26.7991ZM81.5561 27.9889H74.361C74.3264 32.9838 74.0406 37.589 72.1762 41.948H81.5561V27.9889ZM27.8612 27.2914C23.3771 27.2914 19.7395 30.6043 19.7395 34.6761C19.7395 38.748 23.3885 42.0608 27.8612 42.0608C32.3338 42.0608 35.9829 38.748 35.9829 34.6761C35.9829 30.6043 32.3338 27.2914 27.8612 27.2914ZM154.983 22.3273V33.9582L165.324 22.3273H172.199L161.664 34.1941L172.817 47.0147H165.736L154.983 34.6556V47.0147H149.23V22.3273H154.983ZM135.377 22.1632C139.117 22.1632 142.538 23.3221 145.032 25.4247L141.097 29.1068C139.678 27.9068 137.653 27.2196 135.377 27.2196C130.893 27.2196 127.255 30.594 127.255 34.6146C127.255 38.6351 130.904 42.0096 135.377 42.0096C137.562 42.0096 139.472 41.3429 141.234 40.0403L144.894 43.9481C142.103 46.0198 138.9 47.066 135.377 47.066C127.724 47.066 121.501 41.4865 121.501 34.6146C121.501 27.7427 127.724 22.1632 135.377 22.1632ZM27.8612 22.2247C35.5139 22.2247 41.7367 27.8043 41.7367 34.6659C41.7367 41.5275 35.5139 47.1173 27.8612 47.1173C21.1808 47.1173 15.5871 42.8506 14.2716 37.1992H9.83325V47.0147H4.09082V22.3273H9.84466V32.1428H14.283C15.5871 26.4914 21.1808 22.2247 27.8612 22.2247ZM51.7345 22.0708C56.1157 22.0708 59.9248 24.4196 59.9248 28.2145C59.9248 30.8197 58.1173 32.512 55.6812 33.5172C58.3918 34.4095 60.5538 36.3787 60.5538 39.5172C60.5538 43.5993 56.3329 47.1276 51.4714 47.1276C47.1246 47.1276 44.3677 45.1378 42.5947 43.4763L46.5297 39.6095C47.685 40.5839 49.0234 41.9378 51.0939 41.9378C53.5192 41.9378 54.7199 40.5429 54.7199 38.7377C54.7199 36.6454 52.8212 35.23 48.7031 35.9172V32.2761C53.0957 32.0812 53.9882 30.6248 53.9882 29.2914C53.9882 27.9683 52.7411 26.8914 51.0939 26.8914C49.5611 26.8914 48.2913 27.4966 47.239 28.5222L43.1094 25.0042C45.2028 23.0965 48.3257 22.0708 51.7345 22.0708ZM105.04 21.8965C111.846 21.8965 117.131 25.6709 118.493 31.5171C118.698 32.3992 118.722 34.1428 118.504 35.4249H96.9645C97.3422 39.2403 100.373 42.389 105.04 42.389C109.387 42.389 111.652 40.1224 113.082 38.2249L117.68 40.8301C115.095 43.9891 111.972 47.3327 105.029 47.3327C97.3763 47.3327 91.1533 41.6301 91.1533 34.6146C91.1765 27.5991 97.399 21.8965 105.04 21.8965ZM87.2987 22.9221V41.9378H90.1698V51.1276H84.4158V47.0045H68.6643V51.1276H62.9104V41.9378H65.8733C68.4698 37.548 68.6184 32.7069 68.6184 25.4965V22.9221H87.2987Z" fill="white"/>
</mask>
<g mask="url(#mask0_7_1242)">
<mask id="mask1_7_1242" style="mask-type:luminance" maskUnits="userSpaceOnUse" x="4" y="10" width="201" height="42">
<path d="M204.173 10H4.09058V51.1275H204.173V10Z" fill="white"/>
</mask>
<g mask="url(#mask1_7_1242)">
<path d="M178.416 16.7979H-1.50903V56.2257H178.416V16.7979Z" fill="#2B2B2B"/>
</g>
</g>
<mask id="mask2_7_1242" style="mask-type:luminance" maskUnits="userSpaceOnUse" x="175" y="10" width="30" height="26">
<path d="M190.645 10.0066C182.33 9.77203 175.545 15.8001 175.81 23.1643C176.051 29.835 182.181 35.2817 189.702 35.4857C198.017 35.7202 204.803 29.6922 204.538 22.3279C204.296 15.6573 198.167 10.2208 190.645 10.0066ZM190.174 29.121C186.206 29.121 182.986 26.2651 182.986 22.7462C182.986 19.2272 186.206 16.3713 190.174 16.3713C194.141 16.3713 197.362 19.2272 197.362 22.7462C197.362 26.2651 194.141 29.121 190.174 29.121Z" fill="white"/>
</mask>
<g mask="url(#mask2_7_1242)">
<mask id="mask3_7_1242" style="mask-type:luminance" maskUnits="userSpaceOnUse" x="3" y="10" width="202" height="41">
<path d="M204.547 10H3.34448V50.7877H204.547V10Z" fill="white"/>
</mask>
<g mask="url(#mask3_7_1242)">
<mask id="mask4_7_1242" style="mask-type:luminance" maskUnits="userSpaceOnUse" x="174" y="10" width="31" height="27">
<path d="M204.544 10H174.682V36.512H204.544V10Z" fill="white"/>
</mask>
<g mask="url(#mask4_7_1242)">
<mask id="mask5_7_1242" style="mask-type:luminance" maskUnits="userSpaceOnUse" x="174" y="10" width="31" height="27">
<path d="M204.543 10H174.68V36.512H204.543V10Z" fill="white"/>
</mask>
<g mask="url(#mask5_7_1242)">
<path d="M210.516 4.90137H170.201V40.5905H210.516V4.90137Z" fill="#FA002D"/>
</g>
</g>
<mask id="mask6_7_1242" style="mask-type:luminance" maskUnits="userSpaceOnUse" x="174" y="10" width="31" height="27">
<path d="M204.544 10H174.682V36.512H204.544V10Z" fill="white"/>
</mask>
<g mask="url(#mask6_7_1242)">
<mask id="mask7_7_1242" style="mask-type:luminance" maskUnits="userSpaceOnUse" x="175" y="10" width="30" height="26">
<path d="M204.544 12.5492L201.67 10L190.173 20.1969L178.676 10L175.801 12.5492L187.298 22.7461L175.801 32.943L178.676 35.4923L190.173 25.2954L201.67 35.4923L204.544 32.943L193.047 22.7461L204.544 12.5492Z" fill="white"/>
</mask>
<g mask="url(#mask7_7_1242)">
<mask id="mask8_7_1242" style="mask-type:luminance" maskUnits="userSpaceOnUse" x="174" y="10" width="31" height="27">
<path d="M204.543 10H174.68V36.512H204.543V10Z" fill="white"/>
</mask>
<g mask="url(#mask8_7_1242)">
<path d="M210.516 4.90137H170.201V40.5905H210.516V4.90137Z" fill="white"/>
</g>
</g>
</g>
</g>
</g>
</g>
<defs>
<clipPath id="clip0_7_1242">
<rect width="200.455" height="41.25" fill="white" transform="translate(4.09082 10)"/>
</clipPath>
</defs>
</svg>
