<svg width="80" height="60" viewBox="0 0 80 60" fill="none" xmlns="http://www.w3.org/2000/svg">
<g clip-path="url(#clip0_7_1247)">
<path fill-rule="evenodd" clip-rule="evenodd" d="M26.4744 21.4911H24.1935C23.956 21.5083 23.7322 21.621 23.5639 21.8083C23.3956 21.9955 23.2943 22.2444 23.2788 22.5086V41.633C23.2781 41.7673 23.302 41.9003 23.3492 42.024C23.3964 42.1476 23.4658 42.2591 23.5532 42.3517C23.6346 42.4503 23.7338 42.5287 23.8443 42.5817C23.9547 42.6348 24.074 42.6614 24.1943 42.6598H26.4752C26.5911 42.6583 26.7054 42.6302 26.811 42.5772C26.9166 42.5242 27.0112 42.4474 27.0889 42.3517C27.1827 42.2638 27.2578 42.1536 27.3086 42.0292C27.3594 41.9049 27.3846 41.7696 27.3824 41.633V22.5179C27.3776 22.3871 27.3492 22.2587 27.2987 22.1405C27.2483 22.0222 27.1769 21.9165 27.0889 21.8297C27.0164 21.7249 26.9234 21.6399 26.8169 21.5812C26.7104 21.5225 26.5932 21.4917 26.4744 21.4911ZM47.2849 21.5429H45.4439C45.2034 21.4879 44.9536 21.5143 44.7267 21.6186C44.4998 21.723 44.3061 21.9006 44.1708 22.1285L38.9131 35.0692H38.8216L33.8109 22.1285C33.7451 21.9478 33.6305 21.7944 33.4829 21.6894C33.3352 21.5845 33.1618 21.5333 32.9868 21.5429H30.5047C30.3648 21.5238 30.2228 21.5471 30.0938 21.6104C29.9649 21.6738 29.8537 21.7748 29.7722 21.9028C29.7077 22.03 29.6778 22.1752 29.6859 22.321C29.694 22.4667 29.7398 22.6068 29.8179 22.7242L37.9668 42.62C38.0384 42.7924 38.156 42.9361 38.3036 43.0316C38.4512 43.1271 38.6216 43.1697 38.7917 43.1537H39.0412C39.2036 43.1591 39.3638 43.1114 39.5022 43.0165C39.6405 42.9217 39.7508 42.7838 39.8195 42.62L47.9684 22.7251C48.0461 22.6075 48.0918 22.4676 48.0999 22.3219C48.108 22.1762 48.0782 22.031 48.0141 21.9037C47.9309 21.7786 47.82 21.6796 47.6922 21.6162C47.5645 21.5528 47.4241 21.5273 47.2849 21.542V21.5429ZM58.3125 21.061C57.0399 21.0425 55.778 21.3218 54.6088 21.881C53.4395 22.4402 52.3891 23.2667 51.5256 24.3068C50.6148 25.3209 49.8958 26.5278 49.4112 27.8561C48.9267 29.1845 48.6863 30.6074 48.7043 32.0408C48.6701 34.9565 49.6784 37.768 51.5073 39.857C52.3707 40.8967 53.4182 41.7264 54.5838 42.2939C55.7495 42.8613 57.0081 43.1543 58.2805 43.1543C59.5529 43.1543 60.8115 42.8613 61.9772 42.2939C63.1428 41.7264 64.1903 40.8967 65.0536 39.857C65.9661 38.8268 66.6854 37.6051 67.1697 36.263C67.654 34.9208 67.8938 33.485 67.875 32.0389C67.893 30.6055 67.6526 29.1826 67.168 27.8543C66.6834 26.5259 65.9645 25.3191 65.0536 24.305C64.1969 23.2692 63.1541 22.4451 61.9929 21.8861C60.8316 21.3272 59.5778 21.0467 58.3125 21.061ZM62.2971 36.8674C61.7863 37.4773 61.1685 37.9643 60.4818 38.2982C59.7952 38.6322 59.0543 38.806 58.3049 38.8089C57.5555 38.8119 56.8135 38.6439 56.1248 38.3154C55.436 37.9868 54.8151 37.5048 54.3004 36.8989C53.212 35.5802 52.6303 33.8403 52.6798 32.0509C52.6354 30.2992 53.2184 28.5997 54.3004 27.326C54.8119 26.7146 55.4336 26.2302 56.125 25.9045C56.8164 25.5789 57.5618 25.4193 58.3125 25.4363C59.0597 25.4148 59.8022 25.5724 60.4898 25.8985C61.1773 26.2246 61.7937 26.7115 62.2971 27.326C62.8331 27.9566 63.252 28.6984 63.5301 29.5091C63.8082 30.3198 63.9399 31.1836 63.9178 32.0509C63.9485 33.8274 63.3689 35.55 62.2971 36.8674ZM17.9105 21.4911H11.4147C11.2977 21.4968 11.1829 21.529 11.0774 21.5856C10.9719 21.6422 10.8779 21.7221 10.801 21.8204C10.7119 21.9084 10.64 22.0158 10.5897 22.1359C10.5393 22.256 10.5116 22.3863 10.5083 22.5188V25.0764C10.511 25.212 10.5383 25.3456 10.5886 25.4691C10.6389 25.5926 10.7112 25.7035 10.801 25.7952C10.8799 25.8891 10.9747 25.9648 11.0801 26.0176C11.1854 26.0705 11.2992 26.0996 11.4147 26.1032H14.7125V44.5181C14.7167 45.3406 14.451 46.1367 13.9653 46.7569C13.4795 47.3771 12.8071 47.7789 12.0741 47.8869H11.4147C11.1727 47.8947 10.9428 48.0058 10.7725 48.1972C10.6022 48.3885 10.5046 48.6454 10.5 48.9146V51.4722C10.5016 51.7376 10.5903 51.9932 10.7495 52.191C10.8333 52.2916 10.9355 52.3712 11.0492 52.4243C11.1629 52.4774 11.2856 52.5029 11.4089 52.499H11.7298C13.5338 52.4886 15.2664 51.7138 16.5749 50.3323C17.8834 48.9508 18.6694 47.0664 18.7728 45.0629C18.7998 44.9038 18.812 44.742 18.8094 44.5801V22.5179C18.8102 22.3836 18.7863 22.2505 18.7391 22.1269C18.6919 22.0033 18.6224 21.8918 18.535 21.7992C18.4576 21.7 18.3615 21.621 18.2536 21.5677C18.1457 21.5145 18.0286 21.4883 17.9105 21.4911Z" fill="#0B1F35"/>
<path fill-rule="evenodd" clip-rule="evenodd" d="M10.5557 6.25C9.98774 18.2565 18.7802 19.9622 18.7802 19.9622C18.3412 6.81425 10.5557 6.25 10.5557 6.25Z" fill="#1BC339"/>
</g>
<defs>
<clipPath id="clip0_7_1247">
<rect width="57.375" height="46.25" fill="white" transform="translate(10.5 6.25)"/>
</clipPath>
</defs>
</svg>
