<svg width="61" height="60" viewBox="0 0 61 60" fill="none" xmlns="http://www.w3.org/2000/svg">
<path d="M30.6147 8.75H30.5176C18.7718 8.75 9.25 18.2746 9.25 30.0239V30.121C9.25 41.8702 18.7718 51.3949 30.5176 51.3949H30.6147C42.3605 51.3949 51.8823 41.8702 51.8823 30.121V30.0239C51.8823 18.2746 42.3605 8.75 30.6147 8.75Z" fill="#00B0F2"/>
<path d="M17.3246 29.3454C17.3843 29.3155 17.4441 29.2871 17.5024 29.2602C18.515 28.7911 19.5412 28.3518 20.5658 27.9126C20.621 27.9126 20.7136 27.8483 20.7659 27.8274C20.8451 27.7931 20.9242 27.7602 21.0034 27.7258L21.459 27.5301C21.7637 27.4001 22.0668 27.2701 22.3715 27.1402C22.9794 26.8802 23.5873 26.6202 24.1952 26.3588C25.411 25.8388 26.6284 25.3174 27.8442 24.7975C29.06 24.2775 30.2773 23.7561 31.4931 23.2362C32.7089 22.7163 33.9262 22.1948 35.142 21.6749C36.3578 21.155 37.5751 20.6335 38.7909 20.1136C39.0612 19.9971 39.354 19.8238 39.6437 19.773C39.8872 19.7296 40.1247 19.646 40.3696 19.5997C40.8341 19.5115 41.3465 19.4756 41.7915 19.6684C41.9454 19.7356 42.0873 19.8297 42.2053 19.9478C42.7699 20.5065 42.6907 21.4239 42.5712 22.2098C41.7393 27.687 40.9073 33.1657 40.0739 38.6429C39.9604 39.3944 39.805 40.2191 39.2121 40.6942C38.7102 41.0961 37.9963 41.141 37.3764 40.9706C36.7566 40.7988 36.2099 40.4388 35.6737 40.0847C33.4497 38.6115 31.2242 37.1384 29.0002 35.6652C28.4715 35.3156 27.883 34.8585 27.889 34.2235C27.892 33.841 28.1205 33.5004 28.3535 33.1971C30.2862 30.6751 33.0748 28.942 35.1494 26.5366C35.4422 26.1974 35.6722 25.5848 35.2704 25.3891C35.0315 25.2726 34.7566 25.431 34.5385 25.5819C31.7963 27.4868 29.0555 29.3932 26.3132 31.2981C25.4185 31.9196 24.4806 32.5591 23.4022 32.7115C22.4373 32.8489 21.4664 32.58 20.5329 32.3051C19.7503 32.075 18.9691 31.839 18.1909 31.5954C17.7772 31.4669 17.35 31.328 17.0304 31.0367C16.7107 30.7453 16.527 30.2553 16.7197 29.8668C16.8407 29.6233 17.0752 29.4694 17.3217 29.3439L17.3246 29.3454Z" fill="#FEFFFC"/>
</svg>
