<svg width="61" height="60" viewBox="0 0 61 60" fill="none" xmlns="http://www.w3.org/2000/svg">
<path d="M52 30C52 41.736 42.486 51.25 30.75 51.25C19.0139 51.25 9.5 41.736 9.5 30C9.5 18.2639 19.0139 8.75 30.75 8.75C42.486 8.75 52 18.2639 52 30Z" fill="url(#paint0_radial_7_1235)"/>
<path fill-rule="evenodd" clip-rule="evenodd" d="M16.5833 29.5752C16.5833 21.6792 22.7694 15.8335 30.7499 15.8335C38.7304 15.8335 44.9166 21.6792 44.9166 29.5752C44.9166 37.4711 38.7304 43.3169 30.7499 43.3169C29.3165 43.3169 27.9412 43.1276 26.6491 42.7723C26.3979 42.7032 26.1308 42.7227 25.8925 42.8279L23.0806 44.0691C22.345 44.3938 21.5148 43.8708 21.4901 43.067L21.413 40.547C21.4035 40.2365 21.2638 39.9463 21.0324 39.7392C18.2759 37.2742 16.5833 33.7053 16.5833 29.5752ZM26.4044 26.9916L22.2429 33.5939C21.8435 34.2275 22.6224 34.9415 23.219 34.4887L27.6891 31.0962C27.9914 30.8667 28.4093 30.8655 28.713 31.0933L32.0229 33.5757C33.016 34.3206 34.4335 34.0591 35.0955 33.0088L39.257 26.4065C39.6563 25.7729 38.8775 25.0589 38.2808 25.5116L33.8108 28.9041C33.5084 29.1336 33.0905 29.1349 32.7869 28.9071L29.477 26.4247C28.4838 25.6798 27.0663 25.9413 26.4044 26.9916Z" fill="white"/>
<defs>
<radialGradient id="paint0_radial_7_1235" cx="0" cy="0" r="1" gradientUnits="userSpaceOnUse" gradientTransform="translate(17.6802 51.0227) rotate(-57.0915) scale(46.3078)">
<stop stop-color="#0099FF"/>
<stop offset="0.609754" stop-color="#A033FF"/>
<stop offset="0.934823" stop-color="#FF5280"/>
<stop offset="1" stop-color="#FF7061"/>
</radialGradient>
</defs>
</svg>
