<svg width="194" height="60" viewBox="0 0 194 60" fill="none" xmlns="http://www.w3.org/2000/svg">
<g clip-path="url(#clip0_7_1237)">
<path d="M131.551 42.9H148.926V39H137.474C139.054 32.6 148.728 31.2 148.728 24.1C148.728 20.3 146.162 17.5 140.732 17.5C137.376 17.5 134.414 18.5 132.44 19.5L133.624 23.1C135.401 22.2 137.474 21.4 140.041 21.4C142.015 21.4 143.891 22.3 143.891 24.6C143.891 29.8 132.538 30.2 131.551 42.9ZM149.419 36.7H160.574V42.9H165.017V36.7H168.768V32.9H165.017V17.5H161.759L149.419 33.7V36.7ZM154.454 33.1L160.772 24.5C160.772 25.2 160.574 27.4 160.574 29.4V33H157.613C156.724 33 155.046 33.1 154.454 33.1Z" fill="#005893"/>
<path d="M5.38974 39.1001V31.2001H7.26538C8.94359 31.2001 10.3256 31.4001 11.3128 32.0001C12.3 32.6001 12.8923 33.6001 12.8923 35.2001C12.8923 37.9001 11.3128 39.1001 7.56154 39.1001H5.38974ZM0.848718 42.9001H7.46282C14.8667 42.9001 17.5321 39.6001 17.5321 35.0001C17.5321 31.9001 16.2487 29.8001 13.9782 28.6001C12.2013 27.6001 9.93077 27.3001 7.16667 27.3001H5.38974V21.3001H15.3603L16.5449 17.6001H0.75V42.9001H0.848718ZM20.5923 42.9001H24.9359L30.5628 34.7001C31.6487 33.2001 32.4385 31.7001 32.932 30.9001H33.0308C32.9321 32.0001 32.8333 33.4001 32.8333 34.8001V42.8001H37.2756V24.8001H32.932L27.3051 33.0001C26.3179 34.5001 25.4295 36.0001 24.9359 36.8001H24.8372C24.9359 35.7001 25.0346 34.3001 25.0346 32.9001V24.9001H20.5923V42.9001ZM44.8769 42.9001H49.4179V28.6001H54.7487L55.9333 24.8001H39.4474V28.6001H44.8769V42.9001ZM57.5128 52.0001H61.9551V42.9001C62.8436 43.2001 63.7321 43.3001 64.7192 43.3001C70.3462 43.3001 73.9987 39.4001 73.9987 33.8001C73.9987 28.0001 70.6423 24.3001 64.2256 24.3001C61.7577 24.3001 59.3885 24.8001 57.4141 25.4001V52.0001H57.5128ZM61.9551 39.0001V28.4001C62.6462 28.2001 63.2385 28.1001 64.0282 28.1001C67.2859 28.1001 69.359 29.9001 69.359 33.8001C69.359 37.3001 67.6808 39.5001 64.3244 39.5001C63.4359 39.5001 62.7449 39.3001 61.9551 39.0001ZM76.6641 42.9001H81.0077L86.6346 34.7001C87.7205 33.2001 88.5103 31.7001 89.0038 30.9001H89.1026C89.0038 32.0001 88.9051 33.4001 88.9051 34.8001V42.8001H93.3474V24.8001H89.0038L83.3769 33.0001C82.3897 34.5001 81.5013 36.0001 81.0077 36.8001H80.909C81.0077 35.7001 81.1064 34.3001 81.1064 32.9001V24.9001H76.6641V42.9001ZM96.9013 42.9001H101.442V35.4001H104.108C104.601 35.4001 105.095 35.9001 105.687 37.1001L107.958 42.9001H112.795L109.537 36.0001C108.945 34.8001 108.353 34.1001 107.464 33.8001V33.7001C108.945 32.8001 109.142 30.2001 110.031 28.9001C110.327 28.5001 110.722 28.3001 111.314 28.3001C111.61 28.3001 112.005 28.3001 112.301 28.5001V24.6001C111.808 24.4001 110.919 24.3001 110.426 24.3001C108.846 24.3001 107.859 24.9001 107.168 25.9001C105.687 28.1001 105.687 31.9001 103.515 31.9001H101.442V24.8001H96.9013V42.9001ZM122.864 43.3001C125.332 43.3001 127.603 42.5001 128.985 41.5001L127.701 38.4001C126.418 39.1001 125.233 39.6001 123.555 39.6001C120.495 39.6001 118.521 37.6001 118.521 33.9001C118.521 30.6001 120.495 28.0001 123.851 28.0001C125.628 28.0001 126.912 28.5001 128.195 29.4001V25.5001C127.208 24.9001 125.628 24.3001 123.358 24.3001C118.027 24.3001 113.881 28.3001 113.881 34.0001C113.881 39.2001 117.04 43.3001 122.864 43.3001Z" fill="#0BBBEF"/>
<path d="M183.477 36.6999C188.314 36.6999 192.263 32.6999 192.263 27.7999C192.263 22.8999 188.314 18.8999 183.477 18.8999C178.64 18.8999 174.691 22.8999 174.691 27.7999C174.79 32.6999 178.64 36.6999 183.477 36.6999Z" stroke="#005893" stroke-width="1.7688"/>
<path d="M189.005 27.7999H184.168V22.8999H182.885V29.0999H189.005V27.7999Z" fill="#005893"/>
</g>
<defs>
<clipPath id="clip0_7_1237">
<rect width="192.5" height="35" fill="white" transform="translate(0.75 17.5)"/>
</clipPath>
</defs>
</svg>
