<svg width="61" height="60" viewBox="0 0 61 60" fill="none" xmlns="http://www.w3.org/2000/svg">
<path d="M30.3667 8.75H30.2696C18.5238 8.75 9.00195 18.2746 9.00195 30.0239V30.121C9.00195 41.8702 18.5238 51.3949 30.2696 51.3949H30.3667C42.1124 51.3949 51.6343 41.8702 51.6343 30.121V30.0239C51.6343 18.2746 42.1124 8.75 30.3667 8.75Z" fill="#00E510"/>
<path d="M34.4717 36.3085C29.0155 36.3085 24.5764 31.8667 24.575 26.4089C24.5764 25.0254 25.7026 23.9004 27.0827 23.9004C27.2246 23.9004 27.365 23.9123 27.4994 23.9362C27.7952 23.9856 28.076 24.0857 28.3344 24.2366C28.3717 24.259 28.3971 24.2948 28.4031 24.3367L28.9796 27.9717C28.9871 28.015 28.9737 28.0569 28.9453 28.0882C28.6271 28.4408 28.2209 28.6948 27.7683 28.8218L27.5502 28.8831L27.6324 29.0937C28.3762 30.9882 29.8907 32.5017 31.7861 33.2487L31.9967 33.3324L32.058 33.1142C32.1849 32.6615 32.4388 32.2552 32.7913 31.9369C32.8167 31.913 32.8511 31.9011 32.8854 31.9011C32.8929 31.9011 32.9004 31.9011 32.9093 31.9026L36.5433 32.4793C36.5866 32.4867 36.6225 32.5106 36.6449 32.548C36.7942 32.8065 36.8943 33.0888 36.9451 33.3847C36.969 33.5161 36.9794 33.6551 36.9794 33.8C36.9794 35.182 35.8547 36.307 34.4717 36.3085Z" fill="#FDFDFD"/>
<path d="M44.1477 28.8745C43.8535 25.5487 42.33 22.4635 39.8581 20.1881C37.3712 17.8992 34.145 16.6382 30.7709 16.6382C23.3656 16.6382 17.3403 22.6652 17.3403 30.0727C17.3403 32.5588 18.0259 34.9807 19.3238 37.0903L16.4292 43.4998L25.6971 42.5123C27.3087 43.1726 29.0144 43.5073 30.7694 43.5073C31.2309 43.5073 31.7044 43.4834 32.1794 43.4341C32.5976 43.3893 33.0203 43.3235 33.4355 43.2399C39.637 41.9863 44.1642 36.4807 44.2 30.1445V30.0727C44.2 29.6693 44.1821 29.2659 44.1463 28.8745H44.1477ZM26.0541 39.6989L20.9265 40.2458L22.4575 36.8528L22.1513 36.4419C22.1288 36.412 22.1064 36.3821 22.0811 36.3478C20.7517 34.5116 20.0497 32.3422 20.0497 30.0742C20.0497 24.1608 24.8592 19.3499 30.7709 19.3499C36.3092 19.3499 41.0037 23.6722 41.4562 29.1898C41.4801 29.4856 41.4936 29.7829 41.4936 30.0757C41.4936 30.1594 41.4921 30.2416 41.4906 30.3297C41.3771 35.2765 37.9223 39.4778 33.089 40.5476C32.7201 40.6297 32.3422 40.6925 31.9658 40.7328C31.5745 40.7777 31.1727 40.8001 30.7739 40.8001C29.3535 40.8001 27.9734 40.5252 26.6694 39.9813C26.5246 39.9231 26.3827 39.8603 26.2497 39.7961L26.0556 39.7019L26.0541 39.6989Z" fill="#FDFDFD"/>
</svg>
