<svg width="210" height="60" viewBox="0 0 210 60" fill="none" xmlns="http://www.w3.org/2000/svg">
<g clip-path="url(#clip0_7_1244)">
<mask id="mask0_7_1244" style="mask-type:luminance" maskUnits="userSpaceOnUse" x="1" y="12" width="207" height="37">
<path d="M207.273 12.5H1.36353V48.75H207.273V12.5Z" fill="white"/>
</mask>
<g mask="url(#mask0_7_1244)">
<path fill-rule="evenodd" clip-rule="evenodd" d="M10.5378 13.4536H30.9249C35.4102 13.4536 39.0797 16.8879 39.0797 21.0851V40.165C39.0797 44.3622 35.4099 47.7965 30.9249 47.7965H10.5378C6.05247 47.7965 2.38306 44.3622 2.38306 40.165V21.0848C2.38306 16.8879 6.05247 13.4536 10.5378 13.4536Z" fill="#E53E0D"/>
</g>
<mask id="mask1_7_1244" style="mask-type:luminance" maskUnits="userSpaceOnUse" x="2" y="13" width="38" height="35">
<mask id="mask2_7_1244" style="mask-type:luminance" maskUnits="userSpaceOnUse" x="1" y="12" width="207" height="37">
<path d="M207.273 12.5H1.36353V48.75H207.273V12.5Z" fill="white"/>
</mask>
<g mask="url(#mask2_7_1244)">
<path d="M39.08 13.4536H2.38306V47.7962H39.08V13.4536Z" fill="url(#paint0_linear_7_1244)"/>
</g>
</mask>
<g mask="url(#mask1_7_1244)">
<mask id="mask3_7_1244" style="mask-type:luminance" maskUnits="userSpaceOnUse" x="1" y="12" width="207" height="37">
<path d="M207.273 12.5H1.36353V48.75H207.273V12.5Z" fill="white"/>
</mask>
<g mask="url(#mask3_7_1244)">
<path fill-rule="evenodd" clip-rule="evenodd" d="M10.5378 13.4536H30.9249C35.4102 13.4536 39.0797 16.8879 39.0797 21.0851V40.165C39.0797 44.3622 35.4099 47.7965 30.9249 47.7965H10.5378C6.05247 47.7965 2.38306 44.3622 2.38306 40.165V21.0848C2.38306 16.8879 6.05247 13.4536 10.5378 13.4536Z" fill="#DD1D1D"/>
</g>
</g>
<mask id="mask4_7_1244" style="mask-type:luminance" maskUnits="userSpaceOnUse" x="1" y="12" width="207" height="37">
<path d="M207.273 12.5H1.36353V48.75H207.273V12.5Z" fill="white"/>
</mask>
<g mask="url(#mask4_7_1244)">
<path fill-rule="evenodd" clip-rule="evenodd" d="M16.654 42.0728H26.8478V36.3488H18.6926C16.4505 36.3488 14.6151 34.6311 14.6151 32.5329V24.9014H8.49927V34.441C8.49927 38.6385 12.169 42.0728 16.654 42.0728Z" fill="white"/>
</g>
<mask id="mask5_7_1244" style="mask-type:luminance" maskUnits="userSpaceOnUse" x="1" y="12" width="207" height="37">
<path d="M207.273 12.5H1.36353V48.75H207.273V12.5Z" fill="white"/>
</mask>
<g mask="url(#mask5_7_1244)">
<path fill-rule="evenodd" clip-rule="evenodd" d="M24.8086 19.1777H14.6152V24.9014H22.77C25.0122 24.9014 26.8476 26.6191 26.8476 28.7173V36.3492H32.9638V26.8092C32.9638 22.612 29.294 19.1777 24.8086 19.1777Z" fill="white"/>
</g>
<mask id="mask6_7_1244" style="mask-type:luminance" maskUnits="userSpaceOnUse" x="1" y="12" width="207" height="37">
<path d="M207.273 12.5H1.36353V48.75H207.273V12.5Z" fill="white"/>
</mask>
<g mask="url(#mask6_7_1244)">
<path fill-rule="evenodd" clip-rule="evenodd" d="M85.9695 26.8087C89.3335 26.8087 92.086 29.3845 92.086 32.5325C92.086 35.6803 89.3335 38.2561 85.9695 38.2561C82.6064 38.2561 79.8539 35.6803 79.8539 32.5325C79.8539 29.3845 82.6056 26.8087 85.9695 26.8087ZM85.9695 21.085C92.6975 21.085 98.2024 26.2363 98.2024 32.5325V43.9798H92.086V42.4352C90.2843 43.4162 88.194 43.9798 85.9695 43.9798C79.2422 43.9798 73.7378 38.8286 73.7378 32.5325C73.7374 26.2363 79.2419 21.085 85.9695 21.085ZM199.582 30.1474C198.616 28.1771 196.49 26.8087 194.021 26.8087C191.553 26.8087 189.426 28.1774 188.46 30.1474H199.582ZM194.021 21.085C200.776 21.085 206.253 26.21 206.253 32.5325C206.253 33.3506 206.161 34.1481 205.986 34.9174H204.814H199.582H188.46C189.426 36.8875 191.553 38.2561 194.021 38.2561C195.657 38.2561 197.142 37.6555 198.239 36.6771L204.095 39.0261C201.889 42.0185 198.199 43.9798 194.02 43.9798C187.265 43.9798 181.788 38.8548 181.788 32.5325C181.789 26.21 187.265 21.085 194.021 21.085ZM102.279 15.3613H108.396V43.9798H102.279V15.3613ZM125.215 32.5325L134.899 43.9798H127.254L118.589 33.7372V43.9798H112.473V15.3613H118.589V31.3277L127.254 21.085H134.899L125.215 32.5325ZM135.918 30.6246H142.034V36.3484H135.918V30.6246ZM165.989 21.085H170.576C175.061 21.085 178.731 24.52 178.731 28.7165V43.9798H172.615V29.3525C172.615 27.9533 171.391 26.8087 169.897 26.8087H166.239C166.408 27.4192 166.498 28.0586 166.498 28.7169V43.9801H160.382V29.3525C160.382 27.9533 159.159 26.8087 157.664 26.8087H154.266V43.9798H148.149V21.085H158.343C161.835 21.085 164.831 23.1665 165.989 26.0684V21.085H165.989ZM59.4665 15.3613H65.5824V21.085H71.6985V26.8087H65.5824V34.4406C65.5824 36.5375 67.4188 38.2565 69.6599 38.2565H71.6989V43.9801H67.6212C63.1377 43.9801 59.4665 40.5459 59.4665 36.3487V26.8087H53.3503V21.085H56.4084C58.0903 21.085 59.4665 19.7971 59.4665 18.2232V15.3613Z" fill="#2B2B2B"/>
</g>
</g>
<defs>
<linearGradient id="paint0_linear_7_1244" x1="36.8456" y1="15.5447" x2="16.9499" y2="36.8046" gradientUnits="userSpaceOnUse">
<stop stop-color="white"/>
<stop offset="1"/>
</linearGradient>
<clipPath id="clip0_7_1244">
<rect width="205.909" height="36.25" fill="white" transform="translate(1.36353 12.5)"/>
</clipPath>
</defs>
</svg>
