<svg width="204" height="60" viewBox="0 0 204 60" fill="none" xmlns="http://www.w3.org/2000/svg">
<path d="M36.6023 36.5372V25.694C36.6009 25.6937 36.6046 25.6931 36.6046 25.6931C36.6046 23.9736 37.6161 23.7252 38.1519 23.6907C39.2609 23.6195 40.9082 23.8072 43.2213 24.2948C44.156 24.4918 45.1279 24.1521 45.6834 23.4343C46.2388 22.7164 46.2681 21.7619 45.7581 21.0163C45.6027 20.7892 45.4382 20.5778 45.2659 20.3811C45.5584 20.1285 45.7826 19.8066 45.9063 19.4389C46.191 18.5935 45.8901 17.674 45.1449 17.113C44.6768 16.7606 44.1883 16.4846 43.6935 16.2715L43.6944 16.2516C43.735 15.2765 43.0637 14.3958 42.0521 14.097C40.4949 13.637 39.0275 13.687 37.787 13.9592C37.0952 12.4042 35.9936 11.383 34.948 10.9329C34.1875 10.6054 33.2951 10.6722 32.6023 11.1083C32.0755 11.4398 31.724 11.9472 31.6114 12.5095C30.5283 12.048 29.4777 11.9008 28.6423 11.9761C27.8261 12.0496 27.1094 12.5055 26.7474 13.1813C26.3854 13.8571 26.4297 14.6567 26.8644 15.2952C27.171 15.7456 27.6019 16.5529 27.8257 17.3766C28.0694 18.2735 27.3304 18.8001 26.5419 18.8001L26.5415 18.8007H25.5951C25.5757 18.8003 25.5559 18.8001 25.5356 18.8001L25.5357 18.8007H11.7419C8.8766 18.8007 6.58496 20.9292 6.58496 23.5508L6.58504 43.3224C6.58504 44.2906 7.07223 45.2461 8.01876 45.8402L8.03763 45.852L8.05675 45.8636C9.531 46.7511 11.591 46.45 12.6285 45.0152L15.2939 41.379C15.3079 41.36 15.319 41.3496 15.3514 41.3356C15.3941 41.3171 15.4926 41.2873 15.6598 41.2873H31.4263C34.2705 41.2873 36.6023 39.1781 36.6023 36.5372Z" fill="url(#paint0_linear_7_1249)"/>
<path fill-rule="evenodd" clip-rule="evenodd" d="M9.35577 44.0438C9.0982 43.8822 8.95466 43.621 8.95466 43.3226L8.95459 23.5511C8.95459 22.1211 10.1963 20.9771 11.7418 20.9771H31.4262C32.9852 20.9771 34.2324 22.1335 34.2324 23.5511V36.5374C34.2324 37.9674 32.9717 39.1114 31.4262 39.1114H15.6597C14.7242 39.1114 13.8566 39.4429 13.3279 40.1641L10.6572 43.8076C10.3725 44.2055 9.7896 44.305 9.35577 44.0438Z" fill="#FF8833"/>
<path d="M36.269 21.8698C37.8021 21.2491 40.3214 21.451 43.7512 22.174C42.7664 20.7344 41.202 20.1925 39.3506 20.0096C40.5223 19.2464 42.7022 18.8711 43.6423 18.796C41.4886 17.1748 38.5345 17.9202 37.4144 18.4655C38.3699 17.5674 40.1042 16.4372 41.3261 16.1687C38.9883 15.4781 36.8733 16.4565 36.108 17.032C35.9631 14.4128 34.6035 13.1882 33.9418 12.9033C34.0078 13.7749 34.0075 15.8309 33.4786 17.082C31.9199 14.5384 29.7591 14.0621 28.8735 14.1419C29.5316 15.1086 30.5287 17.1292 30.3049 18.8009H31.4263C33.6494 18.8009 35.5314 20.0796 36.269 21.8698Z" fill="#5CD65C"/>
<path d="M28.783 24.5454H14.4039C13.7488 24.5454 13.2178 25.0338 13.2178 25.6363C13.2178 26.2388 13.7488 26.7272 14.4039 26.7272H28.783C29.4381 26.7272 29.9691 26.2388 29.9691 25.6363C29.9691 25.0338 29.4381 24.5454 28.783 24.5454Z" fill="#B34A01"/>
<path d="M26.5523 28.9092H16.6346C15.9795 28.9092 15.4485 29.3976 15.4485 30.0001C15.4485 30.6026 15.9795 31.091 16.6346 31.091H26.5523C27.2074 31.091 27.7384 30.6026 27.7384 30.0001C27.7384 29.3976 27.2074 28.9092 26.5523 28.9092Z" fill="#B34A01"/>
<path d="M23.768 33.2725H19.419C18.7639 33.2725 18.2329 33.7609 18.2329 34.3634C18.2329 34.9659 18.7639 35.4543 19.419 35.4543H23.768C24.4231 35.4543 24.9541 34.9659 24.9541 34.3634C24.9541 33.7609 24.4231 33.2725 23.768 33.2725Z" fill="#B34A01"/>
<path d="M60.4861 39.0954C59.2205 39.0954 58.0763 38.8973 57.0401 38.5011C56.0035 38.1049 55.1151 37.5354 54.388 36.7802C53.6475 36.0249 53.0821 35.0963 52.6784 33.9944C52.2744 32.8925 52.0728 31.6296 52.0728 30.2181C52.0728 28.8067 52.2878 27.5562 52.7322 26.4542C53.1766 25.3523 53.7823 24.4237 54.5631 23.6685C55.3436 22.9132 56.2593 22.3437 57.3089 21.9351C58.359 21.5389 59.5032 21.3408 60.7419 21.3408C61.4148 21.3408 62.0205 21.3779 62.5455 21.4399C63.0706 21.5018 63.5418 21.6008 63.9724 21.7246C64.4033 21.8484 64.7936 21.997 65.1439 22.1703C65.5072 22.3437 65.8571 22.5418 66.207 22.7523V24.8694H65.0762C64.8612 24.659 64.6054 24.4733 64.3361 24.2999C64.0669 24.1266 63.7573 23.9656 63.407 23.8418C63.0571 23.7056 62.6803 23.6066 62.2628 23.5323C61.8457 23.458 61.361 23.4209 60.836 23.4209C59.9745 23.4209 59.1936 23.5694 58.4804 23.8542C57.7802 24.139 57.1745 24.5723 56.6629 25.1294C56.1648 25.699 55.7745 26.3923 55.4919 27.2342C55.2092 28.0762 55.0743 29.0419 55.0743 30.1315C55.0743 32.4343 55.5591 34.1677 56.5285 35.3315C57.4975 36.4954 58.8572 37.0649 60.6071 37.0649C61.2128 37.0649 61.7512 37.0154 62.236 36.9163C62.7207 36.8173 63.1512 36.6811 63.5418 36.5078C63.9321 36.3344 64.282 36.1363 64.6054 35.9135C64.9284 35.6906 65.2245 35.443 65.4937 35.183H66.4493V37.2506C66.1263 37.5106 65.763 37.7583 65.3455 37.9811C64.9418 38.204 64.4974 38.4021 63.9993 38.5754C63.515 38.7364 62.9765 38.8726 62.3977 38.9716C61.8054 39.0459 61.1724 39.0954 60.4861 39.0954Z" fill="#22252A"/>
<path d="M78.8878 38.947C78.6186 38.947 78.3897 38.9222 78.2011 38.885C78.0129 38.8479 77.8512 38.7736 77.7302 38.6622C77.6088 38.5507 77.5148 38.4022 77.4341 38.2164C77.353 38.0307 77.2993 37.7955 77.2724 37.4983C76.7473 38.0307 76.1417 38.4269 75.4687 38.687C74.7954 38.9593 73.9877 39.0831 73.0321 39.0831C72.3857 39.0831 71.7935 38.9965 71.255 38.8355C70.7165 38.6746 70.2456 38.427 69.855 38.105C69.4648 37.7831 69.1552 37.3745 68.9397 36.8917C68.7243 36.4088 68.6033 35.8393 68.6033 35.2078C68.6033 34.5392 68.7377 33.9573 69.0069 33.4621C69.2762 32.9668 69.6668 32.5459 70.1511 32.224C70.6358 31.8896 71.2146 31.6544 71.8879 31.4935C72.5609 31.3325 73.3014 31.2458 74.0957 31.2458C74.7013 31.2458 75.2533 31.2706 75.7376 31.3325C76.2223 31.3944 76.707 31.4811 77.2052 31.5925V29.8715C77.2052 29.0915 76.9628 28.522 76.4781 28.1753C75.9934 27.8286 75.2936 27.6429 74.3511 27.6429C73.503 27.6429 72.7629 27.742 72.1165 27.9524C71.4704 28.1629 70.9185 28.4106 70.4745 28.7077H69.5857V26.8258C69.9092 26.6772 70.2322 26.541 70.5955 26.4048C70.9454 26.2686 71.336 26.1572 71.7531 26.0581C72.1706 25.9591 72.6281 25.8724 73.0993 25.8105C73.5841 25.7486 74.1091 25.7114 74.6745 25.7114C75.5091 25.7114 76.2626 25.7857 76.9225 25.9343C77.582 26.0829 78.1339 26.3181 78.5783 26.6276C79.0223 26.9496 79.3726 27.3582 79.6145 27.8658C79.8569 28.3734 79.9783 28.9801 79.9783 29.6858V38.9346H78.8878V38.947ZM73.9205 37.3498C74.2973 37.3498 74.6341 37.3126 74.9437 37.2383C75.2533 37.164 75.536 37.0526 75.8052 36.9164C76.0744 36.7802 76.3168 36.6193 76.5453 36.4459C76.7742 36.2602 76.9897 36.0621 77.1917 35.8516V33.0906C76.7877 33.004 76.384 32.9421 75.9396 32.9049C75.5091 32.8554 75.0378 32.843 74.5531 32.843C74.0822 32.843 73.6378 32.8802 73.2476 32.9668C72.8435 33.0535 72.5071 33.1897 72.2244 33.363C71.9417 33.5364 71.7128 33.7716 71.5511 34.0564C71.3898 34.3411 71.3091 34.6754 71.3091 35.0716C71.3091 35.4802 71.3763 35.8269 71.5108 36.1116C71.6456 36.3964 71.8203 36.6316 72.0627 36.8174C72.2916 37.0031 72.5743 37.1393 72.8973 37.226C73.1934 37.3126 73.5437 37.3498 73.9205 37.3498Z" fill="#22252A"/>
<path d="M90.4515 27.9649C89.9668 27.9649 89.5228 28.002 89.1053 28.0887C88.6882 28.1753 88.311 28.2868 87.9611 28.423C87.6112 28.5592 87.3017 28.7201 87.0056 28.8935C86.7229 29.0668 86.4671 29.2525 86.2516 29.4259V38.9346H83.4785V25.922H85.2149C85.3901 25.922 85.5245 25.9467 85.6593 25.9839C85.7803 26.0334 85.8883 26.1077 85.9689 26.2439C86.0496 26.3801 86.1168 26.5534 86.1571 26.7887C86.1978 27.0239 86.2382 27.3334 86.2516 27.7172C86.494 27.4696 86.7497 27.222 87.0324 26.9991C87.3151 26.7763 87.6247 26.5658 87.9746 26.3925C88.311 26.2191 88.6748 26.0705 89.065 25.9715C89.4552 25.8601 89.8593 25.8105 90.3033 25.8105C90.465 25.8105 90.6128 25.8229 90.7477 25.8353C90.8686 25.8601 90.9766 25.8724 91.0707 25.8972V27.9896C90.9766 27.9896 90.8821 27.9896 90.788 27.9772C90.7208 27.9772 90.6536 27.9772 90.586 27.9772C90.5322 27.9649 90.4784 27.9649 90.4515 27.9649Z" fill="#22252A"/>
<path d="M100.547 27.9649C100.063 27.9649 99.6188 28.002 99.2013 28.0887C98.7842 28.1753 98.407 28.2868 98.0571 28.423C97.7072 28.5592 97.3976 28.7201 97.1015 28.8935C96.8188 29.0668 96.563 29.2525 96.3475 29.4259V38.9346H93.5745V25.922H95.3109C95.486 25.922 95.6205 25.9467 95.7553 25.9839C95.8763 26.0334 95.9842 26.1077 96.0649 26.2439C96.1455 26.3801 96.2131 26.5534 96.2534 26.7887C96.2938 27.0239 96.3341 27.3334 96.3475 27.7172C96.5899 27.4696 96.8457 27.222 97.1284 26.9991C97.4111 26.7763 97.7206 26.5658 98.0705 26.3925C98.407 26.2191 98.7707 26.0705 99.1609 25.9715C99.5516 25.8601 99.9552 25.8105 100.4 25.8105C100.561 25.8105 100.709 25.8229 100.844 25.8353C100.965 25.8601 101.073 25.8724 101.167 25.8972V27.9896C101.073 27.9896 100.978 27.9896 100.884 27.9772C100.817 27.9772 100.75 27.9772 100.682 27.9772C100.615 27.9649 100.574 27.9649 100.547 27.9649Z" fill="#22252A"/>
<path d="M109.351 39.0955C108.395 39.0955 107.494 38.947 106.672 38.6374C105.851 38.3279 105.138 37.8945 104.519 37.325C103.899 36.7555 103.428 36.0621 103.092 35.245C102.742 34.4278 102.58 33.4992 102.58 32.4716C102.58 31.4315 102.755 30.503 103.092 29.661C103.442 28.8315 103.913 28.1134 104.519 27.5315C105.124 26.9496 105.838 26.5038 106.672 26.1819C107.494 25.8724 108.395 25.7114 109.351 25.7114C110.307 25.7114 111.209 25.8724 112.03 26.1819C112.851 26.4915 113.565 26.9372 114.184 27.5315C114.79 28.1134 115.274 28.8191 115.611 29.661C115.961 30.4906 116.122 31.4315 116.122 32.4716C116.122 33.4992 115.947 34.4278 115.611 35.245C115.261 36.0621 114.79 36.7555 114.184 37.325C113.578 37.8945 112.865 38.3279 112.03 38.6374C111.209 38.947 110.32 39.0955 109.351 39.0955ZM109.351 37.1888C109.957 37.1888 110.496 37.0898 110.98 36.8916C111.465 36.6936 111.882 36.4088 112.232 36.0126C112.582 35.6164 112.838 35.1335 113.026 34.5392C113.215 33.9573 113.309 33.264 113.309 32.4716C113.309 31.6792 113.215 30.9858 113.026 30.3791C112.838 29.7725 112.582 29.2648 112.232 28.8687C111.882 28.4601 111.478 28.1506 110.98 27.94C110.496 27.7296 109.944 27.6182 109.351 27.6182C108.745 27.6182 108.207 27.7296 107.723 27.94C107.238 28.1506 106.82 28.4601 106.484 28.8687C106.134 29.2772 105.878 29.7848 105.69 30.3791C105.501 30.9858 105.407 31.6792 105.407 32.4716C105.407 33.264 105.501 33.9449 105.69 34.5392C105.878 35.1335 106.147 35.6164 106.484 36.0126C106.834 36.4088 107.238 36.7059 107.723 36.8916C108.207 37.0898 108.759 37.1888 109.351 37.1888Z" fill="#22252A"/>
<path d="M117.576 25.9219H119.286V22.3809H122.059V25.9219H125.195V27.7047H122.059V35.4306C122.059 35.7773 122.099 36.0621 122.18 36.2849C122.261 36.5202 122.382 36.6935 122.544 36.8297C122.705 36.9659 122.921 37.0649 123.163 37.1145C123.419 37.1764 123.715 37.2011 124.078 37.2011H125.357V38.8478C125.101 38.9097 124.778 38.9717 124.401 39.0212C124.024 39.0707 123.593 39.0955 123.109 39.0955C122.503 39.0955 121.965 39.0335 121.494 38.9097C121.022 38.7859 120.619 38.5878 120.296 38.3278C119.972 38.0554 119.717 37.7088 119.542 37.2878C119.367 36.8669 119.286 36.3468 119.286 35.7402V27.7171H117.576V25.9219Z" fill="#22252A"/>
<path d="M142.749 37.1886C142.507 37.4362 142.238 37.6591 141.928 37.8572C141.618 38.0553 141.282 38.241 140.919 38.3896C140.555 38.5381 140.165 38.662 139.747 38.7487C139.33 38.8353 138.899 38.8724 138.455 38.8724C137.715 38.8724 137.015 38.761 136.328 38.5258C135.655 38.2905 135.063 37.9191 134.551 37.4115C134.04 36.9039 133.636 36.26 133.326 35.4552C133.017 34.6628 132.869 33.6971 132.869 32.5704C132.869 31.3075 133.043 30.2428 133.38 29.3637C133.73 28.497 134.175 27.7913 134.74 27.2465C135.305 26.7017 135.938 26.3179 136.638 26.0827C137.351 25.8474 138.065 25.7236 138.805 25.7236C139.761 25.7236 140.568 25.8598 141.228 26.1198C141.888 26.3798 142.453 26.7265 142.938 27.1599C143.032 26.8008 143.194 26.4913 143.409 26.2684C143.624 26.0332 143.907 25.9217 144.244 25.9217H145.522V42.9954H142.749V37.1886ZM139.128 37.0029C139.855 37.0029 140.528 36.8543 141.134 36.5448C141.74 36.2353 142.278 35.8391 142.749 35.3686V28.9304C142.332 28.5589 141.874 28.2741 141.363 28.076C140.851 27.878 140.218 27.7789 139.464 27.7789C138.994 27.7789 138.522 27.8532 138.065 27.9894C137.607 28.1256 137.203 28.3732 136.853 28.7075C136.49 29.0542 136.207 29.5247 135.992 30.1066C135.776 30.7009 135.655 31.4437 135.655 32.3599C135.655 33.2514 135.736 33.9943 135.898 34.5885C136.059 35.1829 136.288 35.6657 136.597 36.0248C136.907 36.3838 137.271 36.6439 137.701 36.7924C138.132 36.9286 138.603 37.0029 139.128 37.0029Z" fill="#22252A"/>
<path d="M154.111 37.1267C154.474 37.1267 154.824 37.0896 155.188 37.0153C155.538 36.941 155.888 36.8543 156.224 36.7305C156.561 36.6191 156.884 36.4829 157.207 36.3343C157.517 36.1857 157.826 36.0372 158.109 35.8762V25.9094H160.882V38.9344H159.145C158.984 38.9344 158.849 38.922 158.728 38.8849C158.607 38.8477 158.513 38.7858 158.432 38.6744C158.351 38.5629 158.284 38.4144 158.244 38.2286C158.189 38.0305 158.163 37.7829 158.149 37.461C157.799 37.6962 157.422 37.9191 157.018 38.1172C156.615 38.3153 156.197 38.4886 155.767 38.6372C155.336 38.7858 154.878 38.8972 154.42 38.9839C153.963 39.0706 153.505 39.1077 153.034 39.1077C152.482 39.1077 151.97 39.0458 151.499 38.9344C151.028 38.8229 150.624 38.6248 150.274 38.3525C149.924 38.0801 149.655 37.721 149.467 37.2753C149.278 36.8296 149.17 36.2724 149.17 35.6162V25.897H151.943V35.0467C151.943 35.4553 151.997 35.8019 152.105 36.0743C152.213 36.3467 152.361 36.5572 152.549 36.7058C152.738 36.8543 152.967 36.9658 153.236 37.0277C153.492 37.0896 153.788 37.1267 154.111 37.1267Z" fill="#22252A"/>
<path d="M166.603 32.9168C166.643 33.6844 166.751 34.3406 166.967 34.8854C167.168 35.4302 167.451 35.8759 167.815 36.2102C168.178 36.5569 168.623 36.8045 169.134 36.953C169.659 37.1016 170.251 37.1883 170.911 37.1883C171.813 37.1883 172.594 37.0769 173.226 36.8416C173.859 36.6064 174.397 36.3216 174.828 35.9873H175.73V37.7578C175.474 37.9188 175.178 38.0797 174.855 38.2407C174.532 38.4017 174.141 38.5378 173.724 38.674C173.307 38.7978 172.822 38.9093 172.297 38.9836C171.772 39.0578 171.167 39.095 170.507 39.095C169.416 39.095 168.461 38.9464 167.626 38.6369C166.792 38.3274 166.078 37.894 165.513 37.3121C164.934 36.7426 164.503 36.0492 164.207 35.2321C163.911 34.4149 163.763 33.4987 163.763 32.471C163.763 31.431 163.924 30.5025 164.261 29.6605C164.597 28.831 165.042 28.1129 165.621 27.531C166.199 26.949 166.886 26.5033 167.667 26.1814C168.461 25.8719 169.309 25.7109 170.224 25.7109C171.153 25.7109 171.988 25.8348 172.728 26.0948C173.468 26.3548 174.088 26.7386 174.599 27.2586C175.111 27.7786 175.488 28.4348 175.757 29.2272C176.026 30.0196 176.161 30.9482 176.161 32.013C176.161 32.1863 176.161 32.3596 176.147 32.5453C176.134 32.7311 176.134 32.8549 176.134 32.892H166.603V32.9168ZM170.224 27.469C169.767 27.469 169.336 27.531 168.932 27.6672C168.528 27.8033 168.178 28.0138 167.855 28.3234C167.546 28.6205 167.276 29.0167 167.074 29.4996C166.859 29.9824 166.724 30.5644 166.657 31.2577H173.428C173.415 30.552 173.32 29.9577 173.172 29.4872C173.024 29.0043 172.809 28.6205 172.54 28.3234C172.271 28.0262 171.934 27.8033 171.543 27.6796C171.14 27.531 170.709 27.469 170.224 27.469Z" fill="#22252A"/>
<path d="M182.797 39.0702C182.218 39.0702 181.693 39.033 181.222 38.9711C180.751 38.9092 180.334 38.8225 179.97 38.7111C179.594 38.5997 179.271 38.4759 178.974 38.3521C178.678 38.2159 178.409 38.0797 178.18 37.9311V35.9625H179.069C179.23 36.1111 179.432 36.2473 179.661 36.3834C179.89 36.5197 180.159 36.6434 180.455 36.7549C180.751 36.8663 181.088 36.953 181.465 37.0273C181.842 37.1016 182.245 37.1263 182.676 37.1263C184.642 37.1263 185.624 36.4949 185.624 35.2444C185.624 34.972 185.584 34.7368 185.49 34.5386C185.396 34.3406 185.234 34.1672 185.005 34.0186C184.776 33.8701 184.466 33.7462 184.09 33.6348C183.713 33.5234 183.228 33.4367 182.649 33.3501C181.936 33.251 181.303 33.1148 180.751 32.9415C180.199 32.7681 179.728 32.5329 179.351 32.2358C178.974 31.9386 178.678 31.5796 178.49 31.1462C178.288 30.7129 178.194 30.1929 178.194 29.5862C178.194 28.9671 178.315 28.4224 178.557 27.9518C178.799 27.4814 179.136 27.0852 179.58 26.7633C180.024 26.4414 180.549 26.1937 181.182 26.0328C181.815 25.8718 182.515 25.7852 183.295 25.7852C184.292 25.7852 185.113 25.8718 185.772 26.0576C186.432 26.2309 186.997 26.4537 187.455 26.7014V28.6452H186.567C186.217 28.3976 185.786 28.1747 185.261 27.989C184.736 27.8033 184.09 27.7166 183.309 27.7166C182.407 27.7166 181.734 27.8528 181.303 28.1376C180.873 28.4224 180.657 28.8433 180.657 29.4005C180.657 29.6605 180.711 29.8833 180.818 30.069C180.926 30.2548 181.101 30.4157 181.33 30.5519C181.572 30.6881 181.882 30.8119 182.259 30.8986C182.636 30.9853 183.107 31.0843 183.673 31.1586C184.453 31.27 185.126 31.4062 185.692 31.5919C186.27 31.7777 186.742 32.0129 187.119 32.31C187.495 32.6072 187.778 32.9786 187.967 33.4244C188.155 33.8701 188.249 34.3901 188.249 35.0092C188.249 35.6282 188.142 36.1853 187.926 36.693C187.711 37.2006 187.374 37.6216 186.93 37.9806C186.486 38.3273 185.921 38.5997 185.234 38.7978C184.534 38.9711 183.726 39.0702 182.797 39.0702Z" fill="#22252A"/>
<path d="M189.744 25.9219H191.453V22.3809H194.226V25.9219H197.363V27.7047H194.226V35.4306C194.226 35.7773 194.267 36.0621 194.347 36.2849C194.428 36.5202 194.549 36.6935 194.711 36.8297C194.872 36.9659 195.088 37.0649 195.33 37.1145C195.586 37.1764 195.882 37.2011 196.245 37.2011H197.524V38.8478C197.269 38.9097 196.945 38.9717 196.568 39.0212C196.192 39.0707 195.761 39.0955 195.276 39.0955C194.67 39.0955 194.132 39.0335 193.661 38.9097C193.19 38.7859 192.786 38.5878 192.463 38.3278C192.14 38.0554 191.884 37.7088 191.709 37.2878C191.534 36.8669 191.453 36.3468 191.453 35.7402V27.7171H189.744V25.9219Z" fill="#22252A"/>
<defs>
<linearGradient id="paint0_linear_7_1249" x1="36.0395" y1="17.0907" x2="30.6015" y2="26.0548" gradientUnits="userSpaceOnUse">
<stop stop-color="#2D862D"/>
<stop offset="1" stop-color="#B34A00"/>
</linearGradient>
</defs>
</svg>
