<svg width="478" height="260" viewBox="0 0 478 260" fill="none" xmlns="http://www.w3.org/2000/svg">
<path d="M1.98 5.2H4.5V8.924H8.14V5.2H10.66V15H8.14V10.996H4.5V15H1.98V5.2ZM15.8367 15.182C15.3141 15.182 14.8241 15.1073 14.3667 14.958C13.9094 14.7993 13.5081 14.5613 13.1627 14.244C12.8174 13.9267 12.5467 13.53 12.3507 13.054C12.1547 12.5687 12.0567 12.004 12.0567 11.36V11.08C12.0567 10.4733 12.1547 9.94133 12.3507 9.484C12.5467 9.02667 12.8174 8.644 13.1627 8.336C13.5081 8.028 13.9094 7.79467 14.3667 7.636C14.8241 7.47733 15.3141 7.398 15.8367 7.398C16.3594 7.398 16.8494 7.47733 17.3067 7.636C17.7641 7.79467 18.1654 8.028 18.5107 8.336C18.8561 8.644 19.1267 9.02667 19.3227 9.484C19.5187 9.94133 19.6167 10.4733 19.6167 11.08V11.36C19.6167 11.9947 19.5187 12.5547 19.3227 13.04C19.1267 13.516 18.8561 13.9127 18.5107 14.23C18.1654 14.5473 17.7641 14.7853 17.3067 14.944C16.8494 15.1027 16.3594 15.182 15.8367 15.182ZM15.8367 13.39C16.3407 13.39 16.7281 13.208 16.9987 12.844C17.2694 12.48 17.4047 11.9853 17.4047 11.36V11.08C17.4047 10.52 17.2694 10.0673 16.9987 9.722C16.7281 9.36733 16.3407 9.19 15.8367 9.19C15.3327 9.19 14.9454 9.36733 14.6747 9.722C14.4041 10.0673 14.2687 10.52 14.2687 11.08V11.36C14.2687 12.004 14.4041 12.5033 14.6747 12.858C14.9454 13.2127 15.3327 13.39 15.8367 13.39ZM20.7313 7.58H24.7073C25.1926 7.58 25.6079 7.63133 25.9533 7.734C26.3079 7.82733 26.5926 7.96267 26.8073 8.14C27.0313 8.31733 27.1946 8.52733 27.2973 8.77C27.3999 9.00333 27.4513 9.26 27.4513 9.54C27.4513 9.89467 27.3486 10.226 27.1433 10.534C26.9379 10.8327 26.6439 11.0333 26.2613 11.136C26.7186 11.248 27.0779 11.4627 27.3393 11.78C27.6006 12.0973 27.7313 12.466 27.7313 12.886C27.7313 13.53 27.5026 14.0433 27.0453 14.426C26.5879 14.8087 25.9019 15 24.9873 15H20.7313V7.58ZM24.4553 13.376C25.2019 13.376 25.5753 13.1473 25.5753 12.69C25.5753 12.2233 25.2019 11.99 24.4553 11.99H22.8873V13.376H24.4553ZM24.3293 10.478C24.7026 10.478 24.9546 10.422 25.0853 10.31C25.2253 10.1887 25.2953 10.03 25.2953 9.834C25.2953 9.62867 25.2253 9.47467 25.0853 9.372C24.9453 9.26 24.6933 9.204 24.3293 9.204H22.8873V10.478H24.3293ZM28.8523 7.58H31.0083V9.988H32.2123C33.183 9.988 33.9157 10.1933 34.4103 10.604C34.905 11.0147 35.1523 11.6447 35.1523 12.494C35.1523 12.8673 35.0963 13.208 34.9843 13.516C34.8817 13.824 34.709 14.09 34.4663 14.314C34.233 14.5287 33.9297 14.6967 33.5563 14.818C33.1923 14.9393 32.7443 15 32.2123 15H28.8523V7.58ZM31.9323 13.376C32.315 13.376 32.5857 13.306 32.7443 13.166C32.9123 13.0167 32.9963 12.7927 32.9963 12.494C32.9963 12.186 32.9123 11.962 32.7443 11.822C32.5857 11.682 32.315 11.612 31.9323 11.612H31.0083V13.376H31.9323ZM35.7963 7.58H37.9523V15H35.7963V7.58ZM42.9223 15.182C42.381 15.182 41.8723 15.1073 41.3963 14.958C40.9297 14.7993 40.5237 14.5613 40.1783 14.244C39.833 13.9267 39.5623 13.53 39.3663 13.054C39.1703 12.5687 39.0723 12.004 39.0723 11.36V11.08C39.0723 10.464 39.1657 9.92733 39.3523 9.47C39.5483 9.01267 39.8097 8.63 40.1363 8.322C40.4723 8.014 40.8643 7.78533 41.3123 7.636C41.7697 7.47733 42.2597 7.398 42.7823 7.398C44.005 7.398 44.929 7.71533 45.5543 8.35C46.1797 8.97533 46.4923 9.88533 46.4923 11.08V11.85H41.2843C41.2937 12.1393 41.345 12.3867 41.4383 12.592C41.5317 12.788 41.653 12.9513 41.8023 13.082C41.9517 13.2127 42.1197 13.3107 42.3063 13.376C42.5023 13.432 42.7077 13.46 42.9223 13.46C43.333 13.46 43.655 13.3993 43.8883 13.278C44.131 13.1473 44.2897 12.9747 44.3643 12.76H46.3523C46.203 13.572 45.8343 14.1787 45.2463 14.58C44.6583 14.9813 43.8837 15.182 42.9223 15.182ZM42.8523 9.106C42.6563 9.106 42.465 9.12933 42.2783 9.176C42.101 9.22267 41.9377 9.302 41.7883 9.414C41.6483 9.51667 41.5317 9.652 41.4383 9.82C41.3543 9.988 41.3077 10.1933 41.2983 10.436H44.3783C44.3783 10.1747 44.3363 9.96 44.2523 9.792C44.1683 9.624 44.0563 9.48867 43.9163 9.386C43.7857 9.28333 43.627 9.21333 43.4403 9.176C43.2537 9.12933 43.0577 9.106 42.8523 9.106ZM50.6202 13.236H51.4042C51.6002 12.9467 51.7402 12.55 51.8242 12.046C51.9082 11.5327 51.9502 10.8373 51.9502 9.96V7.58H58.0402V13.236H58.8802V16.75H57.0602V15H52.4402V16.75H50.6202V13.236ZM55.8842 13.236V9.344H53.9382V10.24C53.9382 10.94 53.9008 11.5327 53.8262 12.018C53.7608 12.5033 53.6582 12.9093 53.5182 13.236H55.8842ZM59.8602 7.58H61.9602V12.06L65.1102 7.58H67.0002V15H64.9002V10.52L61.7502 15H59.8602V7.58ZM70.7151 15.182C70.3137 15.182 69.9544 15.1213 69.6371 15C69.3291 14.8787 69.0677 14.7153 68.8531 14.51C68.6384 14.2953 68.4751 14.048 68.3631 13.768C68.2511 13.4787 68.1951 13.166 68.1951 12.83C68.1951 12.0927 68.4191 11.528 68.8671 11.136C69.3244 10.744 70.0104 10.548 70.9251 10.548H73.0391V10.24C73.0391 9.792 72.9317 9.484 72.7171 9.316C72.5024 9.13867 72.2084 9.05 71.8351 9.05C71.4804 9.05 71.2191 9.106 71.0511 9.218C70.8831 9.33 70.7897 9.50733 70.7711 9.75H68.6151C68.6337 9.414 68.7177 9.106 68.8671 8.826C69.0164 8.53667 69.2264 8.28933 69.4971 8.084C69.7771 7.86933 70.1177 7.70133 70.5191 7.58C70.9204 7.45867 71.3824 7.398 71.9051 7.398C72.3904 7.398 72.8337 7.454 73.2351 7.566C73.6457 7.66867 73.9957 7.84133 74.2851 8.084C74.5744 8.31733 74.7984 8.62533 74.9571 9.008C75.1157 9.38133 75.1951 9.83867 75.1951 10.38V13.11C75.1951 13.502 75.2044 13.8473 75.2231 14.146C75.2417 14.4353 75.2697 14.72 75.3071 15H73.2631C73.2444 14.8413 73.2257 14.7013 73.2071 14.58C73.1977 14.4587 73.1931 14.3093 73.1931 14.132C72.9691 14.4307 72.6564 14.6827 72.2551 14.888C71.8631 15.084 71.3497 15.182 70.7151 15.182ZM71.4151 13.67C71.8724 13.67 72.2551 13.5393 72.5631 13.278C72.8804 13.0167 73.0391 12.6573 73.0391 12.2V11.892H71.3451C71.0277 11.892 70.7897 11.976 70.6311 12.144C70.4817 12.312 70.4071 12.508 70.4071 12.732C70.4071 13.0027 70.4817 13.2267 70.6311 13.404C70.7897 13.5813 71.0511 13.67 71.4151 13.67ZM76.7362 15.182C76.6615 15.182 76.5542 15.1773 76.4142 15.168C76.2835 15.168 76.1808 15.1587 76.1062 15.14V13.264C76.1528 13.2733 76.2228 13.278 76.3162 13.278C76.4748 13.278 76.6148 13.2313 76.7362 13.138C76.8575 13.0353 76.9602 12.872 77.0442 12.648C77.1282 12.4147 77.1888 12.116 77.2262 11.752C77.2728 11.3787 77.2962 10.9213 77.2962 10.38V7.58H83.4562V15H81.3002V9.344H79.3122V10.66C79.3122 11.584 79.2562 12.34 79.1442 12.928C79.0322 13.516 78.8688 13.978 78.6542 14.314C78.4395 14.65 78.1688 14.8787 77.8422 15C77.5248 15.1213 77.1562 15.182 76.7362 15.182ZM88.3523 15.182C87.8297 15.182 87.3397 15.1073 86.8823 14.958C86.425 14.7993 86.0237 14.5613 85.6783 14.244C85.333 13.9267 85.0623 13.53 84.8663 13.054C84.6703 12.5687 84.5723 12.004 84.5723 11.36V11.08C84.5723 10.4733 84.6703 9.94133 84.8663 9.484C85.0623 9.02667 85.333 8.644 85.6783 8.336C86.0237 8.028 86.425 7.79467 86.8823 7.636C87.3397 7.47733 87.8297 7.398 88.3523 7.398C88.875 7.398 89.365 7.47733 89.8223 7.636C90.2797 7.79467 90.681 8.028 91.0263 8.336C91.3717 8.644 91.6423 9.02667 91.8383 9.484C92.0343 9.94133 92.1323 10.4733 92.1323 11.08V11.36C92.1323 11.9947 92.0343 12.5547 91.8383 13.04C91.6423 13.516 91.3717 13.9127 91.0263 14.23C90.681 14.5473 90.2797 14.7853 89.8223 14.944C89.365 15.1027 88.875 15.182 88.3523 15.182ZM88.3523 13.39C88.8563 13.39 89.2437 13.208 89.5143 12.844C89.785 12.48 89.9203 11.9853 89.9203 11.36V11.08C89.9203 10.52 89.785 10.0673 89.5143 9.722C89.2437 9.36733 88.8563 9.19 88.3523 9.19C87.8483 9.19 87.461 9.36733 87.1903 9.722C86.9197 10.0673 86.7843 10.52 86.7843 11.08V11.36C86.7843 12.004 86.9197 12.5033 87.1903 12.858C87.461 13.2127 87.8483 13.39 88.3523 13.39ZM93.2469 7.58H98.7069V9.344H95.4029V15H93.2469V7.58ZM99.6863 7.58H101.786V12.06L104.936 7.58H106.826V15H104.726V10.52L101.576 15H99.6863V7.58Z" fill="#2B2B2B"/>
<circle cx="5" cy="46" r="4" fill="#356FEC"/>
<path d="M20.682 42.348H17.28V41.2H25.4V42.348H21.998V51H20.682V42.348ZM28.6238 51.14C28.1478 51.14 27.6952 51.0653 27.2658 50.916C26.8365 50.7667 26.4585 50.538 26.1318 50.23C25.8052 49.9127 25.5438 49.516 25.3478 49.04C25.1518 48.564 25.0538 48.004 25.0538 47.36V47.08C25.0538 46.464 25.1472 45.932 25.3338 45.484C25.5205 45.0267 25.7678 44.6487 26.0758 44.35C26.3932 44.042 26.7572 43.8133 27.1678 43.664C27.5878 43.5147 28.0265 43.44 28.4838 43.44C29.5758 43.44 30.4205 43.7387 31.0178 44.336C31.6152 44.9333 31.9138 45.778 31.9138 46.87V47.654H26.2858C26.2858 48.0927 26.3558 48.4613 26.4958 48.76C26.6358 49.0587 26.8178 49.3013 27.0418 49.488C27.2658 49.6747 27.5132 49.81 27.7838 49.894C28.0638 49.978 28.3438 50.02 28.6238 50.02C29.1838 50.02 29.6132 49.9267 29.9118 49.74C30.2198 49.5533 30.4392 49.2967 30.5698 48.97H31.7738C31.6992 49.3247 31.5638 49.6373 31.3678 49.908C31.1812 50.1787 30.9478 50.4073 30.6678 50.594C30.3972 50.7713 30.0845 50.9067 29.7298 51C29.3845 51.0933 29.0158 51.14 28.6238 51.14ZM28.5538 44.56C28.2645 44.56 27.9845 44.602 27.7138 44.686C27.4432 44.7607 27.2005 44.8867 26.9858 45.064C26.7805 45.232 26.6125 45.4467 26.4818 45.708C26.3512 45.9693 26.2858 46.282 26.2858 46.646H30.7518C30.7425 46.2633 30.6772 45.9413 30.5558 45.68C30.4438 45.4093 30.2898 45.1947 30.0938 45.036C29.8978 44.868 29.6645 44.7467 29.3938 44.672C29.1325 44.5973 28.8525 44.56 28.5538 44.56ZM35.9049 51.07C35.1303 51.07 34.5749 50.8833 34.2389 50.51C33.9029 50.1367 33.7349 49.53 33.7349 48.69V41.2H34.9669V48.69C34.9669 49.1753 35.0463 49.5067 35.2049 49.684C35.3636 49.8613 35.6436 49.95 36.0449 49.95C36.1476 49.95 36.2363 49.95 36.3109 49.95C36.3856 49.9407 36.4603 49.9313 36.5349 49.922V51.014C36.4603 51.0327 36.3529 51.0467 36.2129 51.056C36.0823 51.0653 35.9796 51.07 35.9049 51.07ZM41.0926 51.14C40.6166 51.14 40.1639 51.0653 39.7346 50.916C39.3052 50.7667 38.9272 50.538 38.6006 50.23C38.2739 49.9127 38.0126 49.516 37.8166 49.04C37.6206 48.564 37.5226 48.004 37.5226 47.36V47.08C37.5226 46.464 37.6159 45.932 37.8026 45.484C37.9892 45.0267 38.2366 44.6487 38.5446 44.35C38.8619 44.042 39.2259 43.8133 39.6366 43.664C40.0566 43.5147 40.4952 43.44 40.9526 43.44C42.0446 43.44 42.8892 43.7387 43.4866 44.336C44.0839 44.9333 44.3826 45.778 44.3826 46.87V47.654H38.7546C38.7546 48.0927 38.8246 48.4613 38.9646 48.76C39.1046 49.0587 39.2866 49.3013 39.5106 49.488C39.7346 49.6747 39.9819 49.81 40.2526 49.894C40.5326 49.978 40.8126 50.02 41.0926 50.02C41.6526 50.02 42.0819 49.9267 42.3806 49.74C42.6886 49.5533 42.9079 49.2967 43.0386 48.97H44.2426C44.1679 49.3247 44.0326 49.6373 43.8366 49.908C43.6499 50.1787 43.4166 50.4073 43.1366 50.594C42.8659 50.7713 42.5532 50.9067 42.1986 51C41.8532 51.0933 41.4846 51.14 41.0926 51.14ZM41.0226 44.56C40.7332 44.56 40.4532 44.602 40.1826 44.686C39.9119 44.7607 39.6692 44.8867 39.4546 45.064C39.2492 45.232 39.0812 45.4467 38.9506 45.708C38.8199 45.9693 38.7546 46.282 38.7546 46.646H43.2206C43.2112 46.2633 43.1459 45.9413 43.0246 45.68C42.9126 45.4093 42.7586 45.1947 42.5626 45.036C42.3666 44.868 42.1332 44.7467 41.8626 44.672C41.6012 44.5973 41.3212 44.56 41.0226 44.56ZM49.0737 53.94C48.5323 53.94 48.0703 53.884 47.6877 53.772C47.305 53.6693 46.9877 53.5247 46.7357 53.338C46.493 53.1513 46.3063 52.9273 46.1757 52.666C46.045 52.414 45.961 52.1387 45.9237 51.84H47.2117C47.2583 51.9893 47.3237 52.1247 47.4077 52.246C47.4917 52.3673 47.6037 52.47 47.7437 52.554C47.8837 52.638 48.061 52.7033 48.2757 52.75C48.4997 52.7967 48.7657 52.82 49.0737 52.82C49.8297 52.82 50.385 52.638 50.7397 52.274C51.0943 51.91 51.2717 51.392 51.2717 50.72V49.53C51.057 50.0247 50.7257 50.3933 50.2777 50.636C49.839 50.8787 49.321 51 48.7237 51C48.2663 51 47.8463 50.9207 47.4637 50.762C47.0903 50.6033 46.7683 50.37 46.4977 50.062C46.227 49.754 46.017 49.3713 45.8677 48.914C45.7183 48.4473 45.6437 47.906 45.6437 47.29V47.01C45.6437 46.4407 45.7183 45.9367 45.8677 45.498C46.0263 45.05 46.241 44.6767 46.5117 44.378C46.7823 44.07 47.1043 43.8367 47.4777 43.678C47.8603 43.5193 48.2757 43.44 48.7237 43.44C49.3583 43.44 49.909 43.5847 50.3757 43.874C50.8423 44.154 51.169 44.5227 51.3557 44.98V43.58H52.5037V50.72C52.5037 51.728 52.2097 52.5167 51.6217 53.086C51.0337 53.6553 50.1843 53.94 49.0737 53.94ZM49.0037 49.908C49.3397 49.908 49.6477 49.8567 49.9277 49.754C50.2077 49.642 50.4457 49.488 50.6417 49.292C50.8377 49.096 50.9917 48.8627 51.1037 48.592C51.2157 48.3213 51.2717 48.0273 51.2717 47.71V46.59C51.2717 46.31 51.2157 46.044 51.1037 45.792C50.9917 45.54 50.8377 45.3207 50.6417 45.134C50.4457 44.9473 50.2077 44.8027 49.9277 44.7C49.6477 44.588 49.3397 44.532 49.0037 44.532C48.705 44.532 48.425 44.588 48.1637 44.7C47.9023 44.812 47.6737 44.9753 47.4777 45.19C47.291 45.4047 47.1417 45.666 47.0297 45.974C46.927 46.2727 46.8757 46.618 46.8757 47.01V47.29C46.8757 47.71 46.927 48.0833 47.0297 48.41C47.1417 48.7367 47.291 49.012 47.4777 49.236C47.6737 49.46 47.9023 49.628 48.1637 49.74C48.425 49.852 48.705 49.908 49.0037 49.908ZM54.747 43.58H55.895V44.98C56.0536 44.5413 56.315 44.1773 56.679 43.888C57.0523 43.5893 57.505 43.44 58.037 43.44C58.2236 43.44 58.373 43.4493 58.485 43.468C58.6063 43.4867 58.7136 43.51 58.807 43.538V44.686C58.6856 44.6393 58.5643 44.6067 58.443 44.588C58.331 44.5693 58.1723 44.56 57.967 44.56C57.687 44.56 57.4256 44.6113 57.183 44.714C56.9403 44.8167 56.7303 44.9613 56.553 45.148C56.3756 45.3253 56.2356 45.5447 56.133 45.806C56.0303 46.0673 55.979 46.352 55.979 46.66V51H54.747V43.58ZM62.1793 51.14C61.7686 51.14 61.4046 51.084 61.0873 50.972C60.7793 50.8507 60.518 50.6873 60.3033 50.482C60.0886 50.2767 59.9253 50.034 59.8133 49.754C59.7013 49.474 59.6453 49.166 59.6453 48.83C59.6453 48.0927 59.86 47.5607 60.2893 47.234C60.728 46.9073 61.3533 46.744 62.1653 46.744H64.5733V46.24C64.5733 45.6053 64.4286 45.1667 64.1393 44.924C63.8593 44.6813 63.4346 44.56 62.8653 44.56C62.3333 44.56 61.946 44.6627 61.7033 44.868C61.4606 45.064 61.3253 45.288 61.2973 45.54H60.0653C60.084 45.2413 60.1633 44.966 60.3033 44.714C60.4526 44.4527 60.6486 44.2287 60.8913 44.042C61.1433 43.8553 61.442 43.7107 61.7873 43.608C62.1326 43.496 62.5153 43.44 62.9353 43.44C63.8126 43.44 64.508 43.65 65.0213 44.07C65.544 44.4807 65.8053 45.1573 65.8053 46.1V49.11C65.8053 49.502 65.8053 49.8473 65.8053 50.146C65.8146 50.4353 65.838 50.72 65.8753 51H64.7973C64.7693 50.7853 64.7506 50.5847 64.7413 50.398C64.732 50.202 64.7273 49.9827 64.7273 49.74C64.5313 50.132 64.214 50.4633 63.7753 50.734C63.3366 51.0047 62.8046 51.14 62.1793 51.14ZM62.4453 50.02C62.7346 50.02 63.0053 49.9827 63.2573 49.908C63.5186 49.824 63.7473 49.7073 63.9433 49.558C64.1393 49.3993 64.2933 49.208 64.4053 48.984C64.5173 48.76 64.5733 48.4987 64.5733 48.2V47.696H62.3753C61.918 47.696 61.5586 47.7893 61.2973 47.976C61.036 48.1533 60.9053 48.438 60.9053 48.83C60.9053 49.1753 61.0266 49.46 61.2693 49.684C61.5213 49.908 61.9133 50.02 62.4453 50.02ZM67.9813 43.58H69.1293V44.98C69.288 44.5227 69.5587 44.154 69.9413 43.874C70.3333 43.5847 70.7767 43.44 71.2713 43.44C71.9153 43.44 72.41 43.58 72.7553 43.86C73.1007 44.1307 73.3387 44.4807 73.4693 44.91C73.712 44.4527 74.02 44.0933 74.3933 43.832C74.776 43.5707 75.2333 43.44 75.7653 43.44C76.5307 43.44 77.128 43.6733 77.5573 44.14C77.9867 44.5973 78.2013 45.3207 78.2013 46.31V51H76.9693V46.59C76.9693 45.8527 76.8387 45.33 76.5773 45.022C76.3253 44.714 75.938 44.56 75.4153 44.56C75.1913 44.56 74.9767 44.6067 74.7713 44.7C74.566 44.7933 74.384 44.9287 74.2253 45.106C74.0667 45.2833 73.9407 45.498 73.8473 45.75C73.754 46.002 73.7073 46.282 73.7073 46.59V51H72.4753V46.59C72.4753 45.8527 72.3447 45.33 72.0833 45.022C71.822 44.714 71.4347 44.56 70.9213 44.56C70.6973 44.56 70.4827 44.6067 70.2773 44.7C70.072 44.7933 69.89 44.9287 69.7313 45.106C69.5727 45.2833 69.4467 45.498 69.3533 45.75C69.26 46.002 69.2133 46.282 69.2133 46.59V51H67.9813V43.58Z" fill="#2B2B2B"/>
<circle cx="104" cy="46" r="4" fill="#0AC4B4"/>
<path d="M116.42 41.2H117.82L119.836 48.9L122.132 41.2H123.308L125.646 48.9L127.676 41.2H129.02L126.388 51H125.072L122.692 43.3L120.368 51H119.052L116.42 41.2ZM130.559 41.2H131.791V44.91C131.885 44.714 132.006 44.5273 132.155 44.35C132.305 44.1727 132.482 44.0187 132.687 43.888C132.893 43.748 133.126 43.6407 133.387 43.566C133.649 43.482 133.933 43.44 134.241 43.44C135.175 43.44 135.865 43.692 136.313 44.196C136.771 44.6907 136.999 45.4187 136.999 46.38V51H135.767V46.66C135.767 45.9693 135.623 45.4467 135.333 45.092C135.044 44.7373 134.559 44.56 133.877 44.56C133.513 44.56 133.196 44.6207 132.925 44.742C132.664 44.8633 132.449 45.022 132.281 45.218C132.113 45.414 131.987 45.638 131.903 45.89C131.829 46.142 131.791 46.3987 131.791 46.66V51H130.559V41.2ZM141.287 51.14C140.876 51.14 140.512 51.084 140.195 50.972C139.887 50.8507 139.625 50.6873 139.411 50.482C139.196 50.2767 139.033 50.034 138.921 49.754C138.809 49.474 138.753 49.166 138.753 48.83C138.753 48.0927 138.967 47.5607 139.397 47.234C139.835 46.9073 140.461 46.744 141.273 46.744H143.681V46.24C143.681 45.6053 143.536 45.1667 143.247 44.924C142.967 44.6813 142.542 44.56 141.973 44.56C141.441 44.56 141.053 44.6627 140.811 44.868C140.568 45.064 140.433 45.288 140.405 45.54H139.173C139.191 45.2413 139.271 44.966 139.411 44.714C139.56 44.4527 139.756 44.2287 139.999 44.042C140.251 43.8553 140.549 43.7107 140.895 43.608C141.24 43.496 141.623 43.44 142.043 43.44C142.92 43.44 143.615 43.65 144.129 44.07C144.651 44.4807 144.913 45.1573 144.913 46.1V49.11C144.913 49.502 144.913 49.8473 144.913 50.146C144.922 50.4353 144.945 50.72 144.983 51H143.905C143.877 50.7853 143.858 50.5847 143.849 50.398C143.839 50.202 143.835 49.9827 143.835 49.74C143.639 50.132 143.321 50.4633 142.883 50.734C142.444 51.0047 141.912 51.14 141.287 51.14ZM141.553 50.02C141.842 50.02 142.113 49.9827 142.365 49.908C142.626 49.824 142.855 49.7073 143.051 49.558C143.247 49.3993 143.401 49.208 143.513 48.984C143.625 48.76 143.681 48.4987 143.681 48.2V47.696H141.483C141.025 47.696 140.666 47.7893 140.405 47.976C140.143 48.1533 140.013 48.438 140.013 48.83C140.013 49.1753 140.134 49.46 140.377 49.684C140.629 49.908 141.021 50.02 141.553 50.02ZM149.682 51.07C148.889 51.07 148.315 50.8927 147.96 50.538C147.615 50.174 147.442 49.628 147.442 48.9V44.672H146.322V43.58H147.442V41.9H148.674V43.58H150.662V44.672H148.674V48.76C148.674 49.18 148.763 49.4833 148.94 49.67C149.117 49.8567 149.458 49.95 149.962 49.95C150.242 49.95 150.522 49.936 150.802 49.908V51C150.625 51.0187 150.447 51.0327 150.27 51.042C150.093 51.0607 149.897 51.07 149.682 51.07ZM155.148 51.14C154.653 51.14 154.224 51.084 153.86 50.972C153.505 50.8507 153.202 50.692 152.95 50.496C152.698 50.3 152.502 50.0713 152.361 49.81C152.222 49.5487 152.124 49.2687 152.068 48.97H153.3C153.365 49.2687 153.538 49.53 153.818 49.754C154.107 49.9687 154.55 50.076 155.148 50.076C155.493 50.076 155.782 50.048 156.016 49.992C156.249 49.9267 156.436 49.8473 156.576 49.754C156.725 49.6513 156.832 49.5347 156.898 49.404C156.963 49.264 156.996 49.1193 156.996 48.97C156.996 48.8113 156.963 48.6713 156.898 48.55C156.842 48.4287 156.734 48.3213 156.576 48.228C156.426 48.1253 156.216 48.0367 155.946 47.962C155.684 47.878 155.353 47.808 154.952 47.752C154.541 47.696 154.168 47.6167 153.832 47.514C153.505 47.402 153.225 47.2573 152.992 47.08C152.768 46.9027 152.59 46.6927 152.46 46.45C152.338 46.198 152.278 45.8947 152.278 45.54C152.278 45.26 152.338 44.994 152.46 44.742C152.581 44.49 152.763 44.266 153.006 44.07C153.248 43.874 153.547 43.72 153.902 43.608C154.256 43.496 154.672 43.44 155.148 43.44C155.586 43.44 155.969 43.5007 156.296 43.622C156.622 43.734 156.898 43.888 157.122 44.084C157.355 44.28 157.537 44.5087 157.668 44.77C157.798 45.0313 157.892 45.3113 157.948 45.61H156.716C156.641 45.2833 156.482 45.0173 156.24 44.812C155.997 44.6067 155.633 44.504 155.148 44.504C154.541 44.504 154.116 44.6067 153.874 44.812C153.631 45.008 153.51 45.2507 153.51 45.54C153.51 45.708 153.538 45.8527 153.594 45.974C153.659 46.0953 153.762 46.2027 153.902 46.296C154.051 46.3893 154.242 46.4687 154.476 46.534C154.718 46.59 155.017 46.6413 155.372 46.688C155.829 46.744 156.235 46.828 156.59 46.94C156.944 47.0427 157.243 47.1873 157.486 47.374C157.728 47.5513 157.91 47.7707 158.032 48.032C158.162 48.2933 158.228 48.606 158.228 48.97C158.228 49.2687 158.162 49.5487 158.032 49.81C157.91 50.0713 157.724 50.3 157.472 50.496C157.22 50.692 156.898 50.8507 156.506 50.972C156.123 51.084 155.67 51.14 155.148 51.14ZM165.595 51.14C165.185 51.14 164.821 51.084 164.503 50.972C164.195 50.8507 163.934 50.6873 163.719 50.482C163.505 50.2767 163.341 50.034 163.229 49.754C163.117 49.474 163.061 49.166 163.061 48.83C163.061 48.0927 163.276 47.5607 163.705 47.234C164.144 46.9073 164.769 46.744 165.581 46.744H167.989V46.24C167.989 45.6053 167.845 45.1667 167.555 44.924C167.275 44.6813 166.851 44.56 166.281 44.56C165.749 44.56 165.362 44.6627 165.119 44.868C164.877 45.064 164.741 45.288 164.713 45.54H163.481C163.5 45.2413 163.579 44.966 163.719 44.714C163.869 44.4527 164.065 44.2287 164.307 44.042C164.559 43.8553 164.858 43.7107 165.203 43.608C165.549 43.496 165.931 43.44 166.351 43.44C167.229 43.44 167.924 43.65 168.437 44.07C168.96 44.4807 169.221 45.1573 169.221 46.1V49.11C169.221 49.502 169.221 49.8473 169.221 50.146C169.231 50.4353 169.254 50.72 169.291 51H168.213C168.185 50.7853 168.167 50.5847 168.157 50.398C168.148 50.202 168.143 49.9827 168.143 49.74C167.947 50.132 167.63 50.4633 167.191 50.734C166.753 51.0047 166.221 51.14 165.595 51.14ZM165.861 50.02C166.151 50.02 166.421 49.9827 166.673 49.908C166.935 49.824 167.163 49.7073 167.359 49.558C167.555 49.3993 167.709 49.208 167.821 48.984C167.933 48.76 167.989 48.4987 167.989 48.2V47.696H165.791C165.334 47.696 164.975 47.7893 164.713 47.976C164.452 48.1533 164.321 48.438 164.321 48.83C164.321 49.1753 164.443 49.46 164.685 49.684C164.937 49.908 165.329 50.02 165.861 50.02ZM171.397 43.58H172.545V44.98C172.797 44.4853 173.147 44.1073 173.595 43.846C174.053 43.5753 174.58 43.44 175.177 43.44C176.111 43.44 176.857 43.748 177.417 44.364C177.977 44.9707 178.257 45.876 178.257 47.08V47.36C178.257 47.9947 178.183 48.55 178.033 49.026C177.884 49.4927 177.674 49.8847 177.403 50.202C177.133 50.51 176.806 50.7433 176.423 50.902C176.05 51.0607 175.635 51.14 175.177 51.14C174.543 51.14 174.011 51 173.581 50.72C173.161 50.44 172.844 50.09 172.629 49.67V53.8H171.397V43.58ZM174.897 50.048C175.196 50.048 175.476 49.992 175.737 49.88C175.999 49.7587 176.223 49.586 176.409 49.362C176.605 49.138 176.755 48.858 176.857 48.522C176.969 48.186 177.025 47.7987 177.025 47.36V47.08C177.025 46.6787 176.969 46.3193 176.857 46.002C176.755 45.6847 176.605 45.4187 176.409 45.204C176.223 44.98 175.999 44.812 175.737 44.7C175.476 44.588 175.196 44.532 174.897 44.532C174.561 44.532 174.253 44.588 173.973 44.7C173.693 44.8027 173.455 44.952 173.259 45.148C173.063 45.3347 172.909 45.5587 172.797 45.82C172.685 46.0813 172.629 46.3613 172.629 46.66V47.78C172.629 48.116 172.685 48.424 172.797 48.704C172.909 48.984 173.063 49.222 173.259 49.418C173.455 49.614 173.693 49.768 173.973 49.88C174.253 49.992 174.561 50.048 174.897 50.048ZM180.011 43.58H181.159V44.98C181.411 44.4853 181.761 44.1073 182.209 43.846C182.666 43.5753 183.193 43.44 183.791 43.44C184.724 43.44 185.471 43.748 186.031 44.364C186.591 44.9707 186.871 45.876 186.871 47.08V47.36C186.871 47.9947 186.796 48.55 186.647 49.026C186.497 49.4927 186.287 49.8847 186.017 50.202C185.746 50.51 185.419 50.7433 185.037 50.902C184.663 51.0607 184.248 51.14 183.791 51.14C183.156 51.14 182.624 51 182.195 50.72C181.775 50.44 181.457 50.09 181.243 49.67V53.8H180.011V43.58ZM183.511 50.048C183.809 50.048 184.089 49.992 184.351 49.88C184.612 49.7587 184.836 49.586 185.023 49.362C185.219 49.138 185.368 48.858 185.471 48.522C185.583 48.186 185.639 47.7987 185.639 47.36V47.08C185.639 46.6787 185.583 46.3193 185.471 46.002C185.368 45.6847 185.219 45.4187 185.023 45.204C184.836 44.98 184.612 44.812 184.351 44.7C184.089 44.588 183.809 44.532 183.511 44.532C183.175 44.532 182.867 44.588 182.587 44.7C182.307 44.8027 182.069 44.952 181.873 45.148C181.677 45.3347 181.523 45.5587 181.411 45.82C181.299 46.0813 181.243 46.3613 181.243 46.66V47.78C181.243 48.116 181.299 48.424 181.411 48.704C181.523 48.984 181.677 49.222 181.873 49.418C182.069 49.614 182.307 49.768 182.587 49.88C182.867 49.992 183.175 50.048 183.511 50.048Z" fill="#2B2B2B"/>
<circle cx="212" cy="46" r="4" fill="#F35D66"/>
<path d="M225.4 41.2H226.716V45.386H231.924V41.2H233.24V51H231.924V46.534H226.716V51H225.4V41.2ZM238.837 51.14C238.361 51.14 237.908 51.0653 237.479 50.916C237.049 50.7667 236.671 50.538 236.345 50.23C236.018 49.9127 235.757 49.516 235.561 49.04C235.365 48.564 235.267 48.004 235.267 47.36V47.08C235.267 46.464 235.36 45.932 235.547 45.484C235.733 45.0267 235.981 44.6487 236.289 44.35C236.606 44.042 236.97 43.8133 237.381 43.664C237.801 43.5147 238.239 43.44 238.697 43.44C239.789 43.44 240.633 43.7387 241.231 44.336C241.828 44.9333 242.127 45.778 242.127 46.87V47.654H236.499C236.499 48.0927 236.569 48.4613 236.709 48.76C236.849 49.0587 237.031 49.3013 237.255 49.488C237.479 49.6747 237.726 49.81 237.997 49.894C238.277 49.978 238.557 50.02 238.837 50.02C239.397 50.02 239.826 49.9267 240.125 49.74C240.433 49.5533 240.652 49.2967 240.783 48.97H241.987C241.912 49.3247 241.777 49.6373 241.581 49.908C241.394 50.1787 241.161 50.4073 240.881 50.594C240.61 50.7713 240.297 50.9067 239.943 51C239.597 51.0933 239.229 51.14 238.837 51.14ZM238.767 44.56C238.477 44.56 238.197 44.602 237.927 44.686C237.656 44.7607 237.413 44.8867 237.199 45.064C236.993 45.232 236.825 45.4467 236.695 45.708C236.564 45.9693 236.499 46.282 236.499 46.646H240.965C240.955 46.2633 240.89 45.9413 240.769 45.68C240.657 45.4093 240.503 45.1947 240.307 45.036C240.111 44.868 239.877 44.7467 239.607 44.672C239.345 44.5973 239.065 44.56 238.767 44.56ZM246.118 51.07C245.343 51.07 244.788 50.8833 244.452 50.51C244.116 50.1367 243.948 49.53 243.948 48.69V41.2H245.18V48.69C245.18 49.1753 245.259 49.5067 245.418 49.684C245.576 49.8613 245.856 49.95 246.258 49.95C246.36 49.95 246.449 49.95 246.524 49.95C246.598 49.9407 246.673 49.9313 246.748 49.922V51.014C246.673 51.0327 246.566 51.0467 246.426 51.056C246.295 51.0653 246.192 51.07 246.118 51.07ZM248.362 43.58H249.51V44.98C249.762 44.4853 250.112 44.1073 250.56 43.846C251.018 43.5753 251.545 43.44 252.142 43.44C253.076 43.44 253.822 43.748 254.382 44.364C254.942 44.9707 255.222 45.876 255.222 47.08V47.36C255.222 47.9947 255.148 48.55 254.998 49.026C254.849 49.4927 254.639 49.8847 254.368 50.202C254.098 50.51 253.771 50.7433 253.388 50.902C253.015 51.0607 252.6 51.14 252.142 51.14C251.508 51.14 250.976 51 250.546 50.72C250.126 50.44 249.809 50.09 249.594 49.67V53.8H248.362V43.58ZM251.862 50.048C252.161 50.048 252.441 49.992 252.702 49.88C252.964 49.7587 253.188 49.586 253.374 49.362C253.57 49.138 253.72 48.858 253.822 48.522C253.934 48.186 253.99 47.7987 253.99 47.36V47.08C253.99 46.6787 253.934 46.3193 253.822 46.002C253.72 45.6847 253.57 45.4187 253.374 45.204C253.188 44.98 252.964 44.812 252.702 44.7C252.441 44.588 252.161 44.532 251.862 44.532C251.526 44.532 251.218 44.588 250.938 44.7C250.658 44.8027 250.42 44.952 250.224 45.148C250.028 45.3347 249.874 45.5587 249.762 45.82C249.65 46.0813 249.594 46.3613 249.594 46.66V47.78C249.594 48.116 249.65 48.424 249.762 48.704C249.874 48.984 250.028 49.222 250.224 49.418C250.42 49.614 250.658 49.768 250.938 49.88C251.218 49.992 251.526 50.048 251.862 50.048ZM260.755 41.2H263.625C264.363 41.2 265.021 41.3027 265.599 41.508C266.178 41.704 266.668 41.998 267.069 42.39C267.471 42.782 267.779 43.272 267.993 43.86C268.208 44.448 268.315 45.1247 268.315 45.89V46.17C268.315 46.954 268.203 47.6493 267.979 48.256C267.765 48.8533 267.447 49.3573 267.027 49.768C266.617 50.1693 266.113 50.4773 265.515 50.692C264.918 50.8973 264.241 51 263.485 51H260.755V41.2ZM263.345 49.852C263.896 49.852 264.391 49.782 264.829 49.642C265.277 49.502 265.655 49.2873 265.963 48.998C266.271 48.6993 266.505 48.3167 266.663 47.85C266.831 47.3833 266.915 46.8233 266.915 46.17V45.89C266.915 45.2647 266.836 44.728 266.677 44.28C266.519 43.832 266.29 43.468 265.991 43.188C265.693 42.8987 265.329 42.6887 264.899 42.558C264.479 42.418 264.008 42.348 263.485 42.348H262.071V49.852H263.345ZM273.358 51.14C272.882 51.14 272.43 51.0653 272 50.916C271.571 50.7667 271.193 50.538 270.866 50.23C270.54 49.9127 270.278 49.516 270.082 49.04C269.886 48.564 269.788 48.004 269.788 47.36V47.08C269.788 46.464 269.882 45.932 270.068 45.484C270.255 45.0267 270.502 44.6487 270.81 44.35C271.128 44.042 271.492 43.8133 271.902 43.664C272.322 43.5147 272.761 43.44 273.218 43.44C274.31 43.44 275.155 43.7387 275.752 44.336C276.35 44.9333 276.648 45.778 276.648 46.87V47.654H271.02C271.02 48.0927 271.09 48.4613 271.23 48.76C271.37 49.0587 271.552 49.3013 271.776 49.488C272 49.6747 272.248 49.81 272.518 49.894C272.798 49.978 273.078 50.02 273.358 50.02C273.918 50.02 274.348 49.9267 274.646 49.74C274.954 49.5533 275.174 49.2967 275.304 48.97H276.508C276.434 49.3247 276.298 49.6373 276.102 49.908C275.916 50.1787 275.682 50.4073 275.402 50.594C275.132 50.7713 274.819 50.9067 274.464 51C274.119 51.0933 273.75 51.14 273.358 51.14ZM273.288 44.56C272.999 44.56 272.719 44.602 272.448 44.686C272.178 44.7607 271.935 44.8867 271.72 45.064C271.515 45.232 271.347 45.4467 271.216 45.708C271.086 45.9693 271.02 46.282 271.02 46.646H275.486C275.477 46.2633 275.412 45.9413 275.29 45.68C275.178 45.4093 275.024 45.1947 274.828 45.036C274.632 44.868 274.399 44.7467 274.128 44.672C273.867 44.5973 273.587 44.56 273.288 44.56ZM280.989 51.14C280.495 51.14 280.065 51.084 279.701 50.972C279.347 50.8507 279.043 50.692 278.791 50.496C278.539 50.3 278.343 50.0713 278.203 49.81C278.063 49.5487 277.965 49.2687 277.909 48.97H279.141C279.207 49.2687 279.379 49.53 279.659 49.754C279.949 49.9687 280.392 50.076 280.989 50.076C281.335 50.076 281.624 50.048 281.857 49.992C282.091 49.9267 282.277 49.8473 282.417 49.754C282.567 49.6513 282.674 49.5347 282.739 49.404C282.805 49.264 282.837 49.1193 282.837 48.97C282.837 48.8113 282.805 48.6713 282.739 48.55C282.683 48.4287 282.576 48.3213 282.417 48.228C282.268 48.1253 282.058 48.0367 281.787 47.962C281.526 47.878 281.195 47.808 280.793 47.752C280.383 47.696 280.009 47.6167 279.673 47.514C279.347 47.402 279.067 47.2573 278.833 47.08C278.609 46.9027 278.432 46.6927 278.301 46.45C278.18 46.198 278.119 45.8947 278.119 45.54C278.119 45.26 278.18 44.994 278.301 44.742C278.423 44.49 278.605 44.266 278.847 44.07C279.09 43.874 279.389 43.72 279.743 43.608C280.098 43.496 280.513 43.44 280.989 43.44C281.428 43.44 281.811 43.5007 282.137 43.622C282.464 43.734 282.739 43.888 282.963 44.084C283.197 44.28 283.379 44.5087 283.509 44.77C283.64 45.0313 283.733 45.3113 283.789 45.61H282.557C282.483 45.2833 282.324 45.0173 282.081 44.812C281.839 44.6067 281.475 44.504 280.989 44.504C280.383 44.504 279.958 44.6067 279.715 44.812C279.473 45.008 279.351 45.2507 279.351 45.54C279.351 45.708 279.379 45.8527 279.435 45.974C279.501 46.0953 279.603 46.2027 279.743 46.296C279.893 46.3893 280.084 46.4687 280.317 46.534C280.56 46.59 280.859 46.6413 281.213 46.688C281.671 46.744 282.077 46.828 282.431 46.94C282.786 47.0427 283.085 47.1873 283.327 47.374C283.57 47.5513 283.752 47.7707 283.873 48.032C284.004 48.2933 284.069 48.606 284.069 48.97C284.069 49.2687 284.004 49.5487 283.873 49.81C283.752 50.0713 283.565 50.3 283.313 50.496C283.061 50.692 282.739 50.8507 282.347 50.972C281.965 51.084 281.512 51.14 280.989 51.14ZM285.823 41.2H287.055V46.996L290.471 43.58H291.983L288.903 46.646L292.263 51H290.695L288.021 47.5L287.055 48.41V51H285.823V41.2Z" fill="#2B2B2B"/>
<circle cx="317" cy="46" r="4" fill="#17185B"/>
<path d="M335.734 48.564H331.59L330.652 51H329.28L333.032 41.2H334.348L338.1 51H336.672L335.734 48.564ZM332.024 47.416H335.3L333.662 42.88L332.024 47.416ZM339.779 41.2H343.139C343.783 41.2 344.343 41.2747 344.819 41.424C345.295 41.5733 345.687 41.7833 345.995 42.054C346.312 42.3153 346.546 42.6327 346.695 43.006C346.844 43.37 346.919 43.7713 346.919 44.21C346.919 44.6487 346.844 45.0547 346.695 45.428C346.546 45.792 346.312 46.1093 345.995 46.38C345.687 46.6413 345.295 46.8467 344.819 46.996C344.343 47.1453 343.783 47.22 343.139 47.22H341.095V51H339.779V41.2ZM343.069 46.072C343.536 46.072 343.928 46.03 344.245 45.946C344.572 45.8527 344.833 45.7267 345.029 45.568C345.234 45.4093 345.379 45.2133 345.463 44.98C345.556 44.7467 345.603 44.49 345.603 44.21C345.603 43.93 345.556 43.6733 345.463 43.44C345.379 43.2067 345.234 43.0107 345.029 42.852C344.833 42.6933 344.572 42.572 344.245 42.488C343.928 42.3947 343.536 42.348 343.069 42.348H341.095V46.072H343.069ZM349.093 41.2H350.409V51H349.093V41.2ZM356.575 43.58H357.807V49.18L361.643 43.58H362.875V51H361.643V45.4L357.807 51H356.575V43.58ZM365.12 43.58H366.352V46.674H370.188V43.58H371.42V51H370.188V47.766H366.352V51H365.12V43.58ZM375.359 44.672H372.825V43.58H379.125V44.672H376.591V51H375.359V44.672ZM383.471 51.14C382.995 51.14 382.543 51.0653 382.113 50.916C381.684 50.7667 381.306 50.538 380.979 50.23C380.653 49.9127 380.391 49.516 380.195 49.04C379.999 48.564 379.901 48.004 379.901 47.36V47.08C379.901 46.464 379.995 45.932 380.181 45.484C380.368 45.0267 380.615 44.6487 380.923 44.35C381.241 44.042 381.605 43.8133 382.015 43.664C382.435 43.5147 382.874 43.44 383.331 43.44C384.423 43.44 385.268 43.7387 385.865 44.336C386.463 44.9333 386.761 45.778 386.761 46.87V47.654H381.133C381.133 48.0927 381.203 48.4613 381.343 48.76C381.483 49.0587 381.665 49.3013 381.889 49.488C382.113 49.6747 382.361 49.81 382.631 49.894C382.911 49.978 383.191 50.02 383.471 50.02C384.031 50.02 384.461 49.9267 384.759 49.74C385.067 49.5533 385.287 49.2967 385.417 48.97H386.621C386.547 49.3247 386.411 49.6373 386.215 49.908C386.029 50.1787 385.795 50.4073 385.515 50.594C385.245 50.7713 384.932 50.9067 384.577 51C384.232 51.0933 383.863 51.14 383.471 51.14ZM383.401 44.56C383.112 44.56 382.832 44.602 382.561 44.686C382.291 44.7607 382.048 44.8867 381.833 45.064C381.628 45.232 381.46 45.4467 381.329 45.708C381.199 45.9693 381.133 46.282 381.133 46.646H385.599C385.59 46.2633 385.525 45.9413 385.403 45.68C385.291 45.4093 385.137 45.1947 384.941 45.036C384.745 44.868 384.512 44.7467 384.241 44.672C383.98 44.5973 383.7 44.56 383.401 44.56ZM388.513 43.58H393.553V44.672H389.745V51H388.513V43.58ZM394.952 43.58H396.1V44.98C396.352 44.4853 396.702 44.1073 397.15 43.846C397.607 43.5753 398.135 43.44 398.732 43.44C399.665 43.44 400.412 43.748 400.972 44.364C401.532 44.9707 401.812 45.876 401.812 47.08V47.36C401.812 47.9947 401.737 48.55 401.588 49.026C401.439 49.4927 401.229 49.8847 400.958 50.202C400.687 50.51 400.361 50.7433 399.978 50.902C399.605 51.0607 399.189 51.14 398.732 51.14C398.097 51.14 397.565 51 397.136 50.72C396.716 50.44 396.399 50.09 396.184 49.67V53.8H394.952V43.58ZM398.452 50.048C398.751 50.048 399.031 49.992 399.292 49.88C399.553 49.7587 399.777 49.586 399.964 49.362C400.16 49.138 400.309 48.858 400.412 48.522C400.524 48.186 400.58 47.7987 400.58 47.36V47.08C400.58 46.6787 400.524 46.3193 400.412 46.002C400.309 45.6847 400.16 45.4187 399.964 45.204C399.777 44.98 399.553 44.812 399.292 44.7C399.031 44.588 398.751 44.532 398.452 44.532C398.116 44.532 397.808 44.588 397.528 44.7C397.248 44.8027 397.01 44.952 396.814 45.148C396.618 45.3347 396.464 45.5587 396.352 45.82C396.24 46.0813 396.184 46.3613 396.184 46.66V47.78C396.184 48.116 396.24 48.424 396.352 48.704C396.464 48.984 396.618 49.222 396.814 49.418C397.01 49.614 397.248 49.768 397.528 49.88C397.808 49.992 398.116 50.048 398.452 50.048ZM405.679 51.14C405.269 51.14 404.905 51.084 404.587 50.972C404.279 50.8507 404.018 50.6873 403.803 50.482C403.589 50.2767 403.425 50.034 403.313 49.754C403.201 49.474 403.145 49.166 403.145 48.83C403.145 48.0927 403.36 47.5607 403.789 47.234C404.228 46.9073 404.853 46.744 405.665 46.744H408.073V46.24C408.073 45.6053 407.929 45.1667 407.639 44.924C407.359 44.6813 406.935 44.56 406.365 44.56C405.833 44.56 405.446 44.6627 405.203 44.868C404.961 45.064 404.825 45.288 404.797 45.54H403.565C403.584 45.2413 403.663 44.966 403.803 44.714C403.953 44.4527 404.149 44.2287 404.391 44.042C404.643 43.8553 404.942 43.7107 405.287 43.608C405.633 43.496 406.015 43.44 406.435 43.44C407.313 43.44 408.008 43.65 408.521 44.07C409.044 44.4807 409.305 45.1573 409.305 46.1V49.11C409.305 49.502 409.305 49.8473 409.305 50.146C409.315 50.4353 409.338 50.72 409.375 51H408.297C408.269 50.7853 408.251 50.5847 408.241 50.398C408.232 50.202 408.227 49.9827 408.227 49.74C408.031 50.132 407.714 50.4633 407.275 50.734C406.837 51.0047 406.305 51.14 405.679 51.14ZM405.945 50.02C406.235 50.02 406.505 49.9827 406.757 49.908C407.019 49.824 407.247 49.7073 407.443 49.558C407.639 49.3993 407.793 49.208 407.905 48.984C408.017 48.76 408.073 48.4987 408.073 48.2V47.696H405.875C405.418 47.696 405.059 47.7893 404.797 47.976C404.536 48.1533 404.405 48.438 404.405 48.83C404.405 49.1753 404.527 49.46 404.769 49.684C405.021 49.908 405.413 50.02 405.945 50.02ZM417.515 51H411.481V43.58H412.713V49.908H416.269V43.58H417.501V49.908H418.691V52.75H417.515V51ZM420.163 43.58H421.395V49.18L425.231 43.58H426.463V51H425.231V45.4L421.395 51H420.163V43.58ZM430.164 48.06C429.548 47.92 429.105 47.668 428.834 47.304C428.563 46.9307 428.428 46.4547 428.428 45.876C428.428 45.148 428.647 44.5833 429.086 44.182C429.534 43.7807 430.248 43.58 431.228 43.58H434.448V51H433.216V48.172H431.326L429.52 51H428.148L430.164 48.06ZM429.66 45.876C429.66 46.268 429.772 46.5667 429.996 46.772C430.229 46.9773 430.617 47.08 431.158 47.08H433.216V44.672H431.158C430.617 44.672 430.229 44.7747 429.996 44.98C429.772 45.1853 429.66 45.484 429.66 45.876Z" fill="#2B2B2B"/>
<path d="M1.66 248.016H3.664V241.836L1.66 243.264V242.04L3.688 240.6H4.816V248.016H6.46V249H1.66V248.016ZM10.5442 249.12C10.1362 249.12 9.74822 249.052 9.38022 248.916C9.02022 248.78 8.70422 248.548 8.43222 248.22C8.16022 247.884 7.94422 247.44 7.78422 246.888C7.62422 246.328 7.54422 245.632 7.54422 244.8V244.56C7.54422 243.784 7.62422 243.136 7.78422 242.616C7.94422 242.096 8.16022 241.68 8.43222 241.368C8.70422 241.048 9.02022 240.82 9.38022 240.684C9.74822 240.548 10.1362 240.48 10.5442 240.48C10.9522 240.48 11.3362 240.548 11.6962 240.684C12.0642 240.82 12.3842 241.048 12.6562 241.368C12.9282 241.68 13.1442 242.096 13.3042 242.616C13.4642 243.136 13.5442 243.784 13.5442 244.56V244.8C13.5442 245.632 13.4642 246.328 13.3042 246.888C13.1442 247.44 12.9282 247.884 12.6562 248.22C12.3842 248.548 12.0642 248.78 11.6962 248.916C11.3362 249.052 10.9522 249.12 10.5442 249.12ZM10.5442 248.136C10.7922 248.136 11.0282 248.092 11.2522 248.004C11.4842 247.908 11.6842 247.74 11.8522 247.5C12.0282 247.252 12.1642 246.912 12.2602 246.48C12.3642 246.048 12.4162 245.488 12.4162 244.8V244.56C12.4162 243.936 12.3642 243.424 12.2602 243.024C12.1642 242.624 12.0282 242.308 11.8522 242.076C11.6842 241.844 11.4842 241.684 11.2522 241.596C11.0282 241.508 10.7922 241.464 10.5442 241.464C10.2882 241.464 10.0482 241.508 9.82422 241.596C9.60022 241.684 9.40022 241.844 9.22422 242.076C9.05622 242.308 8.92022 242.624 8.81622 243.024C8.72022 243.424 8.67222 243.936 8.67222 244.56V244.8C8.67222 245.488 8.72022 246.048 8.81622 246.48C8.92022 246.912 9.05622 247.252 9.22422 247.5C9.40022 247.74 9.60022 247.908 9.82422 248.004C10.0482 248.092 10.2882 248.136 10.5442 248.136ZM17.9856 249.12C17.5776 249.12 17.1896 249.052 16.8216 248.916C16.4616 248.78 16.1456 248.548 15.8736 248.22C15.6016 247.884 15.3856 247.44 15.2256 246.888C15.0656 246.328 14.9856 245.632 14.9856 244.8V244.56C14.9856 243.784 15.0656 243.136 15.2256 242.616C15.3856 242.096 15.6016 241.68 15.8736 241.368C16.1456 241.048 16.4616 240.82 16.8216 240.684C17.1896 240.548 17.5776 240.48 17.9856 240.48C18.3936 240.48 18.7776 240.548 19.1376 240.684C19.5056 240.82 19.8256 241.048 20.0976 241.368C20.3696 241.68 20.5856 242.096 20.7456 242.616C20.9056 243.136 20.9856 243.784 20.9856 244.56V244.8C20.9856 245.632 20.9056 246.328 20.7456 246.888C20.5856 247.44 20.3696 247.884 20.0976 248.22C19.8256 248.548 19.5056 248.78 19.1376 248.916C18.7776 249.052 18.3936 249.12 17.9856 249.12ZM17.9856 248.136C18.2336 248.136 18.4696 248.092 18.6936 248.004C18.9256 247.908 19.1256 247.74 19.2936 247.5C19.4696 247.252 19.6056 246.912 19.7016 246.48C19.8056 246.048 19.8576 245.488 19.8576 244.8V244.56C19.8576 243.936 19.8056 243.424 19.7016 243.024C19.6056 242.624 19.4696 242.308 19.2936 242.076C19.1256 241.844 18.9256 241.684 18.6936 241.596C18.4696 241.508 18.2336 241.464 17.9856 241.464C17.7296 241.464 17.4896 241.508 17.2656 241.596C17.0416 241.684 16.8416 241.844 16.6656 242.076C16.4976 242.308 16.3616 242.624 16.2576 243.024C16.1616 243.424 16.1136 243.936 16.1136 244.56V244.8C16.1136 245.488 16.1616 246.048 16.2576 246.48C16.3616 246.912 16.4976 247.252 16.6656 247.5C16.8416 247.74 17.0416 247.908 17.2656 248.004C17.4896 248.092 17.7296 248.136 17.9856 248.136Z" fill="#8F8FA0"/>
<path d="M1.48 207.076L4.84 204.16C5.096 203.944 5.304 203.748 5.464 203.572C5.632 203.396 5.764 203.232 5.86 203.08C5.956 202.92 6.02 202.764 6.052 202.612C6.092 202.46 6.112 202.296 6.112 202.12C6.112 201.648 5.972 201.26 5.692 200.956C5.412 200.644 5.028 200.488 4.54 200.488C3.956 200.488 3.508 200.648 3.196 200.968C2.884 201.28 2.728 201.724 2.728 202.3H1.6C1.6 201.892 1.668 201.516 1.804 201.172C1.948 200.82 2.148 200.52 2.404 200.272C2.668 200.024 2.98 199.832 3.34 199.696C3.7 199.552 4.1 199.48 4.54 199.48C4.964 199.48 5.344 199.548 5.68 199.684C6.016 199.812 6.3 199.996 6.532 200.236C6.764 200.468 6.94 200.744 7.06 201.064C7.18 201.384 7.24 201.736 7.24 202.12C7.24 202.408 7.196 202.676 7.108 202.924C7.02 203.172 6.896 203.408 6.736 203.632C6.584 203.856 6.396 204.076 6.172 204.292C5.956 204.5 5.716 204.716 5.452 204.94L2.944 207.016H7.36V208H1.48V207.076ZM11.6809 208.12C11.2729 208.12 10.8849 208.052 10.5169 207.916C10.1569 207.78 9.84094 207.548 9.56894 207.22C9.29694 206.884 9.08094 206.44 8.92094 205.888C8.76094 205.328 8.68094 204.632 8.68094 203.8V203.56C8.68094 202.784 8.76094 202.136 8.92094 201.616C9.08094 201.096 9.29694 200.68 9.56894 200.368C9.84094 200.048 10.1569 199.82 10.5169 199.684C10.8849 199.548 11.2729 199.48 11.6809 199.48C12.0889 199.48 12.4729 199.548 12.8329 199.684C13.2009 199.82 13.5209 200.048 13.7929 200.368C14.0649 200.68 14.2809 201.096 14.4409 201.616C14.6009 202.136 14.6809 202.784 14.6809 203.56V203.8C14.6809 204.632 14.6009 205.328 14.4409 205.888C14.2809 206.44 14.0649 206.884 13.7929 207.22C13.5209 207.548 13.2009 207.78 12.8329 207.916C12.4729 208.052 12.0889 208.12 11.6809 208.12ZM11.6809 207.136C11.9289 207.136 12.1649 207.092 12.3889 207.004C12.6209 206.908 12.8209 206.74 12.9889 206.5C13.1649 206.252 13.3009 205.912 13.3969 205.48C13.5009 205.048 13.5529 204.488 13.5529 203.8V203.56C13.5529 202.936 13.5009 202.424 13.3969 202.024C13.3009 201.624 13.1649 201.308 12.9889 201.076C12.8209 200.844 12.6209 200.684 12.3889 200.596C12.1649 200.508 11.9289 200.464 11.6809 200.464C11.4249 200.464 11.1849 200.508 10.9609 200.596C10.7369 200.684 10.5369 200.844 10.3609 201.076C10.1929 201.308 10.0569 201.624 9.95294 202.024C9.85694 202.424 9.80894 202.936 9.80894 203.56V203.8C9.80894 204.488 9.85694 205.048 9.95294 205.48C10.0569 205.912 10.1929 206.252 10.3609 206.5C10.5369 206.74 10.7369 206.908 10.9609 207.004C11.1849 207.092 11.4249 207.136 11.6809 207.136ZM19.1223 208.12C18.7143 208.12 18.3263 208.052 17.9583 207.916C17.5983 207.78 17.2823 207.548 17.0103 207.22C16.7383 206.884 16.5223 206.44 16.3623 205.888C16.2023 205.328 16.1223 204.632 16.1223 203.8V203.56C16.1223 202.784 16.2023 202.136 16.3623 201.616C16.5223 201.096 16.7383 200.68 17.0103 200.368C17.2823 200.048 17.5983 199.82 17.9583 199.684C18.3263 199.548 18.7143 199.48 19.1223 199.48C19.5303 199.48 19.9143 199.548 20.2743 199.684C20.6423 199.82 20.9623 200.048 21.2343 200.368C21.5063 200.68 21.7223 201.096 21.8823 201.616C22.0423 202.136 22.1223 202.784 22.1223 203.56V203.8C22.1223 204.632 22.0423 205.328 21.8823 205.888C21.7223 206.44 21.5063 206.884 21.2343 207.22C20.9623 207.548 20.6423 207.78 20.2743 207.916C19.9143 208.052 19.5303 208.12 19.1223 208.12ZM19.1223 207.136C19.3703 207.136 19.6063 207.092 19.8303 207.004C20.0623 206.908 20.2623 206.74 20.4303 206.5C20.6063 206.252 20.7423 205.912 20.8383 205.48C20.9423 205.048 20.9943 204.488 20.9943 203.8V203.56C20.9943 202.936 20.9423 202.424 20.8383 202.024C20.7423 201.624 20.6063 201.308 20.4303 201.076C20.2623 200.844 20.0623 200.684 19.8303 200.596C19.6063 200.508 19.3703 200.464 19.1223 200.464C18.8663 200.464 18.6263 200.508 18.4023 200.596C18.1783 200.684 17.9783 200.844 17.8023 201.076C17.6343 201.308 17.4983 201.624 17.3943 202.024C17.2983 202.424 17.2503 202.936 17.2503 203.56V203.8C17.2503 204.488 17.2983 205.048 17.3943 205.48C17.4983 205.912 17.6343 206.252 17.8023 206.5C17.9783 206.74 18.1783 206.908 18.4023 207.004C18.6263 207.092 18.8663 207.136 19.1223 207.136Z" fill="#8F8FA0"/>
<path d="M3.42 169.12C2.964 169.12 2.556 169.06 2.196 168.94C1.844 168.812 1.544 168.64 1.296 168.424C1.048 168.208 0.86 167.956 0.732 167.668C0.604 167.372 0.54 167.056 0.54 166.72H1.668C1.668 167.128 1.808 167.464 2.088 167.728C2.368 167.984 2.812 168.112 3.42 168.112C4.028 168.112 4.472 167.98 4.752 167.716C5.032 167.444 5.172 167.092 5.172 166.66C5.172 166.212 5.028 165.852 4.74 165.58C4.46 165.3 4.02 165.16 3.42 165.16H2.52V164.2H3.42C3.996 164.2 4.412 164.08 4.668 163.84C4.924 163.592 5.052 163.252 5.052 162.82C5.052 162.404 4.928 162.08 4.68 161.848C4.432 161.608 4.012 161.488 3.42 161.488C2.852 161.488 2.436 161.612 2.172 161.86C1.916 162.1 1.788 162.4 1.788 162.76H0.66C0.66 162.448 0.72 162.152 0.84 161.872C0.968 161.592 1.148 161.352 1.38 161.152C1.62 160.944 1.908 160.78 2.244 160.66C2.588 160.54 2.98 160.48 3.42 160.48C3.86 160.48 4.252 160.54 4.596 160.66C4.94 160.78 5.228 160.94 5.46 161.14C5.7 161.34 5.88 161.576 6 161.848C6.12 162.12 6.18 162.404 6.18 162.7C6.18 163.18 6.052 163.588 5.796 163.924C5.548 164.252 5.196 164.484 4.74 164.62C5.22 164.772 5.6 165.02 5.88 165.364C6.16 165.708 6.3 166.18 6.3 166.78C6.3 167.1 6.236 167.404 6.108 167.692C5.98 167.972 5.792 168.22 5.544 168.436C5.304 168.644 5.004 168.812 4.644 168.94C4.284 169.06 3.876 169.12 3.42 169.12ZM10.7395 169.12C10.3315 169.12 9.94353 169.052 9.57553 168.916C9.21553 168.78 8.89953 168.548 8.62753 168.22C8.35553 167.884 8.13953 167.44 7.97953 166.888C7.81953 166.328 7.73953 165.632 7.73953 164.8V164.56C7.73953 163.784 7.81953 163.136 7.97953 162.616C8.13953 162.096 8.35553 161.68 8.62753 161.368C8.89953 161.048 9.21553 160.82 9.57553 160.684C9.94353 160.548 10.3315 160.48 10.7395 160.48C11.1475 160.48 11.5315 160.548 11.8915 160.684C12.2595 160.82 12.5795 161.048 12.8515 161.368C13.1235 161.68 13.3395 162.096 13.4995 162.616C13.6595 163.136 13.7395 163.784 13.7395 164.56V164.8C13.7395 165.632 13.6595 166.328 13.4995 166.888C13.3395 167.44 13.1235 167.884 12.8515 168.22C12.5795 168.548 12.2595 168.78 11.8915 168.916C11.5315 169.052 11.1475 169.12 10.7395 169.12ZM10.7395 168.136C10.9875 168.136 11.2235 168.092 11.4475 168.004C11.6795 167.908 11.8795 167.74 12.0475 167.5C12.2235 167.252 12.3595 166.912 12.4555 166.48C12.5595 166.048 12.6115 165.488 12.6115 164.8V164.56C12.6115 163.936 12.5595 163.424 12.4555 163.024C12.3595 162.624 12.2235 162.308 12.0475 162.076C11.8795 161.844 11.6795 161.684 11.4475 161.596C11.2235 161.508 10.9875 161.464 10.7395 161.464C10.4835 161.464 10.2435 161.508 10.0195 161.596C9.79553 161.684 9.59553 161.844 9.41953 162.076C9.25153 162.308 9.11553 162.624 9.01153 163.024C8.91553 163.424 8.86753 163.936 8.86753 164.56V164.8C8.86753 165.488 8.91553 166.048 9.01153 166.48C9.11553 166.912 9.25153 167.252 9.41953 167.5C9.59553 167.74 9.79553 167.908 10.0195 168.004C10.2435 168.092 10.4835 168.136 10.7395 168.136ZM18.1809 169.12C17.7729 169.12 17.3849 169.052 17.0169 168.916C16.6569 168.78 16.3409 168.548 16.0689 168.22C15.7969 167.884 15.5809 167.44 15.4209 166.888C15.2609 166.328 15.1809 165.632 15.1809 164.8V164.56C15.1809 163.784 15.2609 163.136 15.4209 162.616C15.5809 162.096 15.7969 161.68 16.0689 161.368C16.3409 161.048 16.6569 160.82 17.0169 160.684C17.3849 160.548 17.7729 160.48 18.1809 160.48C18.5889 160.48 18.9729 160.548 19.3329 160.684C19.7009 160.82 20.0209 161.048 20.2929 161.368C20.5649 161.68 20.7809 162.096 20.9409 162.616C21.1009 163.136 21.1809 163.784 21.1809 164.56V164.8C21.1809 165.632 21.1009 166.328 20.9409 166.888C20.7809 167.44 20.5649 167.884 20.2929 168.22C20.0209 168.548 19.7009 168.78 19.3329 168.916C18.9729 169.052 18.5889 169.12 18.1809 169.12ZM18.1809 168.136C18.4289 168.136 18.6649 168.092 18.8889 168.004C19.1209 167.908 19.3209 167.74 19.4889 167.5C19.6649 167.252 19.8009 166.912 19.8969 166.48C20.0009 166.048 20.0529 165.488 20.0529 164.8V164.56C20.0529 163.936 20.0009 163.424 19.8969 163.024C19.8009 162.624 19.6649 162.308 19.4889 162.076C19.3209 161.844 19.1209 161.684 18.8889 161.596C18.6649 161.508 18.4289 161.464 18.1809 161.464C17.9249 161.464 17.6849 161.508 17.4609 161.596C17.2369 161.684 17.0369 161.844 16.8609 162.076C16.6929 162.308 16.5569 162.624 16.4529 163.024C16.3569 163.424 16.3089 163.936 16.3089 164.56V164.8C16.3089 165.488 16.3569 166.048 16.4529 166.48C16.5569 166.912 16.6929 167.252 16.8609 167.5C17.0369 167.74 17.2369 167.908 17.4609 168.004C17.6849 168.092 17.9249 168.136 18.1809 168.136Z" fill="#8F8FA0"/>
<path d="M4.512 126.972H0.24V126.108L4.392 120.6H5.64V125.988H6.72V126.972H5.64V129H4.512V126.972ZM4.512 125.988V121.92L1.44 125.988H4.512ZM11.0442 129.12C10.6362 129.12 10.2482 129.052 9.88022 128.916C9.52022 128.78 9.20422 128.548 8.93222 128.22C8.66022 127.884 8.44422 127.44 8.28422 126.888C8.12422 126.328 8.04422 125.632 8.04422 124.8V124.56C8.04422 123.784 8.12422 123.136 8.28422 122.616C8.44422 122.096 8.66022 121.68 8.93222 121.368C9.20422 121.048 9.52022 120.82 9.88022 120.684C10.2482 120.548 10.6362 120.48 11.0442 120.48C11.4522 120.48 11.8362 120.548 12.1962 120.684C12.5642 120.82 12.8842 121.048 13.1562 121.368C13.4282 121.68 13.6442 122.096 13.8042 122.616C13.9642 123.136 14.0442 123.784 14.0442 124.56V124.8C14.0442 125.632 13.9642 126.328 13.8042 126.888C13.6442 127.44 13.4282 127.884 13.1562 128.22C12.8842 128.548 12.5642 128.78 12.1962 128.916C11.8362 129.052 11.4522 129.12 11.0442 129.12ZM11.0442 128.136C11.2922 128.136 11.5282 128.092 11.7522 128.004C11.9842 127.908 12.1842 127.74 12.3522 127.5C12.5282 127.252 12.6642 126.912 12.7602 126.48C12.8642 126.048 12.9162 125.488 12.9162 124.8V124.56C12.9162 123.936 12.8642 123.424 12.7602 123.024C12.6642 122.624 12.5282 122.308 12.3522 122.076C12.1842 121.844 11.9842 121.684 11.7522 121.596C11.5282 121.508 11.2922 121.464 11.0442 121.464C10.7882 121.464 10.5482 121.508 10.3242 121.596C10.1002 121.684 9.90022 121.844 9.72422 122.076C9.55622 122.308 9.42022 122.624 9.31622 123.024C9.22022 123.424 9.17222 123.936 9.17222 124.56V124.8C9.17222 125.488 9.22022 126.048 9.31622 126.48C9.42022 126.912 9.55622 127.252 9.72422 127.5C9.90022 127.74 10.1002 127.908 10.3242 128.004C10.5482 128.092 10.7882 128.136 11.0442 128.136ZM18.4856 129.12C18.0776 129.12 17.6896 129.052 17.3216 128.916C16.9616 128.78 16.6456 128.548 16.3736 128.22C16.1016 127.884 15.8856 127.44 15.7256 126.888C15.5656 126.328 15.4856 125.632 15.4856 124.8V124.56C15.4856 123.784 15.5656 123.136 15.7256 122.616C15.8856 122.096 16.1016 121.68 16.3736 121.368C16.6456 121.048 16.9616 120.82 17.3216 120.684C17.6896 120.548 18.0776 120.48 18.4856 120.48C18.8936 120.48 19.2776 120.548 19.6376 120.684C20.0056 120.82 20.3256 121.048 20.5976 121.368C20.8696 121.68 21.0856 122.096 21.2456 122.616C21.4056 123.136 21.4856 123.784 21.4856 124.56V124.8C21.4856 125.632 21.4056 126.328 21.2456 126.888C21.0856 127.44 20.8696 127.884 20.5976 128.22C20.3256 128.548 20.0056 128.78 19.6376 128.916C19.2776 129.052 18.8936 129.12 18.4856 129.12ZM18.4856 128.136C18.7336 128.136 18.9696 128.092 19.1936 128.004C19.4256 127.908 19.6256 127.74 19.7936 127.5C19.9696 127.252 20.1056 126.912 20.2016 126.48C20.3056 126.048 20.3576 125.488 20.3576 124.8V124.56C20.3576 123.936 20.3056 123.424 20.2016 123.024C20.1056 122.624 19.9696 122.308 19.7936 122.076C19.6256 121.844 19.4256 121.684 19.1936 121.596C18.9696 121.508 18.7336 121.464 18.4856 121.464C18.2296 121.464 17.9896 121.508 17.7656 121.596C17.5416 121.684 17.3416 121.844 17.1656 122.076C16.9976 122.308 16.8616 122.624 16.7576 123.024C16.6616 123.424 16.6136 123.936 16.6136 124.56V124.8C16.6136 125.488 16.6616 126.048 16.7576 126.48C16.8616 126.912 16.9976 127.252 17.1656 127.5C17.3416 127.74 17.5416 127.908 17.7656 128.004C17.9896 128.092 18.2296 128.136 18.4856 128.136Z" fill="#8F8FA0"/>
<path d="M3.48 89.12C3.024 89.12 2.628 89.06 2.292 88.94C1.956 88.812 1.672 88.648 1.44 88.448C1.216 88.24 1.044 88.008 0.924 87.752C0.804 87.496 0.736 87.232 0.72 86.96H1.848C1.888 87.264 2.048 87.532 2.328 87.764C2.616 87.996 3 88.112 3.48 88.112C4.024 88.112 4.452 87.944 4.764 87.608C5.076 87.264 5.232 86.788 5.232 86.18C5.232 85.836 5.18 85.54 5.076 85.292C4.98 85.044 4.848 84.844 4.68 84.692C4.52 84.54 4.336 84.428 4.128 84.356C3.92 84.284 3.704 84.248 3.48 84.248C3.048 84.248 2.708 84.328 2.46 84.488C2.22 84.648 2.036 84.832 1.908 85.04H0.9V80.6H5.88V81.584H2.028V83.924C2.444 83.468 2.988 83.24 3.66 83.24C4.492 83.24 5.148 83.492 5.628 83.996C6.116 84.5 6.36 85.228 6.36 86.18C6.36 86.628 6.288 87.036 6.144 87.404C6.008 87.764 5.812 88.072 5.556 88.328C5.308 88.584 5.004 88.78 4.644 88.916C4.292 89.052 3.904 89.12 3.48 89.12ZM10.6809 89.12C10.2729 89.12 9.88494 89.052 9.51694 88.916C9.15694 88.78 8.84094 88.548 8.56894 88.22C8.29694 87.884 8.08094 87.44 7.92094 86.888C7.76094 86.328 7.68094 85.632 7.68094 84.8V84.56C7.68094 83.784 7.76094 83.136 7.92094 82.616C8.08094 82.096 8.29694 81.68 8.56894 81.368C8.84094 81.048 9.15694 80.82 9.51694 80.684C9.88494 80.548 10.2729 80.48 10.6809 80.48C11.0889 80.48 11.4729 80.548 11.8329 80.684C12.2009 80.82 12.5209 81.048 12.7929 81.368C13.0649 81.68 13.2809 82.096 13.4409 82.616C13.6009 83.136 13.6809 83.784 13.6809 84.56V84.8C13.6809 85.632 13.6009 86.328 13.4409 86.888C13.2809 87.44 13.0649 87.884 12.7929 88.22C12.5209 88.548 12.2009 88.78 11.8329 88.916C11.4729 89.052 11.0889 89.12 10.6809 89.12ZM10.6809 88.136C10.9289 88.136 11.1649 88.092 11.3889 88.004C11.6209 87.908 11.8209 87.74 11.9889 87.5C12.1649 87.252 12.3009 86.912 12.3969 86.48C12.5009 86.048 12.5529 85.488 12.5529 84.8V84.56C12.5529 83.936 12.5009 83.424 12.3969 83.024C12.3009 82.624 12.1649 82.308 11.9889 82.076C11.8209 81.844 11.6209 81.684 11.3889 81.596C11.1649 81.508 10.9289 81.464 10.6809 81.464C10.4249 81.464 10.1849 81.508 9.96094 81.596C9.73694 81.684 9.53694 81.844 9.36094 82.076C9.19294 82.308 9.05694 82.624 8.95294 83.024C8.85694 83.424 8.80894 83.936 8.80894 84.56V84.8C8.80894 85.488 8.85694 86.048 8.95294 86.48C9.05694 86.912 9.19294 87.252 9.36094 87.5C9.53694 87.74 9.73694 87.908 9.96094 88.004C10.1849 88.092 10.4249 88.136 10.6809 88.136ZM18.1223 89.12C17.7143 89.12 17.3263 89.052 16.9583 88.916C16.5983 88.78 16.2823 88.548 16.0103 88.22C15.7383 87.884 15.5223 87.44 15.3623 86.888C15.2023 86.328 15.1223 85.632 15.1223 84.8V84.56C15.1223 83.784 15.2023 83.136 15.3623 82.616C15.5223 82.096 15.7383 81.68 16.0103 81.368C16.2823 81.048 16.5983 80.82 16.9583 80.684C17.3263 80.548 17.7143 80.48 18.1223 80.48C18.5303 80.48 18.9143 80.548 19.2743 80.684C19.6423 80.82 19.9623 81.048 20.2343 81.368C20.5063 81.68 20.7223 82.096 20.8823 82.616C21.0423 83.136 21.1223 83.784 21.1223 84.56V84.8C21.1223 85.632 21.0423 86.328 20.8823 86.888C20.7223 87.44 20.5063 87.884 20.2343 88.22C19.9623 88.548 19.6423 88.78 19.2743 88.916C18.9143 89.052 18.5303 89.12 18.1223 89.12ZM18.1223 88.136C18.3703 88.136 18.6063 88.092 18.8303 88.004C19.0623 87.908 19.2623 87.74 19.4303 87.5C19.6063 87.252 19.7423 86.912 19.8383 86.48C19.9423 86.048 19.9943 85.488 19.9943 84.8V84.56C19.9943 83.936 19.9423 83.424 19.8383 83.024C19.7423 82.624 19.6063 82.308 19.4303 82.076C19.2623 81.844 19.0623 81.684 18.8303 81.596C18.6063 81.508 18.3703 81.464 18.1223 81.464C17.8663 81.464 17.6263 81.508 17.4023 81.596C17.1783 81.684 16.9783 81.844 16.8023 82.076C16.6343 82.308 16.4983 82.624 16.3943 83.024C16.2983 83.424 16.2503 83.936 16.2503 84.56V84.8C16.2503 85.488 16.2983 86.048 16.3943 86.48C16.4983 86.912 16.6343 87.252 16.8023 87.5C16.9783 87.74 17.1783 87.908 17.4023 88.004C17.6263 88.092 17.8663 88.136 18.1223 88.136Z" fill="#8F8FA0"/>
<line x1="32" y1="85.5" x2="477" y2="85.5" stroke="#EFEFF8"/>
<line x1="32" y1="125.5" x2="477" y2="125.5" stroke="#EFEFF8"/>
<line x1="32" y1="165.5" x2="477" y2="165.5" stroke="#EFEFF8"/>
<line x1="32" y1="205.5" x2="477" y2="205.5" stroke="#EFEFF8"/>
<line x1="32" y1="245.5" x2="477" y2="245.5" stroke="#EFEFF8"/>
<path d="M32 179C34.5103 178.186 41.4477 173.446 49.1154 160.996C58.7 145.434 68.9692 155.809 75.1308 152.757C81.2923 149.706 99.4346 107.291 109.362 108.206C121.685 108.206 121 129.872 144.619 130.787C168.238 131.703 179.192 131.397 189.119 144.519C199.046 157.64 230.538 149.401 232.935 144.519C235.331 139.636 250.735 113.699 262.715 114.614C274.696 115.53 277.777 133.228 297.288 130.787C316.8 128.346 320.223 93.2541 331.862 92.3387C343.5 91.4232 351.373 92.3387 354.454 95.3901C357.535 98.4416 357.192 100.272 367.804 104.239C378.415 108.206 378.073 114.614 385.262 114.614C392.45 114.614 413.673 113.394 420.519 117.055C427.365 120.717 430.788 129.872 450.985 133.228C467.142 135.913 475.06 136.178 477 135.974" stroke="#F35D66" stroke-width="2" stroke-linecap="round"/>
<path d="M33 205C34.713 205 39.6463 203.484 45.6759 197.421C53.213 189.841 63.1481 189.841 65.2037 189.841C67.2593 189.841 71.0278 192.942 78.5648 189.841C86.1018 186.741 102.546 173.649 112.824 175.716C123.102 177.783 127.556 189.841 136.806 189.841C144.206 189.841 165.241 186.856 174.833 185.363C178.259 185.363 187.646 184.398 197.787 180.539C210.463 175.716 233.074 160.558 248.148 162.625C263.222 164.692 277.954 185.707 288.917 187.774C299.88 189.841 317.009 185.018 320.435 178.817C323.861 172.616 335.852 172.271 340.648 168.481C345.444 164.692 353.324 157.801 362.917 159.179C372.509 160.558 375.935 165.381 397.176 165.725C418.417 166.07 420.815 169.86 430.065 183.64C439.315 197.421 468.435 188.463 477 180.539" stroke="#0AC4B4" stroke-width="2" stroke-linecap="round"/>
<path d="M33 232.745C35.6144 232.859 41.8664 233.565 45.9585 235.477C51.0737 237.868 66.0783 243.673 79.3779 239.575C92.6774 235.477 97.7926 228.648 109.728 229.33C121.664 230.013 139.055 230.355 150.65 230.696C162.244 231.038 181.341 234.111 191.571 231.721C201.802 229.33 211.009 223.525 221.24 224.208C231.47 224.891 241.7 223.183 247.498 220.793C253.295 218.402 260.456 218.402 266.594 220.793C272.733 223.183 279.212 228.306 293.876 228.306C308.539 228.306 329 225.915 338.207 228.306C347.415 230.696 357.986 236.16 370.945 231.721C383.903 227.281 399.249 219.085 412.889 220.793C426.53 222.5 428.917 228.306 437.101 228.306C445.286 228.306 467.452 228.647 477 222.159" stroke="#356FEC" stroke-width="2" stroke-linecap="round"/>
<path d="M33 257.313C37.2061 257.313 48.0736 257.313 57.8953 257.313C70.1724 257.313 81.7675 260.295 95.4088 257.313C109.05 254.332 125.079 254.663 136.674 255.988C148.269 257.313 159.864 254.994 166.343 253.338C172.823 251.681 202.834 252.344 215.452 252.012C228.07 251.681 234.891 251.35 243.075 249.031C251.26 246.711 258.081 245.386 269.676 250.687C281.271 255.988 288.433 256.982 305.484 256.982C322.536 256.982 327.992 254.994 343.68 256.982C359.367 258.97 369.598 260.295 379.488 256.982C389.378 253.669 397.563 247.705 407.112 247.705C416.66 247.705 421.094 251.018 430.984 254C438.896 256.386 464.291 251.902 476 249.362" stroke="#17185B" stroke-width="2" stroke-linecap="round"/>
</svg>
