<svg width="430" height="280" viewBox="0 0 430 280" fill="none" xmlns="http://www.w3.org/2000/svg">
<g filter="url(#filter0_d_7_2243)">
<rect x="12.5" y="12" width="405" height="256" rx="16" fill="white"/>
</g>
<path d="M29.34 32.6H31.5V35.792H34.62V32.6H36.78V41H34.62V37.568H31.5V41H29.34V32.6ZM41.2172 41.156C40.7692 41.156 40.3492 41.092 39.9572 40.964C39.5652 40.828 39.2212 40.624 38.9252 40.352C38.6292 40.08 38.3972 39.74 38.2292 39.332C38.0612 38.916 37.9772 38.432 37.9772 37.88V37.64C37.9772 37.12 38.0612 36.664 38.2292 36.272C38.3972 35.88 38.6292 35.552 38.9252 35.288C39.2212 35.024 39.5652 34.824 39.9572 34.688C40.3492 34.552 40.7692 34.484 41.2172 34.484C41.6652 34.484 42.0852 34.552 42.4772 34.688C42.8692 34.824 43.2132 35.024 43.5092 35.288C43.8052 35.552 44.0372 35.88 44.2052 36.272C44.3732 36.664 44.4572 37.12 44.4572 37.64V37.88C44.4572 38.424 44.3732 38.904 44.2052 39.32C44.0372 39.728 43.8052 40.068 43.5092 40.34C43.2132 40.612 42.8692 40.816 42.4772 40.952C42.0852 41.088 41.6652 41.156 41.2172 41.156ZM41.2172 39.62C41.6492 39.62 41.9812 39.464 42.2132 39.152C42.4452 38.84 42.5612 38.416 42.5612 37.88V37.64C42.5612 37.16 42.4452 36.772 42.2132 36.476C41.9812 36.172 41.6492 36.02 41.2172 36.02C40.7852 36.02 40.4532 36.172 40.2212 36.476C39.9892 36.772 39.8732 37.16 39.8732 37.64V37.88C39.8732 38.432 39.9892 38.86 40.2212 39.164C40.4532 39.468 40.7852 39.62 41.2172 39.62ZM45.4125 34.64H48.8205C49.2365 34.64 49.5925 34.684 49.8885 34.772C50.1925 34.852 50.4365 34.968 50.6205 35.12C50.8125 35.272 50.9525 35.452 51.0405 35.66C51.1285 35.86 51.1725 36.08 51.1725 36.32C51.1725 36.624 51.0845 36.908 50.9085 37.172C50.7325 37.428 50.4805 37.6 50.1525 37.688C50.5445 37.784 50.8525 37.968 51.0765 38.24C51.3005 38.512 51.4125 38.828 51.4125 39.188C51.4125 39.74 51.2165 40.18 50.8245 40.508C50.4325 40.836 49.8445 41 49.0605 41H45.4125V34.64ZM48.6045 39.608C49.2445 39.608 49.5645 39.412 49.5645 39.02C49.5645 38.62 49.2445 38.42 48.6045 38.42H47.2605V39.608H48.6045ZM48.4965 37.124C48.8165 37.124 49.0325 37.076 49.1445 36.98C49.2645 36.876 49.3245 36.74 49.3245 36.572C49.3245 36.396 49.2645 36.264 49.1445 36.176C49.0245 36.08 48.8085 36.032 48.4965 36.032H47.2605V37.124H48.4965ZM52.3734 34.64H54.2214V36.704H55.2534C56.0854 36.704 56.7134 36.88 57.1374 37.232C57.5614 37.584 57.7734 38.124 57.7734 38.852C57.7734 39.172 57.7254 39.464 57.6294 39.728C57.5414 39.992 57.3934 40.22 57.1854 40.412C56.9854 40.596 56.7254 40.74 56.4054 40.844C56.0934 40.948 55.7094 41 55.2534 41H52.3734V34.64ZM55.0134 39.608C55.3414 39.608 55.5734 39.548 55.7094 39.428C55.8534 39.3 55.9254 39.108 55.9254 38.852C55.9254 38.588 55.8534 38.396 55.7094 38.276C55.5734 38.156 55.3414 38.096 55.0134 38.096H54.2214V39.608H55.0134ZM58.3254 34.64H60.1734V41H58.3254V34.64ZM64.4334 41.156C63.9694 41.156 63.5334 41.092 63.1254 40.964C62.7254 40.828 62.3774 40.624 62.0814 40.352C61.7854 40.08 61.5534 39.74 61.3854 39.332C61.2174 38.916 61.1334 38.432 61.1334 37.88V37.64C61.1334 37.112 61.2134 36.652 61.3734 36.26C61.5414 35.868 61.7654 35.54 62.0454 35.276C62.3334 35.012 62.6694 34.816 63.0534 34.688C63.4454 34.552 63.8654 34.484 64.3134 34.484C65.3614 34.484 66.1534 34.756 66.6894 35.3C67.2254 35.836 67.4934 36.616 67.4934 37.64V38.3H63.0294C63.0374 38.548 63.0814 38.76 63.1614 38.936C63.2414 39.104 63.3454 39.244 63.4734 39.356C63.6014 39.468 63.7454 39.552 63.9054 39.608C64.0734 39.656 64.2494 39.68 64.4334 39.68C64.7854 39.68 65.0614 39.628 65.2614 39.524C65.4694 39.412 65.6054 39.264 65.6694 39.08H67.3734C67.2454 39.776 66.9294 40.296 66.4254 40.64C65.9214 40.984 65.2574 41.156 64.4334 41.156ZM64.3734 35.948C64.2054 35.948 64.0414 35.968 63.8814 36.008C63.7294 36.048 63.5894 36.116 63.4614 36.212C63.3414 36.3 63.2414 36.416 63.1614 36.56C63.0894 36.704 63.0494 36.88 63.0414 37.088H65.6814C65.6814 36.864 65.6454 36.68 65.5734 36.536C65.5014 36.392 65.4054 36.276 65.2854 36.188C65.1734 36.1 65.0374 36.04 64.8774 36.008C64.7174 35.968 64.5494 35.948 64.3734 35.948ZM71.0316 39.488H71.7036C71.8716 39.24 71.9916 38.9 72.0636 38.468C72.1356 38.028 72.1716 37.432 72.1716 36.68V34.64H77.3916V39.488H78.1116V42.5H76.5516V41H72.5916V42.5H71.0316V39.488ZM75.5436 39.488V36.152H73.8756V36.92C73.8756 37.52 73.8436 38.028 73.7796 38.444C73.7236 38.86 73.6356 39.208 73.5156 39.488H75.5436ZM78.9516 34.64H80.7516V38.48L83.4516 34.64H85.0716V41H83.2716V37.16L80.5716 41H78.9516V34.64ZM88.2558 41.156C87.9118 41.156 87.6038 41.104 87.3318 41C87.0678 40.896 86.8438 40.756 86.6598 40.58C86.4758 40.396 86.3358 40.184 86.2398 39.944C86.1438 39.696 86.0958 39.428 86.0958 39.14C86.0958 38.508 86.2878 38.024 86.6718 37.688C87.0638 37.352 87.6518 37.184 88.4358 37.184H90.2478V36.92C90.2478 36.536 90.1558 36.272 89.9718 36.128C89.7878 35.976 89.5358 35.9 89.2158 35.9C88.9118 35.9 88.6878 35.948 88.5438 36.044C88.3998 36.14 88.3198 36.292 88.3038 36.5H86.4558C86.4718 36.212 86.5438 35.948 86.6718 35.708C86.7998 35.46 86.9798 35.248 87.2118 35.072C87.4518 34.888 87.7438 34.744 88.0878 34.64C88.4318 34.536 88.8278 34.484 89.2758 34.484C89.6918 34.484 90.0718 34.532 90.4158 34.628C90.7678 34.716 91.0678 34.864 91.3158 35.072C91.5638 35.272 91.7558 35.536 91.8918 35.864C92.0278 36.184 92.0958 36.576 92.0958 37.04V39.38C92.0958 39.716 92.1038 40.012 92.1198 40.268C92.1358 40.516 92.1598 40.76 92.1918 41H90.4398C90.4238 40.864 90.4078 40.744 90.3918 40.64C90.3838 40.536 90.3798 40.408 90.3798 40.256C90.1878 40.512 89.9198 40.728 89.5758 40.904C89.2398 41.072 88.7998 41.156 88.2558 41.156ZM88.8558 39.86C89.2478 39.86 89.5758 39.748 89.8398 39.524C90.1118 39.3 90.2478 38.992 90.2478 38.6V38.336H88.7958C88.5238 38.336 88.3198 38.408 88.1838 38.552C88.0558 38.696 87.9918 38.864 87.9918 39.056C87.9918 39.288 88.0558 39.48 88.1838 39.632C88.3198 39.784 88.5438 39.86 88.8558 39.86ZM93.4167 41.156C93.3527 41.156 93.2607 41.152 93.1407 41.144C93.0287 41.144 92.9407 41.136 92.8767 41.12V39.512C92.9167 39.52 92.9767 39.524 93.0567 39.524C93.1927 39.524 93.3127 39.484 93.4167 39.404C93.5207 39.316 93.6087 39.176 93.6807 38.984C93.7527 38.784 93.8047 38.528 93.8367 38.216C93.8767 37.896 93.8967 37.504 93.8967 37.04V34.64H99.1767V41H97.3287V36.152H95.6247V37.28C95.6247 38.072 95.5767 38.72 95.4807 39.224C95.3847 39.728 95.2447 40.124 95.0607 40.412C94.8767 40.7 94.6447 40.896 94.3647 41C94.0927 41.104 93.7767 41.156 93.4167 41.156ZM103.373 41.156C102.925 41.156 102.505 41.092 102.113 40.964C101.721 40.828 101.377 40.624 101.081 40.352C100.785 40.08 100.553 39.74 100.385 39.332C100.217 38.916 100.133 38.432 100.133 37.88V37.64C100.133 37.12 100.217 36.664 100.385 36.272C100.553 35.88 100.785 35.552 101.081 35.288C101.377 35.024 101.721 34.824 102.113 34.688C102.505 34.552 102.925 34.484 103.373 34.484C103.821 34.484 104.241 34.552 104.633 34.688C105.025 34.824 105.369 35.024 105.665 35.288C105.961 35.552 106.193 35.88 106.361 36.272C106.529 36.664 106.613 37.12 106.613 37.64V37.88C106.613 38.424 106.529 38.904 106.361 39.32C106.193 39.728 105.961 40.068 105.665 40.34C105.369 40.612 105.025 40.816 104.633 40.952C104.241 41.088 103.821 41.156 103.373 41.156ZM103.373 39.62C103.805 39.62 104.137 39.464 104.369 39.152C104.601 38.84 104.717 38.416 104.717 37.88V37.64C104.717 37.16 104.601 36.772 104.369 36.476C104.137 36.172 103.805 36.02 103.373 36.02C102.941 36.02 102.609 36.172 102.377 36.476C102.145 36.772 102.029 37.16 102.029 37.64V37.88C102.029 38.432 102.145 38.86 102.377 39.164C102.609 39.468 102.941 39.62 103.373 39.62ZM107.569 34.64H112.249V36.152H109.417V41H107.569V34.64ZM113.088 34.64H114.888V38.48L117.588 34.64H119.208V41H117.408V37.16L114.708 41H113.088V34.64Z" fill="#2B2B2B"/>
<circle cx="32.5" cy="68" r="4" fill="#356FEC"/>
<path d="M47.656 65.584H44.74V64.6H51.7V65.584H48.784V73H47.656V65.584ZM54.4633 73.12C54.0553 73.12 53.6673 73.056 53.2993 72.928C52.9313 72.8 52.6073 72.604 52.3273 72.34C52.0473 72.068 51.8233 71.728 51.6553 71.32C51.4873 70.912 51.4033 70.432 51.4033 69.88V69.64C51.4033 69.112 51.4833 68.656 51.6433 68.272C51.8033 67.88 52.0153 67.556 52.2793 67.3C52.5513 67.036 52.8633 66.84 53.2153 66.712C53.5753 66.584 53.9513 66.52 54.3433 66.52C55.2793 66.52 56.0033 66.776 56.5153 67.288C57.0273 67.8 57.2833 68.524 57.2833 69.46V70.132H52.4593C52.4593 70.508 52.5193 70.824 52.6393 71.08C52.7593 71.336 52.9153 71.544 53.1073 71.704C53.2993 71.864 53.5113 71.98 53.7433 72.052C53.9833 72.124 54.2233 72.16 54.4633 72.16C54.9433 72.16 55.3113 72.08 55.5673 71.92C55.8313 71.76 56.0193 71.54 56.1313 71.26H57.1633C57.0993 71.564 56.9833 71.832 56.8153 72.064C56.6553 72.296 56.4553 72.492 56.2153 72.652C55.9833 72.804 55.7153 72.92 55.4113 73C55.1153 73.08 54.7993 73.12 54.4633 73.12ZM54.4033 67.48C54.1553 67.48 53.9153 67.516 53.6833 67.588C53.4513 67.652 53.2433 67.76 53.0593 67.912C52.8833 68.056 52.7393 68.24 52.6273 68.464C52.5153 68.688 52.4593 68.956 52.4593 69.268H56.2873C56.2793 68.94 56.2233 68.664 56.1193 68.44C56.0233 68.208 55.8913 68.024 55.7233 67.888C55.5553 67.744 55.3553 67.64 55.1233 67.576C54.8993 67.512 54.6593 67.48 54.4033 67.48ZM60.7042 73.06C60.0402 73.06 59.5642 72.9 59.2762 72.58C58.9882 72.26 58.8442 71.74 58.8442 71.02V64.6H59.9002V71.02C59.9002 71.436 59.9682 71.72 60.1042 71.872C60.2402 72.024 60.4802 72.1 60.8242 72.1C60.9122 72.1 60.9882 72.1 61.0522 72.1C61.1162 72.092 61.1802 72.084 61.2442 72.076V73.012C61.1802 73.028 61.0882 73.04 60.9682 73.048C60.8562 73.056 60.7682 73.06 60.7042 73.06ZM65.1508 73.12C64.7428 73.12 64.3548 73.056 63.9868 72.928C63.6188 72.8 63.2948 72.604 63.0148 72.34C62.7348 72.068 62.5108 71.728 62.3428 71.32C62.1748 70.912 62.0908 70.432 62.0908 69.88V69.64C62.0908 69.112 62.1708 68.656 62.3308 68.272C62.4908 67.88 62.7028 67.556 62.9668 67.3C63.2388 67.036 63.5508 66.84 63.9028 66.712C64.2628 66.584 64.6388 66.52 65.0308 66.52C65.9668 66.52 66.6908 66.776 67.2028 67.288C67.7148 67.8 67.9708 68.524 67.9708 69.46V70.132H63.1468C63.1468 70.508 63.2068 70.824 63.3268 71.08C63.4468 71.336 63.6028 71.544 63.7948 71.704C63.9868 71.864 64.1988 71.98 64.4308 72.052C64.6708 72.124 64.9108 72.16 65.1508 72.16C65.6308 72.16 65.9988 72.08 66.2548 71.92C66.5188 71.76 66.7068 71.54 66.8188 71.26H67.8508C67.7868 71.564 67.6708 71.832 67.5028 72.064C67.3428 72.296 67.1428 72.492 66.9028 72.652C66.6708 72.804 66.4028 72.92 66.0988 73C65.8028 73.08 65.4868 73.12 65.1508 73.12ZM65.0908 67.48C64.8428 67.48 64.6028 67.516 64.3708 67.588C64.1388 67.652 63.9308 67.76 63.7468 67.912C63.5708 68.056 63.4268 68.24 63.3148 68.464C63.2028 68.688 63.1468 68.956 63.1468 69.268H66.9748C66.9668 68.94 66.9108 68.664 66.8068 68.44C66.7108 68.208 66.5788 68.024 66.4108 67.888C66.2428 67.744 66.0428 67.64 65.8108 67.576C65.5868 67.512 65.3468 67.48 65.0908 67.48ZM71.9917 75.52C71.5277 75.52 71.1317 75.472 70.8037 75.376C70.4757 75.288 70.2037 75.164 69.9877 75.004C69.7797 74.844 69.6197 74.652 69.5077 74.428C69.3957 74.212 69.3237 73.976 69.2917 73.72H70.3957C70.4357 73.848 70.4917 73.964 70.5637 74.068C70.6357 74.172 70.7317 74.26 70.8517 74.332C70.9717 74.404 71.1237 74.46 71.3077 74.5C71.4997 74.54 71.7277 74.56 71.9917 74.56C72.6397 74.56 73.1157 74.404 73.4197 74.092C73.7237 73.78 73.8757 73.336 73.8757 72.76V71.74C73.6917 72.164 73.4077 72.48 73.0237 72.688C72.6477 72.896 72.2037 73 71.6917 73C71.2997 73 70.9397 72.932 70.6117 72.796C70.2917 72.66 70.0157 72.46 69.7837 72.196C69.5517 71.932 69.3717 71.604 69.2437 71.212C69.1157 70.812 69.0517 70.348 69.0517 69.82V69.58C69.0517 69.092 69.1157 68.66 69.2437 68.284C69.3797 67.9 69.5637 67.58 69.7957 67.324C70.0277 67.06 70.3037 66.86 70.6237 66.724C70.9517 66.588 71.3077 66.52 71.6917 66.52C72.2357 66.52 72.7077 66.644 73.1077 66.892C73.5077 67.132 73.7877 67.448 73.9477 67.84V66.64H74.9317V72.76C74.9317 73.624 74.6797 74.3 74.1757 74.788C73.6717 75.276 72.9437 75.52 71.9917 75.52ZM71.9317 72.064C72.2197 72.064 72.4837 72.02 72.7237 71.932C72.9637 71.836 73.1677 71.704 73.3357 71.536C73.5037 71.368 73.6357 71.168 73.7317 70.936C73.8277 70.704 73.8757 70.452 73.8757 70.18V69.22C73.8757 68.98 73.8277 68.752 73.7317 68.536C73.6357 68.32 73.5037 68.132 73.3357 67.972C73.1677 67.812 72.9637 67.688 72.7237 67.6C72.4837 67.504 72.2197 67.456 71.9317 67.456C71.6757 67.456 71.4357 67.504 71.2117 67.6C70.9877 67.696 70.7917 67.836 70.6237 68.02C70.4637 68.204 70.3357 68.428 70.2397 68.692C70.1517 68.948 70.1077 69.244 70.1077 69.58V69.82C70.1077 70.18 70.1517 70.5 70.2397 70.78C70.3357 71.06 70.4637 71.296 70.6237 71.488C70.7917 71.68 70.9877 71.824 71.2117 71.92C71.4357 72.016 71.6757 72.064 71.9317 72.064ZM76.8545 66.64H77.8385V67.84C77.9745 67.464 78.1985 67.152 78.5105 66.904C78.8305 66.648 79.2185 66.52 79.6745 66.52C79.8345 66.52 79.9625 66.528 80.0585 66.544C80.1625 66.56 80.2545 66.58 80.3345 66.604V67.588C80.2305 67.548 80.1265 67.52 80.0225 67.504C79.9265 67.488 79.7905 67.48 79.6145 67.48C79.3745 67.48 79.1505 67.524 78.9425 67.612C78.7345 67.7 78.5545 67.824 78.4025 67.984C78.2505 68.136 78.1305 68.324 78.0425 68.548C77.9545 68.772 77.9105 69.016 77.9105 69.28V73H76.8545V66.64ZM83.2251 73.12C82.8731 73.12 82.5611 73.072 82.2891 72.976C82.0251 72.872 81.8011 72.732 81.6171 72.556C81.4331 72.38 81.2931 72.172 81.1971 71.932C81.1011 71.692 81.0531 71.428 81.0531 71.14C81.0531 70.508 81.2371 70.052 81.6051 69.772C81.9811 69.492 82.5171 69.352 83.2131 69.352H85.2771V68.92C85.2771 68.376 85.1531 68 84.9051 67.792C84.6651 67.584 84.3011 67.48 83.8131 67.48C83.3571 67.48 83.0251 67.568 82.8171 67.744C82.6091 67.912 82.4931 68.104 82.4691 68.32H81.4131C81.4291 68.064 81.4971 67.828 81.6171 67.612C81.7451 67.388 81.9131 67.196 82.1211 67.036C82.3371 66.876 82.5931 66.752 82.8891 66.664C83.1851 66.568 83.5131 66.52 83.8731 66.52C84.6251 66.52 85.2211 66.7 85.6611 67.06C86.1091 67.412 86.3331 67.992 86.3331 68.8V71.38C86.3331 71.716 86.3331 72.012 86.3331 72.268C86.3411 72.516 86.3611 72.76 86.3931 73H85.4691C85.4451 72.816 85.4291 72.644 85.4211 72.484C85.4131 72.316 85.4091 72.128 85.4091 71.92C85.2411 72.256 84.9691 72.54 84.5931 72.772C84.2171 73.004 83.7611 73.12 83.2251 73.12ZM83.4531 72.16C83.7011 72.16 83.9331 72.128 84.1491 72.064C84.3731 71.992 84.5691 71.892 84.7371 71.764C84.9051 71.628 85.0371 71.464 85.1331 71.272C85.2291 71.08 85.2771 70.856 85.2771 70.6V70.168H83.3931C83.0011 70.168 82.6931 70.248 82.4691 70.408C82.2451 70.56 82.1331 70.804 82.1331 71.14C82.1331 71.436 82.2371 71.68 82.4451 71.872C82.6611 72.064 82.9971 72.16 83.4531 72.16ZM88.1983 66.64H89.1823V67.84C89.3183 67.448 89.5503 67.132 89.8783 66.892C90.2143 66.644 90.5943 66.52 91.0183 66.52C91.5703 66.52 91.9943 66.64 92.2903 66.88C92.5863 67.112 92.7903 67.412 92.9023 67.78C93.1103 67.388 93.3743 67.08 93.6943 66.856C94.0223 66.632 94.4143 66.52 94.8703 66.52C95.5263 66.52 96.0383 66.72 96.4063 67.12C96.7743 67.512 96.9583 68.132 96.9583 68.98V73H95.9023V69.22C95.9023 68.588 95.7903 68.14 95.5663 67.876C95.3503 67.612 95.0183 67.48 94.5703 67.48C94.3783 67.48 94.1943 67.52 94.0183 67.6C93.8423 67.68 93.6863 67.796 93.5503 67.948C93.4143 68.1 93.3063 68.284 93.2263 68.5C93.1463 68.716 93.1063 68.956 93.1063 69.22V73H92.0503V69.22C92.0503 68.588 91.9383 68.14 91.7143 67.876C91.4903 67.612 91.1583 67.48 90.7183 67.48C90.5263 67.48 90.3423 67.52 90.1663 67.6C89.9903 67.68 89.8343 67.796 89.6983 67.948C89.5623 68.1 89.4543 68.284 89.3743 68.5C89.2943 68.716 89.2543 68.956 89.2543 69.22V73H88.1983V66.64Z" fill="#2B2B2B"/>
<circle cx="114.5" cy="68" r="4" fill="#0AC4B4"/>
<path d="M126.86 64.6H128.06L129.788 71.2L131.756 64.6H132.764L134.768 71.2L136.508 64.6H137.66L135.404 73H134.276L132.236 66.4L130.244 73H129.116L126.86 64.6ZM138.98 64.6H140.036V67.78C140.116 67.612 140.22 67.452 140.348 67.3C140.476 67.148 140.628 67.016 140.804 66.904C140.98 66.784 141.18 66.692 141.404 66.628C141.628 66.556 141.872 66.52 142.136 66.52C142.936 66.52 143.528 66.736 143.912 67.168C144.304 67.592 144.5 68.216 144.5 69.04V73H143.444V69.28C143.444 68.688 143.32 68.24 143.072 67.936C142.824 67.632 142.408 67.48 141.824 67.48C141.512 67.48 141.24 67.532 141.008 67.636C140.784 67.74 140.6 67.876 140.456 68.044C140.312 68.212 140.204 68.404 140.132 68.62C140.068 68.836 140.036 69.056 140.036 69.28V73H138.98V64.6ZM148.174 73.12C147.822 73.12 147.51 73.072 147.238 72.976C146.974 72.872 146.75 72.732 146.566 72.556C146.382 72.38 146.242 72.172 146.146 71.932C146.05 71.692 146.002 71.428 146.002 71.14C146.002 70.508 146.186 70.052 146.554 69.772C146.93 69.492 147.466 69.352 148.162 69.352H150.226V68.92C150.226 68.376 150.102 68 149.854 67.792C149.614 67.584 149.25 67.48 148.762 67.48C148.306 67.48 147.974 67.568 147.766 67.744C147.558 67.912 147.442 68.104 147.418 68.32H146.362C146.378 68.064 146.446 67.828 146.566 67.612C146.694 67.388 146.862 67.196 147.07 67.036C147.286 66.876 147.542 66.752 147.838 66.664C148.134 66.568 148.462 66.52 148.822 66.52C149.574 66.52 150.17 66.7 150.61 67.06C151.058 67.412 151.282 67.992 151.282 68.8V71.38C151.282 71.716 151.282 72.012 151.282 72.268C151.29 72.516 151.31 72.76 151.342 73H150.418C150.394 72.816 150.378 72.644 150.37 72.484C150.362 72.316 150.358 72.128 150.358 71.92C150.19 72.256 149.918 72.54 149.542 72.772C149.166 73.004 148.71 73.12 148.174 73.12ZM148.402 72.16C148.65 72.16 148.882 72.128 149.098 72.064C149.322 71.992 149.518 71.892 149.686 71.764C149.854 71.628 149.986 71.464 150.082 71.272C150.178 71.08 150.226 70.856 150.226 70.6V70.168H148.342C147.95 70.168 147.642 70.248 147.418 70.408C147.194 70.56 147.082 70.804 147.082 71.14C147.082 71.436 147.186 71.68 147.394 71.872C147.61 72.064 147.946 72.16 148.402 72.16ZM155.37 73.06C154.69 73.06 154.198 72.908 153.894 72.604C153.598 72.292 153.45 71.824 153.45 71.2V67.576H152.49V66.64H153.45V65.2H154.506V66.64H156.21V67.576H154.506V71.08C154.506 71.44 154.582 71.7 154.734 71.86C154.886 72.02 155.178 72.1 155.61 72.1C155.85 72.1 156.09 72.088 156.33 72.064V73C156.178 73.016 156.026 73.028 155.874 73.036C155.722 73.052 155.554 73.06 155.37 73.06ZM160.055 73.12C159.631 73.12 159.263 73.072 158.951 72.976C158.647 72.872 158.387 72.736 158.171 72.568C157.955 72.4 157.787 72.204 157.667 71.98C157.547 71.756 157.463 71.516 157.415 71.26H158.471C158.527 71.516 158.675 71.74 158.915 71.932C159.163 72.116 159.543 72.208 160.055 72.208C160.351 72.208 160.599 72.184 160.799 72.136C160.999 72.08 161.159 72.012 161.279 71.932C161.407 71.844 161.499 71.744 161.555 71.632C161.611 71.512 161.639 71.388 161.639 71.26C161.639 71.124 161.611 71.004 161.555 70.9C161.507 70.796 161.415 70.704 161.279 70.624C161.151 70.536 160.971 70.46 160.739 70.396C160.515 70.324 160.231 70.264 159.887 70.216C159.535 70.168 159.215 70.1 158.927 70.012C158.647 69.916 158.407 69.792 158.207 69.64C158.015 69.488 157.863 69.308 157.751 69.1C157.647 68.884 157.595 68.624 157.595 68.32C157.595 68.08 157.647 67.852 157.751 67.636C157.855 67.42 158.011 67.228 158.219 67.06C158.427 66.892 158.683 66.76 158.987 66.664C159.291 66.568 159.647 66.52 160.055 66.52C160.431 66.52 160.759 66.572 161.039 66.676C161.319 66.772 161.555 66.904 161.747 67.072C161.947 67.24 162.103 67.436 162.215 67.66C162.327 67.884 162.407 68.124 162.455 68.38H161.399C161.335 68.1 161.199 67.872 160.991 67.696C160.783 67.52 160.471 67.432 160.055 67.432C159.535 67.432 159.171 67.52 158.963 67.696C158.755 67.864 158.651 68.072 158.651 68.32C158.651 68.464 158.675 68.588 158.723 68.692C158.779 68.796 158.867 68.888 158.987 68.968C159.115 69.048 159.279 69.116 159.479 69.172C159.687 69.22 159.943 69.264 160.247 69.304C160.639 69.352 160.987 69.424 161.291 69.52C161.595 69.608 161.851 69.732 162.059 69.892C162.267 70.044 162.423 70.232 162.527 70.456C162.639 70.68 162.695 70.948 162.695 71.26C162.695 71.516 162.639 71.756 162.527 71.98C162.423 72.204 162.263 72.4 162.047 72.568C161.831 72.736 161.555 72.872 161.219 72.976C160.891 73.072 160.503 73.12 160.055 73.12ZM169.01 73.12C168.658 73.12 168.346 73.072 168.074 72.976C167.81 72.872 167.586 72.732 167.402 72.556C167.218 72.38 167.078 72.172 166.982 71.932C166.886 71.692 166.838 71.428 166.838 71.14C166.838 70.508 167.022 70.052 167.39 69.772C167.766 69.492 168.302 69.352 168.998 69.352H171.062V68.92C171.062 68.376 170.938 68 170.69 67.792C170.45 67.584 170.086 67.48 169.598 67.48C169.142 67.48 168.81 67.568 168.602 67.744C168.394 67.912 168.278 68.104 168.254 68.32H167.198C167.214 68.064 167.282 67.828 167.402 67.612C167.53 67.388 167.698 67.196 167.906 67.036C168.122 66.876 168.378 66.752 168.674 66.664C168.97 66.568 169.298 66.52 169.658 66.52C170.41 66.52 171.006 66.7 171.446 67.06C171.894 67.412 172.118 67.992 172.118 68.8V71.38C172.118 71.716 172.118 72.012 172.118 72.268C172.126 72.516 172.146 72.76 172.178 73H171.254C171.23 72.816 171.214 72.644 171.206 72.484C171.198 72.316 171.194 72.128 171.194 71.92C171.026 72.256 170.754 72.54 170.378 72.772C170.002 73.004 169.546 73.12 169.01 73.12ZM169.238 72.16C169.486 72.16 169.718 72.128 169.934 72.064C170.158 71.992 170.354 71.892 170.522 71.764C170.69 71.628 170.822 71.464 170.918 71.272C171.014 71.08 171.062 70.856 171.062 70.6V70.168H169.178C168.786 70.168 168.478 70.248 168.254 70.408C168.03 70.56 167.918 70.804 167.918 71.14C167.918 71.436 168.022 71.68 168.23 71.872C168.446 72.064 168.782 72.16 169.238 72.16ZM173.983 66.64H174.967V67.84C175.183 67.416 175.483 67.092 175.867 66.868C176.259 66.636 176.711 66.52 177.223 66.52C178.023 66.52 178.663 66.784 179.143 67.312C179.623 67.832 179.863 68.608 179.863 69.64V69.88C179.863 70.424 179.799 70.9 179.671 71.308C179.543 71.708 179.363 72.044 179.131 72.316C178.899 72.58 178.619 72.78 178.291 72.916C177.971 73.052 177.615 73.12 177.223 73.12C176.679 73.12 176.223 73 175.855 72.76C175.495 72.52 175.223 72.22 175.039 71.86V75.4H173.983V66.64ZM176.983 72.184C177.239 72.184 177.479 72.136 177.703 72.04C177.927 71.936 178.119 71.788 178.279 71.596C178.447 71.404 178.575 71.164 178.663 70.876C178.759 70.588 178.807 70.256 178.807 69.88V69.64C178.807 69.296 178.759 68.988 178.663 68.716C178.575 68.444 178.447 68.216 178.279 68.032C178.119 67.84 177.927 67.696 177.703 67.6C177.479 67.504 177.239 67.456 176.983 67.456C176.695 67.456 176.431 67.504 176.191 67.6C175.951 67.688 175.747 67.816 175.579 67.984C175.411 68.144 175.279 68.336 175.183 68.56C175.087 68.784 175.039 69.024 175.039 69.28V70.24C175.039 70.528 175.087 70.792 175.183 71.032C175.279 71.272 175.411 71.476 175.579 71.644C175.747 71.812 175.951 71.944 176.191 72.04C176.431 72.136 176.695 72.184 176.983 72.184ZM181.366 66.64H182.35V67.84C182.566 67.416 182.866 67.092 183.25 66.868C183.642 66.636 184.094 66.52 184.606 66.52C185.406 66.52 186.046 66.784 186.526 67.312C187.006 67.832 187.246 68.608 187.246 69.64V69.88C187.246 70.424 187.182 70.9 187.054 71.308C186.926 71.708 186.746 72.044 186.514 72.316C186.282 72.58 186.002 72.78 185.674 72.916C185.354 73.052 184.998 73.12 184.606 73.12C184.062 73.12 183.606 73 183.238 72.76C182.878 72.52 182.606 72.22 182.422 71.86V75.4H181.366V66.64ZM184.366 72.184C184.622 72.184 184.862 72.136 185.086 72.04C185.31 71.936 185.502 71.788 185.662 71.596C185.83 71.404 185.958 71.164 186.046 70.876C186.142 70.588 186.19 70.256 186.19 69.88V69.64C186.19 69.296 186.142 68.988 186.046 68.716C185.958 68.444 185.83 68.216 185.662 68.032C185.502 67.84 185.31 67.696 185.086 67.6C184.862 67.504 184.622 67.456 184.366 67.456C184.078 67.456 183.814 67.504 183.574 67.6C183.334 67.688 183.13 67.816 182.962 67.984C182.794 68.144 182.662 68.336 182.566 68.56C182.47 68.784 182.422 69.024 182.422 69.28V70.24C182.422 70.528 182.47 70.792 182.566 71.032C182.662 71.272 182.794 71.476 182.962 71.644C183.13 71.812 183.334 71.944 183.574 72.04C183.814 72.136 184.078 72.184 184.366 72.184Z" fill="#2B2B2B"/>
<circle cx="204.5" cy="68" r="4" fill="#F35D66"/>
<path d="M217.7 64.6H218.828V68.188H223.292V64.6H224.42V73H223.292V69.172H218.828V73H217.7V64.6ZM229.217 73.12C228.809 73.12 228.421 73.056 228.053 72.928C227.685 72.8 227.361 72.604 227.081 72.34C226.801 72.068 226.577 71.728 226.409 71.32C226.241 70.912 226.157 70.432 226.157 69.88V69.64C226.157 69.112 226.237 68.656 226.397 68.272C226.557 67.88 226.769 67.556 227.033 67.3C227.305 67.036 227.617 66.84 227.969 66.712C228.329 66.584 228.705 66.52 229.097 66.52C230.033 66.52 230.757 66.776 231.269 67.288C231.781 67.8 232.037 68.524 232.037 69.46V70.132H227.213C227.213 70.508 227.273 70.824 227.393 71.08C227.513 71.336 227.669 71.544 227.861 71.704C228.053 71.864 228.265 71.98 228.497 72.052C228.737 72.124 228.977 72.16 229.217 72.16C229.697 72.16 230.065 72.08 230.321 71.92C230.585 71.76 230.773 71.54 230.885 71.26H231.917C231.853 71.564 231.737 71.832 231.569 72.064C231.409 72.296 231.209 72.492 230.969 72.652C230.737 72.804 230.469 72.92 230.165 73C229.869 73.08 229.553 73.12 229.217 73.12ZM229.157 67.48C228.909 67.48 228.669 67.516 228.437 67.588C228.205 67.652 227.997 67.76 227.813 67.912C227.637 68.056 227.493 68.24 227.381 68.464C227.269 68.688 227.213 68.956 227.213 69.268H231.041C231.033 68.94 230.977 68.664 230.873 68.44C230.777 68.208 230.645 68.024 230.477 67.888C230.309 67.744 230.109 67.64 229.877 67.576C229.653 67.512 229.413 67.48 229.157 67.48ZM235.458 73.06C234.794 73.06 234.318 72.9 234.03 72.58C233.742 72.26 233.598 71.74 233.598 71.02V64.6H234.654V71.02C234.654 71.436 234.722 71.72 234.858 71.872C234.994 72.024 235.234 72.1 235.578 72.1C235.666 72.1 235.742 72.1 235.806 72.1C235.87 72.092 235.934 72.084 235.998 72.076V73.012C235.934 73.028 235.842 73.04 235.722 73.048C235.61 73.056 235.522 73.06 235.458 73.06ZM237.382 66.64H238.366V67.84C238.582 67.416 238.882 67.092 239.266 66.868C239.658 66.636 240.11 66.52 240.622 66.52C241.422 66.52 242.062 66.784 242.542 67.312C243.022 67.832 243.262 68.608 243.262 69.64V69.88C243.262 70.424 243.198 70.9 243.07 71.308C242.942 71.708 242.762 72.044 242.53 72.316C242.298 72.58 242.018 72.78 241.69 72.916C241.37 73.052 241.014 73.12 240.622 73.12C240.078 73.12 239.622 73 239.254 72.76C238.894 72.52 238.622 72.22 238.438 71.86V75.4H237.382V66.64ZM240.382 72.184C240.638 72.184 240.878 72.136 241.102 72.04C241.326 71.936 241.518 71.788 241.678 71.596C241.846 71.404 241.974 71.164 242.062 70.876C242.158 70.588 242.206 70.256 242.206 69.88V69.64C242.206 69.296 242.158 68.988 242.062 68.716C241.974 68.444 241.846 68.216 241.678 68.032C241.518 67.84 241.326 67.696 241.102 67.6C240.878 67.504 240.638 67.456 240.382 67.456C240.094 67.456 239.83 67.504 239.59 67.6C239.35 67.688 239.146 67.816 238.978 67.984C238.81 68.144 238.678 68.336 238.582 68.56C238.486 68.784 238.438 69.024 238.438 69.28V70.24C238.438 70.528 238.486 70.792 238.582 71.032C238.678 71.272 238.81 71.476 238.978 71.644C239.146 71.812 239.35 71.944 239.59 72.04C239.83 72.136 240.094 72.184 240.382 72.184ZM248.005 64.6H250.465C251.097 64.6 251.661 64.688 252.157 64.864C252.653 65.032 253.073 65.284 253.417 65.62C253.761 65.956 254.025 66.376 254.209 66.88C254.393 67.384 254.485 67.964 254.485 68.62V68.86C254.485 69.532 254.389 70.128 254.197 70.648C254.013 71.16 253.741 71.592 253.381 71.944C253.029 72.288 252.597 72.552 252.085 72.736C251.573 72.912 250.993 73 250.345 73H248.005V64.6ZM250.225 72.016C250.697 72.016 251.121 71.956 251.497 71.836C251.881 71.716 252.205 71.532 252.469 71.284C252.733 71.028 252.933 70.7 253.069 70.3C253.213 69.9 253.285 69.42 253.285 68.86V68.62C253.285 68.084 253.217 67.624 253.081 67.24C252.945 66.856 252.749 66.544 252.493 66.304C252.237 66.056 251.925 65.876 251.557 65.764C251.197 65.644 250.793 65.584 250.345 65.584H249.133V72.016H250.225ZM258.807 73.12C258.399 73.12 258.011 73.056 257.643 72.928C257.275 72.8 256.951 72.604 256.671 72.34C256.391 72.068 256.167 71.728 255.999 71.32C255.831 70.912 255.747 70.432 255.747 69.88V69.64C255.747 69.112 255.827 68.656 255.987 68.272C256.147 67.88 256.359 67.556 256.623 67.3C256.895 67.036 257.207 66.84 257.559 66.712C257.919 66.584 258.295 66.52 258.687 66.52C259.623 66.52 260.347 66.776 260.859 67.288C261.371 67.8 261.627 68.524 261.627 69.46V70.132H256.803C256.803 70.508 256.863 70.824 256.983 71.08C257.103 71.336 257.259 71.544 257.451 71.704C257.643 71.864 257.855 71.98 258.087 72.052C258.327 72.124 258.567 72.16 258.807 72.16C259.287 72.16 259.655 72.08 259.911 71.92C260.175 71.76 260.363 71.54 260.475 71.26H261.507C261.443 71.564 261.327 71.832 261.159 72.064C260.999 72.296 260.799 72.492 260.559 72.652C260.327 72.804 260.059 72.92 259.755 73C259.459 73.08 259.143 73.12 258.807 73.12ZM258.747 67.48C258.499 67.48 258.259 67.516 258.027 67.588C257.795 67.652 257.587 67.76 257.403 67.912C257.227 68.056 257.083 68.24 256.971 68.464C256.859 68.688 256.803 68.956 256.803 69.268H260.631C260.623 68.94 260.567 68.664 260.463 68.44C260.367 68.208 260.235 68.024 260.067 67.888C259.899 67.744 259.699 67.64 259.467 67.576C259.243 67.512 259.003 67.48 258.747 67.48ZM265.348 73.12C264.924 73.12 264.556 73.072 264.244 72.976C263.94 72.872 263.68 72.736 263.464 72.568C263.248 72.4 263.08 72.204 262.96 71.98C262.84 71.756 262.756 71.516 262.708 71.26H263.764C263.82 71.516 263.968 71.74 264.208 71.932C264.456 72.116 264.836 72.208 265.348 72.208C265.644 72.208 265.892 72.184 266.092 72.136C266.292 72.08 266.452 72.012 266.572 71.932C266.7 71.844 266.792 71.744 266.848 71.632C266.904 71.512 266.932 71.388 266.932 71.26C266.932 71.124 266.904 71.004 266.848 70.9C266.8 70.796 266.708 70.704 266.572 70.624C266.444 70.536 266.264 70.46 266.032 70.396C265.808 70.324 265.524 70.264 265.18 70.216C264.828 70.168 264.508 70.1 264.22 70.012C263.94 69.916 263.7 69.792 263.5 69.64C263.308 69.488 263.156 69.308 263.044 69.1C262.94 68.884 262.888 68.624 262.888 68.32C262.888 68.08 262.94 67.852 263.044 67.636C263.148 67.42 263.304 67.228 263.512 67.06C263.72 66.892 263.976 66.76 264.28 66.664C264.584 66.568 264.94 66.52 265.348 66.52C265.724 66.52 266.052 66.572 266.332 66.676C266.612 66.772 266.848 66.904 267.04 67.072C267.24 67.24 267.396 67.436 267.508 67.66C267.62 67.884 267.7 68.124 267.748 68.38H266.692C266.628 68.1 266.492 67.872 266.284 67.696C266.076 67.52 265.764 67.432 265.348 67.432C264.828 67.432 264.464 67.52 264.256 67.696C264.048 67.864 263.944 68.072 263.944 68.32C263.944 68.464 263.968 68.588 264.016 68.692C264.072 68.796 264.16 68.888 264.28 68.968C264.408 69.048 264.572 69.116 264.772 69.172C264.98 69.22 265.236 69.264 265.54 69.304C265.932 69.352 266.28 69.424 266.584 69.52C266.888 69.608 267.144 69.732 267.352 69.892C267.56 70.044 267.716 70.232 267.82 70.456C267.932 70.68 267.988 70.948 267.988 71.26C267.988 71.516 267.932 71.756 267.82 71.98C267.716 72.204 267.556 72.4 267.34 72.568C267.124 72.736 266.848 72.872 266.512 72.976C266.184 73.072 265.796 73.12 265.348 73.12ZM269.491 64.6H270.547V69.568L273.475 66.64H274.771L272.131 69.268L275.011 73H273.667L271.375 70L270.547 70.78V73H269.491V64.6Z" fill="#2B2B2B"/>
<circle cx="291.5" cy="68" r="4" fill="#17185B"/>
<path d="M309.272 70.912H305.72L304.916 73H303.74L306.956 64.6H308.084L311.3 73H310.076L309.272 70.912ZM306.092 69.928H308.9L307.496 66.04L306.092 69.928ZM312.739 64.6H315.619C316.171 64.6 316.651 64.664 317.059 64.792C317.467 64.92 317.803 65.1 318.067 65.332C318.339 65.556 318.539 65.828 318.667 66.148C318.795 66.46 318.859 66.804 318.859 67.18C318.859 67.556 318.795 67.904 318.667 68.224C318.539 68.536 318.339 68.808 318.067 69.04C317.803 69.264 317.467 69.44 317.059 69.568C316.651 69.696 316.171 69.76 315.619 69.76H313.867V73H312.739V64.6ZM315.559 68.776C315.959 68.776 316.295 68.74 316.567 68.668C316.847 68.588 317.071 68.48 317.239 68.344C317.415 68.208 317.539 68.04 317.611 67.84C317.691 67.64 317.731 67.42 317.731 67.18C317.731 66.94 317.691 66.72 317.611 66.52C317.539 66.32 317.415 66.152 317.239 66.016C317.071 65.88 316.847 65.776 316.567 65.704C316.295 65.624 315.959 65.584 315.559 65.584H313.867V68.776H315.559ZM320.722 64.6H321.85V73H320.722V64.6ZM327.136 66.64H328.192V71.44L331.48 66.64H332.536V73H331.48V68.2L328.192 73H327.136V66.64ZM334.46 66.64H335.516V69.292H338.804V66.64H339.86V73H338.804V70.228H335.516V73H334.46V66.64ZM343.236 67.576H341.064V66.64H346.464V67.576H344.292V73H343.236V67.576ZM350.19 73.12C349.782 73.12 349.394 73.056 349.026 72.928C348.658 72.8 348.334 72.604 348.054 72.34C347.774 72.068 347.55 71.728 347.382 71.32C347.214 70.912 347.13 70.432 347.13 69.88V69.64C347.13 69.112 347.21 68.656 347.37 68.272C347.53 67.88 347.742 67.556 348.006 67.3C348.278 67.036 348.59 66.84 348.942 66.712C349.302 66.584 349.678 66.52 350.07 66.52C351.006 66.52 351.73 66.776 352.242 67.288C352.754 67.8 353.01 68.524 353.01 69.46V70.132H348.186C348.186 70.508 348.246 70.824 348.366 71.08C348.486 71.336 348.642 71.544 348.834 71.704C349.026 71.864 349.238 71.98 349.47 72.052C349.71 72.124 349.95 72.16 350.19 72.16C350.67 72.16 351.038 72.08 351.294 71.92C351.558 71.76 351.746 71.54 351.858 71.26H352.89C352.826 71.564 352.71 71.832 352.542 72.064C352.382 72.296 352.182 72.492 351.942 72.652C351.71 72.804 351.442 72.92 351.138 73C350.842 73.08 350.526 73.12 350.19 73.12ZM350.13 67.48C349.882 67.48 349.642 67.516 349.41 67.588C349.178 67.652 348.97 67.76 348.786 67.912C348.61 68.056 348.466 68.24 348.354 68.464C348.242 68.688 348.186 68.956 348.186 69.268H352.014C352.006 68.94 351.95 68.664 351.846 68.44C351.75 68.208 351.618 68.024 351.45 67.888C351.282 67.744 351.082 67.64 350.85 67.576C350.626 67.512 350.386 67.48 350.13 67.48ZM354.511 66.64H358.831V67.576H355.567V73H354.511V66.64ZM360.03 66.64H361.014V67.84C361.23 67.416 361.53 67.092 361.914 66.868C362.306 66.636 362.758 66.52 363.27 66.52C364.07 66.52 364.71 66.784 365.19 67.312C365.67 67.832 365.91 68.608 365.91 69.64V69.88C365.91 70.424 365.846 70.9 365.718 71.308C365.59 71.708 365.41 72.044 365.178 72.316C364.946 72.58 364.666 72.78 364.338 72.916C364.018 73.052 363.662 73.12 363.27 73.12C362.726 73.12 362.27 73 361.902 72.76C361.542 72.52 361.27 72.22 361.086 71.86V75.4H360.03V66.64ZM363.03 72.184C363.286 72.184 363.526 72.136 363.75 72.04C363.974 71.936 364.166 71.788 364.326 71.596C364.494 71.404 364.622 71.164 364.71 70.876C364.806 70.588 364.854 70.256 364.854 69.88V69.64C364.854 69.296 364.806 68.988 364.71 68.716C364.622 68.444 364.494 68.216 364.326 68.032C364.166 67.84 363.974 67.696 363.75 67.6C363.526 67.504 363.286 67.456 363.03 67.456C362.742 67.456 362.478 67.504 362.238 67.6C361.998 67.688 361.794 67.816 361.626 67.984C361.458 68.144 361.326 68.336 361.23 68.56C361.134 68.784 361.086 69.024 361.086 69.28V70.24C361.086 70.528 361.134 70.792 361.23 71.032C361.326 71.272 361.458 71.476 361.626 71.644C361.794 71.812 361.998 71.944 362.238 72.04C362.478 72.136 362.742 72.184 363.03 72.184ZM369.225 73.12C368.873 73.12 368.561 73.072 368.289 72.976C368.025 72.872 367.801 72.732 367.617 72.556C367.433 72.38 367.293 72.172 367.197 71.932C367.101 71.692 367.053 71.428 367.053 71.14C367.053 70.508 367.237 70.052 367.605 69.772C367.981 69.492 368.517 69.352 369.213 69.352H371.277V68.92C371.277 68.376 371.153 68 370.905 67.792C370.665 67.584 370.301 67.48 369.813 67.48C369.357 67.48 369.025 67.568 368.817 67.744C368.609 67.912 368.493 68.104 368.469 68.32H367.413C367.429 68.064 367.497 67.828 367.617 67.612C367.745 67.388 367.913 67.196 368.121 67.036C368.337 66.876 368.593 66.752 368.889 66.664C369.185 66.568 369.513 66.52 369.873 66.52C370.625 66.52 371.221 66.7 371.661 67.06C372.109 67.412 372.333 67.992 372.333 68.8V71.38C372.333 71.716 372.333 72.012 372.333 72.268C372.341 72.516 372.361 72.76 372.393 73H371.469C371.445 72.816 371.429 72.644 371.421 72.484C371.413 72.316 371.409 72.128 371.409 71.92C371.241 72.256 370.969 72.54 370.593 72.772C370.217 73.004 369.761 73.12 369.225 73.12ZM369.453 72.16C369.701 72.16 369.933 72.128 370.149 72.064C370.373 71.992 370.569 71.892 370.737 71.764C370.905 71.628 371.037 71.464 371.133 71.272C371.229 71.08 371.277 70.856 371.277 70.6V70.168H369.393C369.001 70.168 368.693 70.248 368.469 70.408C368.245 70.56 368.133 70.804 368.133 71.14C368.133 71.436 368.237 71.68 368.445 71.872C368.661 72.064 368.997 72.16 369.453 72.16ZM379.37 73H374.198V66.64H375.254V72.064H378.302V66.64H379.358V72.064H380.378V74.5H379.37V73ZM381.64 66.64H382.696V71.44L385.984 66.64H387.04V73H385.984V68.2L382.696 73H381.64V66.64ZM390.212 70.48C389.684 70.36 389.304 70.144 389.072 69.832C388.84 69.512 388.724 69.104 388.724 68.608C388.724 67.984 388.912 67.5 389.288 67.156C389.672 66.812 390.284 66.64 391.124 66.64H393.884V73H392.828V70.576H391.208L389.66 73H388.484L390.212 70.48ZM389.78 68.608C389.78 68.944 389.876 69.2 390.068 69.376C390.268 69.552 390.6 69.64 391.064 69.64H392.828V67.576H391.064C390.6 67.576 390.268 67.664 390.068 67.84C389.876 68.016 389.78 68.272 389.78 68.608Z" fill="#2B2B2B"/>
<path d="M33.16 240.016H35.164V233.836L33.16 235.264V234.04L35.188 232.6H36.316V240.016H37.96V241H33.16V240.016ZM42.0442 241.12C41.6362 241.12 41.2482 241.052 40.8802 240.916C40.5202 240.78 40.2042 240.548 39.9322 240.22C39.6602 239.884 39.4442 239.44 39.2842 238.888C39.1242 238.328 39.0442 237.632 39.0442 236.8V236.56C39.0442 235.784 39.1242 235.136 39.2842 234.616C39.4442 234.096 39.6602 233.68 39.9322 233.368C40.2042 233.048 40.5202 232.82 40.8802 232.684C41.2482 232.548 41.6362 232.48 42.0442 232.48C42.4522 232.48 42.8362 232.548 43.1962 232.684C43.5642 232.82 43.8842 233.048 44.1562 233.368C44.4282 233.68 44.6442 234.096 44.8042 234.616C44.9642 235.136 45.0442 235.784 45.0442 236.56V236.8C45.0442 237.632 44.9642 238.328 44.8042 238.888C44.6442 239.44 44.4282 239.884 44.1562 240.22C43.8842 240.548 43.5642 240.78 43.1962 240.916C42.8362 241.052 42.4522 241.12 42.0442 241.12ZM42.0442 240.136C42.2922 240.136 42.5282 240.092 42.7522 240.004C42.9842 239.908 43.1842 239.74 43.3522 239.5C43.5282 239.252 43.6642 238.912 43.7602 238.48C43.8642 238.048 43.9162 237.488 43.9162 236.8V236.56C43.9162 235.936 43.8642 235.424 43.7602 235.024C43.6642 234.624 43.5282 234.308 43.3522 234.076C43.1842 233.844 42.9842 233.684 42.7522 233.596C42.5282 233.508 42.2922 233.464 42.0442 233.464C41.7882 233.464 41.5482 233.508 41.3242 233.596C41.1002 233.684 40.9002 233.844 40.7242 234.076C40.5562 234.308 40.4202 234.624 40.3162 235.024C40.2202 235.424 40.1722 235.936 40.1722 236.56V236.8C40.1722 237.488 40.2202 238.048 40.3162 238.48C40.4202 238.912 40.5562 239.252 40.7242 239.5C40.9002 239.74 41.1002 239.908 41.3242 240.004C41.5482 240.092 41.7882 240.136 42.0442 240.136ZM49.4856 241.12C49.0776 241.12 48.6896 241.052 48.3216 240.916C47.9616 240.78 47.6456 240.548 47.3736 240.22C47.1016 239.884 46.8856 239.44 46.7256 238.888C46.5656 238.328 46.4856 237.632 46.4856 236.8V236.56C46.4856 235.784 46.5656 235.136 46.7256 234.616C46.8856 234.096 47.1016 233.68 47.3736 233.368C47.6456 233.048 47.9616 232.82 48.3216 232.684C48.6896 232.548 49.0776 232.48 49.4856 232.48C49.8936 232.48 50.2776 232.548 50.6376 232.684C51.0056 232.82 51.3256 233.048 51.5976 233.368C51.8696 233.68 52.0856 234.096 52.2456 234.616C52.4056 235.136 52.4856 235.784 52.4856 236.56V236.8C52.4856 237.632 52.4056 238.328 52.2456 238.888C52.0856 239.44 51.8696 239.884 51.5976 240.22C51.3256 240.548 51.0056 240.78 50.6376 240.916C50.2776 241.052 49.8936 241.12 49.4856 241.12ZM49.4856 240.136C49.7336 240.136 49.9696 240.092 50.1936 240.004C50.4256 239.908 50.6256 239.74 50.7936 239.5C50.9696 239.252 51.1056 238.912 51.2016 238.48C51.3056 238.048 51.3576 237.488 51.3576 236.8V236.56C51.3576 235.936 51.3056 235.424 51.2016 235.024C51.1056 234.624 50.9696 234.308 50.7936 234.076C50.6256 233.844 50.4256 233.684 50.1936 233.596C49.9696 233.508 49.7336 233.464 49.4856 233.464C49.2296 233.464 48.9896 233.508 48.7656 233.596C48.5416 233.684 48.3416 233.844 48.1656 234.076C47.9976 234.308 47.8616 234.624 47.7576 235.024C47.6616 235.424 47.6136 235.936 47.6136 236.56V236.8C47.6136 237.488 47.6616 238.048 47.7576 238.48C47.8616 238.912 47.9976 239.252 48.1656 239.5C48.3416 239.74 48.5416 239.908 48.7656 240.004C48.9896 240.092 49.2296 240.136 49.4856 240.136Z" fill="#8F8FA0"/>
<path d="M32.98 206.076L36.34 203.16C36.596 202.944 36.804 202.748 36.964 202.572C37.132 202.396 37.264 202.232 37.36 202.08C37.456 201.92 37.52 201.764 37.552 201.612C37.592 201.46 37.612 201.296 37.612 201.12C37.612 200.648 37.472 200.26 37.192 199.956C36.912 199.644 36.528 199.488 36.04 199.488C35.456 199.488 35.008 199.648 34.696 199.968C34.384 200.28 34.228 200.724 34.228 201.3H33.1C33.1 200.892 33.168 200.516 33.304 200.172C33.448 199.82 33.648 199.52 33.904 199.272C34.168 199.024 34.48 198.832 34.84 198.696C35.2 198.552 35.6 198.48 36.04 198.48C36.464 198.48 36.844 198.548 37.18 198.684C37.516 198.812 37.8 198.996 38.032 199.236C38.264 199.468 38.44 199.744 38.56 200.064C38.68 200.384 38.74 200.736 38.74 201.12C38.74 201.408 38.696 201.676 38.608 201.924C38.52 202.172 38.396 202.408 38.236 202.632C38.084 202.856 37.896 203.076 37.672 203.292C37.456 203.5 37.216 203.716 36.952 203.94L34.444 206.016H38.86V207H32.98V206.076ZM43.1809 207.12C42.7729 207.12 42.3849 207.052 42.0169 206.916C41.6569 206.78 41.3409 206.548 41.0689 206.22C40.7969 205.884 40.5809 205.44 40.4209 204.888C40.2609 204.328 40.1809 203.632 40.1809 202.8V202.56C40.1809 201.784 40.2609 201.136 40.4209 200.616C40.5809 200.096 40.7969 199.68 41.0689 199.368C41.3409 199.048 41.6569 198.82 42.0169 198.684C42.3849 198.548 42.7729 198.48 43.1809 198.48C43.5889 198.48 43.9729 198.548 44.3329 198.684C44.7009 198.82 45.0209 199.048 45.2929 199.368C45.5649 199.68 45.7809 200.096 45.9409 200.616C46.1009 201.136 46.1809 201.784 46.1809 202.56V202.8C46.1809 203.632 46.1009 204.328 45.9409 204.888C45.7809 205.44 45.5649 205.884 45.2929 206.22C45.0209 206.548 44.7009 206.78 44.3329 206.916C43.9729 207.052 43.5889 207.12 43.1809 207.12ZM43.1809 206.136C43.4289 206.136 43.6649 206.092 43.8889 206.004C44.1209 205.908 44.3209 205.74 44.4889 205.5C44.6649 205.252 44.8009 204.912 44.8969 204.48C45.0009 204.048 45.0529 203.488 45.0529 202.8V202.56C45.0529 201.936 45.0009 201.424 44.8969 201.024C44.8009 200.624 44.6649 200.308 44.4889 200.076C44.3209 199.844 44.1209 199.684 43.8889 199.596C43.6649 199.508 43.4289 199.464 43.1809 199.464C42.9249 199.464 42.6849 199.508 42.4609 199.596C42.2369 199.684 42.0369 199.844 41.8609 200.076C41.6929 200.308 41.5569 200.624 41.4529 201.024C41.3569 201.424 41.3089 201.936 41.3089 202.56V202.8C41.3089 203.488 41.3569 204.048 41.4529 204.48C41.5569 204.912 41.6929 205.252 41.8609 205.5C42.0369 205.74 42.2369 205.908 42.4609 206.004C42.6849 206.092 42.9249 206.136 43.1809 206.136ZM50.6223 207.12C50.2143 207.12 49.8263 207.052 49.4583 206.916C49.0983 206.78 48.7823 206.548 48.5103 206.22C48.2383 205.884 48.0223 205.44 47.8623 204.888C47.7023 204.328 47.6223 203.632 47.6223 202.8V202.56C47.6223 201.784 47.7023 201.136 47.8623 200.616C48.0223 200.096 48.2383 199.68 48.5103 199.368C48.7823 199.048 49.0983 198.82 49.4583 198.684C49.8263 198.548 50.2143 198.48 50.6223 198.48C51.0303 198.48 51.4143 198.548 51.7743 198.684C52.1423 198.82 52.4623 199.048 52.7343 199.368C53.0063 199.68 53.2223 200.096 53.3823 200.616C53.5423 201.136 53.6223 201.784 53.6223 202.56V202.8C53.6223 203.632 53.5423 204.328 53.3823 204.888C53.2223 205.44 53.0063 205.884 52.7343 206.22C52.4623 206.548 52.1423 206.78 51.7743 206.916C51.4143 207.052 51.0303 207.12 50.6223 207.12ZM50.6223 206.136C50.8703 206.136 51.1063 206.092 51.3303 206.004C51.5623 205.908 51.7623 205.74 51.9303 205.5C52.1063 205.252 52.2423 204.912 52.3383 204.48C52.4423 204.048 52.4943 203.488 52.4943 202.8V202.56C52.4943 201.936 52.4423 201.424 52.3383 201.024C52.2423 200.624 52.1063 200.308 51.9303 200.076C51.7623 199.844 51.5623 199.684 51.3303 199.596C51.1063 199.508 50.8703 199.464 50.6223 199.464C50.3663 199.464 50.1263 199.508 49.9023 199.596C49.6783 199.684 49.4783 199.844 49.3023 200.076C49.1343 200.308 48.9983 200.624 48.8943 201.024C48.7983 201.424 48.7503 201.936 48.7503 202.56V202.8C48.7503 203.488 48.7983 204.048 48.8943 204.48C48.9983 204.912 49.1343 205.252 49.3023 205.5C49.4783 205.74 49.6783 205.908 49.9023 206.004C50.1263 206.092 50.3663 206.136 50.6223 206.136Z" fill="#8F8FA0"/>
<path d="M34.92 172.12C34.464 172.12 34.056 172.06 33.696 171.94C33.344 171.812 33.044 171.64 32.796 171.424C32.548 171.208 32.36 170.956 32.232 170.668C32.104 170.372 32.04 170.056 32.04 169.72H33.168C33.168 170.128 33.308 170.464 33.588 170.728C33.868 170.984 34.312 171.112 34.92 171.112C35.528 171.112 35.972 170.98 36.252 170.716C36.532 170.444 36.672 170.092 36.672 169.66C36.672 169.212 36.528 168.852 36.24 168.58C35.96 168.3 35.52 168.16 34.92 168.16H34.02V167.2H34.92C35.496 167.2 35.912 167.08 36.168 166.84C36.424 166.592 36.552 166.252 36.552 165.82C36.552 165.404 36.428 165.08 36.18 164.848C35.932 164.608 35.512 164.488 34.92 164.488C34.352 164.488 33.936 164.612 33.672 164.86C33.416 165.1 33.288 165.4 33.288 165.76H32.16C32.16 165.448 32.22 165.152 32.34 164.872C32.468 164.592 32.648 164.352 32.88 164.152C33.12 163.944 33.408 163.78 33.744 163.66C34.088 163.54 34.48 163.48 34.92 163.48C35.36 163.48 35.752 163.54 36.096 163.66C36.44 163.78 36.728 163.94 36.96 164.14C37.2 164.34 37.38 164.576 37.5 164.848C37.62 165.12 37.68 165.404 37.68 165.7C37.68 166.18 37.552 166.588 37.296 166.924C37.048 167.252 36.696 167.484 36.24 167.62C36.72 167.772 37.1 168.02 37.38 168.364C37.66 168.708 37.8 169.18 37.8 169.78C37.8 170.1 37.736 170.404 37.608 170.692C37.48 170.972 37.292 171.22 37.044 171.436C36.804 171.644 36.504 171.812 36.144 171.94C35.784 172.06 35.376 172.12 34.92 172.12ZM42.2395 172.12C41.8315 172.12 41.4435 172.052 41.0755 171.916C40.7155 171.78 40.3995 171.548 40.1275 171.22C39.8555 170.884 39.6395 170.44 39.4795 169.888C39.3195 169.328 39.2395 168.632 39.2395 167.8V167.56C39.2395 166.784 39.3195 166.136 39.4795 165.616C39.6395 165.096 39.8555 164.68 40.1275 164.368C40.3995 164.048 40.7155 163.82 41.0755 163.684C41.4435 163.548 41.8315 163.48 42.2395 163.48C42.6475 163.48 43.0315 163.548 43.3915 163.684C43.7595 163.82 44.0795 164.048 44.3515 164.368C44.6235 164.68 44.8395 165.096 44.9995 165.616C45.1595 166.136 45.2395 166.784 45.2395 167.56V167.8C45.2395 168.632 45.1595 169.328 44.9995 169.888C44.8395 170.44 44.6235 170.884 44.3515 171.22C44.0795 171.548 43.7595 171.78 43.3915 171.916C43.0315 172.052 42.6475 172.12 42.2395 172.12ZM42.2395 171.136C42.4875 171.136 42.7235 171.092 42.9475 171.004C43.1795 170.908 43.3795 170.74 43.5475 170.5C43.7235 170.252 43.8595 169.912 43.9555 169.48C44.0595 169.048 44.1115 168.488 44.1115 167.8V167.56C44.1115 166.936 44.0595 166.424 43.9555 166.024C43.8595 165.624 43.7235 165.308 43.5475 165.076C43.3795 164.844 43.1795 164.684 42.9475 164.596C42.7235 164.508 42.4875 164.464 42.2395 164.464C41.9835 164.464 41.7435 164.508 41.5195 164.596C41.2955 164.684 41.0955 164.844 40.9195 165.076C40.7515 165.308 40.6155 165.624 40.5115 166.024C40.4155 166.424 40.3675 166.936 40.3675 167.56V167.8C40.3675 168.488 40.4155 169.048 40.5115 169.48C40.6155 169.912 40.7515 170.252 40.9195 170.5C41.0955 170.74 41.2955 170.908 41.5195 171.004C41.7435 171.092 41.9835 171.136 42.2395 171.136ZM49.6809 172.12C49.2729 172.12 48.8849 172.052 48.5169 171.916C48.1569 171.78 47.8409 171.548 47.5689 171.22C47.2969 170.884 47.0809 170.44 46.9209 169.888C46.7609 169.328 46.6809 168.632 46.6809 167.8V167.56C46.6809 166.784 46.7609 166.136 46.9209 165.616C47.0809 165.096 47.2969 164.68 47.5689 164.368C47.8409 164.048 48.1569 163.82 48.5169 163.684C48.8849 163.548 49.2729 163.48 49.6809 163.48C50.0889 163.48 50.4729 163.548 50.8329 163.684C51.2009 163.82 51.5209 164.048 51.7929 164.368C52.0649 164.68 52.2809 165.096 52.4409 165.616C52.6009 166.136 52.6809 166.784 52.6809 167.56V167.8C52.6809 168.632 52.6009 169.328 52.4409 169.888C52.2809 170.44 52.0649 170.884 51.7929 171.22C51.5209 171.548 51.2009 171.78 50.8329 171.916C50.4729 172.052 50.0889 172.12 49.6809 172.12ZM49.6809 171.136C49.9289 171.136 50.1649 171.092 50.3889 171.004C50.6209 170.908 50.8209 170.74 50.9889 170.5C51.1649 170.252 51.3009 169.912 51.3969 169.48C51.5009 169.048 51.5529 168.488 51.5529 167.8V167.56C51.5529 166.936 51.5009 166.424 51.3969 166.024C51.3009 165.624 51.1649 165.308 50.9889 165.076C50.8209 164.844 50.6209 164.684 50.3889 164.596C50.1649 164.508 49.9289 164.464 49.6809 164.464C49.4249 164.464 49.1849 164.508 48.9609 164.596C48.7369 164.684 48.5369 164.844 48.3609 165.076C48.1929 165.308 48.0569 165.624 47.9529 166.024C47.8569 166.424 47.8089 166.936 47.8089 167.56V167.8C47.8089 168.488 47.8569 169.048 47.9529 169.48C48.0569 169.912 48.1929 170.252 48.3609 170.5C48.5369 170.74 48.7369 170.908 48.9609 171.004C49.1849 171.092 49.4249 171.136 49.6809 171.136Z" fill="#8F8FA0"/>
<path d="M36.012 135.972H31.74V135.108L35.892 129.6H37.14V134.988H38.22V135.972H37.14V138H36.012V135.972ZM36.012 134.988V130.92L32.94 134.988H36.012ZM42.5442 138.12C42.1362 138.12 41.7482 138.052 41.3802 137.916C41.0202 137.78 40.7042 137.548 40.4322 137.22C40.1602 136.884 39.9442 136.44 39.7842 135.888C39.6242 135.328 39.5442 134.632 39.5442 133.8V133.56C39.5442 132.784 39.6242 132.136 39.7842 131.616C39.9442 131.096 40.1602 130.68 40.4322 130.368C40.7042 130.048 41.0202 129.82 41.3802 129.684C41.7482 129.548 42.1362 129.48 42.5442 129.48C42.9522 129.48 43.3362 129.548 43.6962 129.684C44.0642 129.82 44.3842 130.048 44.6562 130.368C44.9282 130.68 45.1442 131.096 45.3042 131.616C45.4642 132.136 45.5442 132.784 45.5442 133.56V133.8C45.5442 134.632 45.4642 135.328 45.3042 135.888C45.1442 136.44 44.9282 136.884 44.6562 137.22C44.3842 137.548 44.0642 137.78 43.6962 137.916C43.3362 138.052 42.9522 138.12 42.5442 138.12ZM42.5442 137.136C42.7922 137.136 43.0282 137.092 43.2522 137.004C43.4842 136.908 43.6842 136.74 43.8522 136.5C44.0282 136.252 44.1642 135.912 44.2602 135.48C44.3642 135.048 44.4162 134.488 44.4162 133.8V133.56C44.4162 132.936 44.3642 132.424 44.2602 132.024C44.1642 131.624 44.0282 131.308 43.8522 131.076C43.6842 130.844 43.4842 130.684 43.2522 130.596C43.0282 130.508 42.7922 130.464 42.5442 130.464C42.2882 130.464 42.0482 130.508 41.8242 130.596C41.6002 130.684 41.4002 130.844 41.2242 131.076C41.0562 131.308 40.9202 131.624 40.8162 132.024C40.7202 132.424 40.6722 132.936 40.6722 133.56V133.8C40.6722 134.488 40.7202 135.048 40.8162 135.48C40.9202 135.912 41.0562 136.252 41.2242 136.5C41.4002 136.74 41.6002 136.908 41.8242 137.004C42.0482 137.092 42.2882 137.136 42.5442 137.136ZM49.9856 138.12C49.5776 138.12 49.1896 138.052 48.8216 137.916C48.4616 137.78 48.1456 137.548 47.8736 137.22C47.6016 136.884 47.3856 136.44 47.2256 135.888C47.0656 135.328 46.9856 134.632 46.9856 133.8V133.56C46.9856 132.784 47.0656 132.136 47.2256 131.616C47.3856 131.096 47.6016 130.68 47.8736 130.368C48.1456 130.048 48.4616 129.82 48.8216 129.684C49.1896 129.548 49.5776 129.48 49.9856 129.48C50.3936 129.48 50.7776 129.548 51.1376 129.684C51.5056 129.82 51.8256 130.048 52.0976 130.368C52.3696 130.68 52.5856 131.096 52.7456 131.616C52.9056 132.136 52.9856 132.784 52.9856 133.56V133.8C52.9856 134.632 52.9056 135.328 52.7456 135.888C52.5856 136.44 52.3696 136.884 52.0976 137.22C51.8256 137.548 51.5056 137.78 51.1376 137.916C50.7776 138.052 50.3936 138.12 49.9856 138.12ZM49.9856 137.136C50.2336 137.136 50.4696 137.092 50.6936 137.004C50.9256 136.908 51.1256 136.74 51.2936 136.5C51.4696 136.252 51.6056 135.912 51.7016 135.48C51.8056 135.048 51.8576 134.488 51.8576 133.8V133.56C51.8576 132.936 51.8056 132.424 51.7016 132.024C51.6056 131.624 51.4696 131.308 51.2936 131.076C51.1256 130.844 50.9256 130.684 50.6936 130.596C50.4696 130.508 50.2336 130.464 49.9856 130.464C49.7296 130.464 49.4896 130.508 49.2656 130.596C49.0416 130.684 48.8416 130.844 48.6656 131.076C48.4976 131.308 48.3616 131.624 48.2576 132.024C48.1616 132.424 48.1136 132.936 48.1136 133.56V133.8C48.1136 134.488 48.1616 135.048 48.2576 135.48C48.3616 135.912 48.4976 136.252 48.6656 136.5C48.8416 136.74 49.0416 136.908 49.2656 137.004C49.4896 137.092 49.7296 137.136 49.9856 137.136Z" fill="#8F8FA0"/>
<path d="M34.98 104.12C34.524 104.12 34.128 104.06 33.792 103.94C33.456 103.812 33.172 103.648 32.94 103.448C32.716 103.24 32.544 103.008 32.424 102.752C32.304 102.496 32.236 102.232 32.22 101.96H33.348C33.388 102.264 33.548 102.532 33.828 102.764C34.116 102.996 34.5 103.112 34.98 103.112C35.524 103.112 35.952 102.944 36.264 102.608C36.576 102.264 36.732 101.788 36.732 101.18C36.732 100.836 36.68 100.54 36.576 100.292C36.48 100.044 36.348 99.844 36.18 99.692C36.02 99.54 35.836 99.428 35.628 99.356C35.42 99.284 35.204 99.248 34.98 99.248C34.548 99.248 34.208 99.328 33.96 99.488C33.72 99.648 33.536 99.832 33.408 100.04H32.4V95.6H37.38V96.584H33.528V98.924C33.944 98.468 34.488 98.24 35.16 98.24C35.992 98.24 36.648 98.492 37.128 98.996C37.616 99.5 37.86 100.228 37.86 101.18C37.86 101.628 37.788 102.036 37.644 102.404C37.508 102.764 37.312 103.072 37.056 103.328C36.808 103.584 36.504 103.78 36.144 103.916C35.792 104.052 35.404 104.12 34.98 104.12ZM42.1809 104.12C41.7729 104.12 41.3849 104.052 41.0169 103.916C40.6569 103.78 40.3409 103.548 40.0689 103.22C39.7969 102.884 39.5809 102.44 39.4209 101.888C39.2609 101.328 39.1809 100.632 39.1809 99.8V99.56C39.1809 98.784 39.2609 98.136 39.4209 97.616C39.5809 97.096 39.7969 96.68 40.0689 96.368C40.3409 96.048 40.6569 95.82 41.0169 95.684C41.3849 95.548 41.7729 95.48 42.1809 95.48C42.5889 95.48 42.9729 95.548 43.3329 95.684C43.7009 95.82 44.0209 96.048 44.2929 96.368C44.5649 96.68 44.7809 97.096 44.9409 97.616C45.1009 98.136 45.1809 98.784 45.1809 99.56V99.8C45.1809 100.632 45.1009 101.328 44.9409 101.888C44.7809 102.44 44.5649 102.884 44.2929 103.22C44.0209 103.548 43.7009 103.78 43.3329 103.916C42.9729 104.052 42.5889 104.12 42.1809 104.12ZM42.1809 103.136C42.4289 103.136 42.6649 103.092 42.8889 103.004C43.1209 102.908 43.3209 102.74 43.4889 102.5C43.6649 102.252 43.8009 101.912 43.8969 101.48C44.0009 101.048 44.0529 100.488 44.0529 99.8V99.56C44.0529 98.936 44.0009 98.424 43.8969 98.024C43.8009 97.624 43.6649 97.308 43.4889 97.076C43.3209 96.844 43.1209 96.684 42.8889 96.596C42.6649 96.508 42.4289 96.464 42.1809 96.464C41.9249 96.464 41.6849 96.508 41.4609 96.596C41.2369 96.684 41.0369 96.844 40.8609 97.076C40.6929 97.308 40.5569 97.624 40.4529 98.024C40.3569 98.424 40.3089 98.936 40.3089 99.56V99.8C40.3089 100.488 40.3569 101.048 40.4529 101.48C40.5569 101.912 40.6929 102.252 40.8609 102.5C41.0369 102.74 41.2369 102.908 41.4609 103.004C41.6849 103.092 41.9249 103.136 42.1809 103.136ZM49.6223 104.12C49.2143 104.12 48.8263 104.052 48.4583 103.916C48.0983 103.78 47.7823 103.548 47.5103 103.22C47.2383 102.884 47.0223 102.44 46.8623 101.888C46.7023 101.328 46.6223 100.632 46.6223 99.8V99.56C46.6223 98.784 46.7023 98.136 46.8623 97.616C47.0223 97.096 47.2383 96.68 47.5103 96.368C47.7823 96.048 48.0983 95.82 48.4583 95.684C48.8263 95.548 49.2143 95.48 49.6223 95.48C50.0303 95.48 50.4143 95.548 50.7743 95.684C51.1423 95.82 51.4623 96.048 51.7343 96.368C52.0063 96.68 52.2223 97.096 52.3823 97.616C52.5423 98.136 52.6223 98.784 52.6223 99.56V99.8C52.6223 100.632 52.5423 101.328 52.3823 101.888C52.2223 102.44 52.0063 102.884 51.7343 103.22C51.4623 103.548 51.1423 103.78 50.7743 103.916C50.4143 104.052 50.0303 104.12 49.6223 104.12ZM49.6223 103.136C49.8703 103.136 50.1063 103.092 50.3303 103.004C50.5623 102.908 50.7623 102.74 50.9303 102.5C51.1063 102.252 51.2423 101.912 51.3383 101.48C51.4423 101.048 51.4943 100.488 51.4943 99.8V99.56C51.4943 98.936 51.4423 98.424 51.3383 98.024C51.2423 97.624 51.1063 97.308 50.9303 97.076C50.7623 96.844 50.5623 96.684 50.3303 96.596C50.1063 96.508 49.8703 96.464 49.6223 96.464C49.3663 96.464 49.1263 96.508 48.9023 96.596C48.6783 96.684 48.4783 96.844 48.3023 97.076C48.1343 97.308 47.9983 97.624 47.8943 98.024C47.7983 98.424 47.7503 98.936 47.7503 99.56V99.8C47.7503 100.488 47.7983 101.048 47.8943 101.48C47.9983 101.912 48.1343 102.252 48.3023 102.5C48.4783 102.74 48.6783 102.908 48.9023 103.004C49.1263 103.092 49.3663 103.136 49.6223 103.136Z" fill="#8F8FA0"/>
<line x1="64" y1="101.5" x2="401" y2="101.5" stroke="#EFEFF8"/>
<line x1="64" y1="135.5" x2="401" y2="135.5" stroke="#EFEFF8"/>
<line x1="64" y1="169.5" x2="401" y2="169.5" stroke="#EFEFF8"/>
<line x1="64" y1="203.5" x2="401" y2="203.5" stroke="#EFEFF8"/>
<line x1="64" y1="237.5" x2="401" y2="237.5" stroke="#EFEFF8"/>
<path d="M64 170C65.901 169.383 71.1548 165.787 76.9615 156.342C84.22 144.536 91.9969 152.407 96.6631 150.092C101.329 147.777 115.068 115.6 122.586 116.294C131.918 116.294 131.4 132.73 149.287 133.425C167.174 134.119 175.469 133.888 182.987 143.842C190.505 153.796 214.354 147.546 216.168 143.842C217.983 140.138 229.648 120.461 238.722 121.156C247.795 121.85 250.128 135.277 264.904 133.425C279.68 131.573 282.272 104.951 291.086 104.257C299.9 103.562 305.862 104.257 308.195 106.572C310.528 108.887 310.269 110.276 318.305 113.285C326.342 116.294 326.082 121.156 331.526 121.156C336.97 121.156 353.042 120.23 358.227 123.008C363.412 125.785 366.004 132.73 381.298 135.277C393.534 137.314 399.531 137.514 401 137.36" stroke="#F35D66" stroke-width="2" stroke-linecap="round"/>
<path d="M64 190C65.3002 190 69.0446 188.88 73.6211 184.398C79.3418 178.796 86.8827 178.796 88.4429 178.796C90.0031 178.796 92.8634 181.088 98.5841 178.796C104.305 176.504 116.786 166.828 124.587 168.356C132.388 169.883 135.769 178.796 142.789 178.796C148.406 178.796 164.372 176.589 171.653 175.485C174.253 175.485 181.378 174.772 189.075 171.92C198.696 168.356 215.858 157.151 227.299 158.679C238.741 160.207 249.922 175.74 258.243 177.268C266.564 178.796 279.566 175.231 282.166 170.647C284.766 166.064 293.867 165.809 297.508 163.008C301.148 160.207 307.129 155.114 314.41 156.133C321.691 157.151 324.291 160.716 340.413 160.971C356.535 161.226 358.355 164.027 365.376 174.212C372.397 184.398 394.499 177.777 401 171.92" stroke="#0AC4B4" stroke-width="2" stroke-linecap="round"/>
<path d="M64 211.621C65.9844 211.709 70.7296 212.255 73.8356 213.733C77.7181 215.58 89.1068 220.066 99.2012 216.899C109.296 213.733 113.178 208.455 122.237 208.983C131.296 209.51 144.497 209.774 153.297 210.038C162.098 210.302 176.592 212.677 184.357 210.83C192.122 208.983 199.111 204.496 206.876 205.024C214.641 205.552 222.406 204.233 226.806 202.385C231.206 200.538 236.641 200.538 241.3 202.385C245.959 204.233 250.877 208.191 262.007 208.191C273.137 208.191 288.667 206.344 295.655 208.191C302.644 210.038 310.667 214.26 320.503 210.83C330.339 207.399 341.986 201.066 352.339 202.385C362.693 203.705 364.505 208.191 370.717 208.191C376.929 208.191 393.753 208.455 401 203.441" stroke="#356FEC" stroke-width="2" stroke-linecap="round"/>
<path d="M64 230.735C67.1901 230.735 75.4328 230.735 82.8822 230.735C92.194 230.735 100.988 232.971 111.335 230.735C121.681 228.499 133.838 228.747 142.633 229.741C151.427 230.735 160.222 228.996 165.136 227.753C170.051 226.511 192.813 227.008 202.383 226.759C211.954 226.511 217.127 226.262 223.335 224.523C229.543 222.784 234.716 221.79 243.51 225.765C252.305 229.741 257.737 230.486 270.67 230.486C283.603 230.486 287.741 228.996 299.64 230.486C311.538 231.977 319.298 232.971 326.799 230.486C334.3 228.002 340.508 223.529 347.751 223.529C354.993 223.529 358.356 226.014 365.857 228.25C371.858 230.039 391.119 226.676 400 224.771" stroke="#17185B" stroke-width="2" stroke-linecap="round"/>
<defs>
<filter id="filter0_d_7_2243" x="0.5" y="0" width="429" height="280" filterUnits="userSpaceOnUse" color-interpolation-filters="sRGB">
<feFlood flood-opacity="0" result="BackgroundImageFix"/>
<feColorMatrix in="SourceAlpha" type="matrix" values="0 0 0 0 0 0 0 0 0 0 0 0 0 0 0 0 0 0 127 0" result="hardAlpha"/>
<feOffset/>
<feGaussianBlur stdDeviation="6"/>
<feComposite in2="hardAlpha" operator="out"/>
<feColorMatrix type="matrix" values="0 0 0 0 0.509804 0 0 0 0 0.505882 0 0 0 0 0.596078 0 0 0 0.2 0"/>
<feBlend mode="normal" in2="BackgroundImageFix" result="effect1_dropShadow_7_2243"/>
<feBlend mode="normal" in="SourceGraphic" in2="effect1_dropShadow_7_2243" result="shape"/>
</filter>
</defs>
</svg>
