<svg width="40" height="41" viewBox="0 0 40 41" fill="none" xmlns="http://www.w3.org/2000/svg">
<path d="M19.9951 15.1349C16.7817 15.1349 14.1593 17.7573 14.1593 20.9707C14.1593 24.1841 16.7817 26.8065 19.9951 26.8065C23.2086 26.8065 25.831 24.1841 25.831 20.9707C25.831 17.7573 23.2086 15.1349 19.9951 15.1349ZM37.4982 20.9707C37.4982 18.5541 37.5201 16.1593 37.3844 13.7471C37.2487 10.9452 36.6095 8.4585 34.5606 6.40961C32.5073 4.35635 30.025 3.72155 27.2231 3.58583C24.8065 3.45012 22.4118 3.47201 19.9995 3.47201C17.5829 3.47201 15.1881 3.45012 12.7759 3.58583C9.97399 3.72155 7.48731 4.36073 5.43842 6.40961C3.38516 8.46288 2.75036 10.9452 2.61464 13.7471C2.47892 16.1637 2.50081 18.5584 2.50081 20.9707C2.50081 23.383 2.47892 25.7821 2.61464 28.1943C2.75036 30.9962 3.38954 33.4829 5.43842 35.5318C7.49169 37.5851 9.97399 38.2199 12.7759 38.3556C15.1925 38.4913 17.5873 38.4694 19.9995 38.4694C22.4161 38.4694 24.8109 38.4913 27.2231 38.3556C30.025 38.2199 32.5117 37.5807 34.5606 35.5318C36.6139 33.4785 37.2487 30.9962 37.3844 28.1943C37.5245 25.7821 37.4982 23.3873 37.4982 20.9707ZM19.9951 29.9499C15.0262 29.9499 11.0159 25.9397 11.0159 20.9707C11.0159 16.0017 15.0262 11.9915 19.9951 11.9915C24.9641 11.9915 28.9743 16.0017 28.9743 20.9707C28.9743 25.9397 24.9641 29.9499 19.9951 29.9499ZM29.3421 13.7208C28.1819 13.7208 27.245 12.7839 27.245 11.6238C27.245 10.4636 28.1819 9.52672 29.3421 9.52672C30.5022 9.52672 31.4391 10.4636 31.4391 11.6238C31.4395 11.8992 31.3855 12.1721 31.2802 12.4267C31.1749 12.6813 31.0205 12.9126 30.8257 13.1074C30.6309 13.3022 30.3996 13.4566 30.145 13.5619C29.8904 13.6671 29.6176 13.7211 29.3421 13.7208Z" fill="#2B2B2B"/>
</svg>
