<svg width="40" height="41" viewBox="0 0 40 41" fill="none" xmlns="http://www.w3.org/2000/svg">
<g clip-path="url(#clip0_7_2997)">
<path d="M20 40.9707C31.0457 40.9707 40 32.0164 40 20.9707C40 9.92501 31.0457 0.970703 20 0.970703C8.95431 0.970703 0 9.92501 0 20.9707C0 32.0164 8.95431 40.9707 20 40.9707Z" fill="#2B2B2B"/>
<path d="M13.5381 22.4328L15.9109 29.0004C15.9109 29.0004 16.2076 29.6149 16.5253 29.6149C16.8429 29.6149 21.5678 24.6996 21.5678 24.6996L26.8219 14.5513L13.6228 20.7374L13.5381 22.4328Z" fill="#D9D9E6"/>
<path d="M16.6842 24.1169L16.2287 28.9579C16.2287 28.9579 16.038 30.4413 17.521 28.9579C19.004 27.4746 20.4235 26.3308 20.4235 26.3308" fill="#666679"/>
<path d="M13.5809 22.6669L8.69986 21.0766C8.69986 21.0766 8.11652 20.8399 8.30436 20.3033C8.34302 20.1926 8.42102 20.0984 8.65435 19.9366C9.73585 19.1828 28.672 12.3766 28.672 12.3766C28.672 12.3766 29.2067 12.1964 29.522 12.3163C29.6 12.3404 29.6702 12.3849 29.7254 12.445C29.7806 12.5052 29.8189 12.579 29.8362 12.6588C29.8703 12.7997 29.8845 12.9447 29.8785 13.0896C29.877 13.2149 29.8619 13.3311 29.8504 13.5133C29.735 15.3741 26.2837 29.2621 26.2837 29.2621C26.2837 29.2621 26.0772 30.0748 25.3374 30.1026C25.1555 30.1085 24.9744 30.0777 24.8047 30.0121C24.6351 29.9464 24.4804 29.8473 24.3499 29.7206C22.898 28.4718 17.88 25.0994 16.7712 24.3578C16.7462 24.3407 16.7251 24.3185 16.7094 24.2926C16.6937 24.2668 16.6838 24.2378 16.6802 24.2078C16.6647 24.1296 16.7497 24.0328 16.7497 24.0328C16.7497 24.0328 25.4874 16.2661 25.7199 15.4508C25.7379 15.3876 25.6699 15.3564 25.5785 15.3841C24.9982 15.5976 14.9379 21.9508 13.8275 22.6519C13.7476 22.6761 13.6631 22.6813 13.5809 22.6669Z" fill="white"/>
</g>
<defs>
<clipPath id="clip0_7_2997">
<rect width="40" height="40" fill="white" transform="translate(0 0.970703)"/>
</clipPath>
</defs>
</svg>
