<svg width="26" height="30" viewBox="0 0 26 30" fill="none" xmlns="http://www.w3.org/2000/svg">
<path fill-rule="evenodd" clip-rule="evenodd" d="M12.9397 0.63736L13.0148 0.63736C14.5615 0.63736 15.8913 0.637359 17.0342 0.676518C19.5322 0.7621 21.3681 1.03242 22.8397 2.10156C23.4905 2.57444 24.0629 3.14681 24.5358 3.79767C25.6049 5.26922 25.8753 7.10519 25.9608 9.60312C26 10.7461 26 12.0759 26 13.6227V16.3644C26 18.8131 26 20.7325 25.835 22.2554C25.6667 23.8094 25.3169 25.0686 24.5358 26.1437C24.0629 26.7946 23.4905 27.3669 22.8397 27.8398C21.7646 28.6209 20.5054 28.9707 18.9514 29.1391C17.4285 29.304 15.5091 29.304 13.0604 29.304H12.9396C10.4909 29.304 8.57148 29.304 7.04864 29.1391C5.49459 28.9707 4.23541 28.6209 3.16031 27.8398C2.50945 27.3669 1.93708 26.7946 1.4642 26.1437C0.683099 25.0686 0.333342 23.8094 0.164971 22.2554C-1.95305e-05 20.7325 -1.08664e-05 18.8131 1.80299e-07 16.3644V13.577C-1.08664e-05 11.1283 -1.95305e-05 9.20884 0.164971 7.68599C0.333342 6.13195 0.683099 4.87277 1.4642 3.79767C1.93708 3.14681 2.50945 2.57444 3.16031 2.10156C4.23541 1.32046 5.49459 0.970701 7.04864 0.80233C8.57148 0.63734 10.491 0.637349 12.9397 0.63736ZM7.26406 2.79069C5.88018 2.94063 5.01322 3.22748 4.33588 3.7196C3.85481 4.06911 3.43176 4.49217 3.08224 4.97324C2.59012 5.65058 2.30327 6.51754 2.15334 7.90142C2.00137 9.30402 2 11.1153 2 13.6374V16.304C2 18.8261 2.00137 20.6374 2.15334 22.04C2.30327 23.4238 2.59012 24.2908 3.08224 24.9681C3.43176 25.4492 3.85481 25.8723 4.33588 26.2218C5.01322 26.7139 5.88018 27.0008 7.26406 27.1507C8.66666 27.3027 10.4779 27.304 13 27.304C15.5221 27.304 17.3333 27.3027 18.7359 27.1507C20.1198 27.0008 20.9868 26.7139 21.6641 26.2218C22.1452 25.8723 22.5682 25.4492 22.9178 24.9681C23.4099 24.2908 23.6967 23.4238 23.8467 22.04C23.9986 20.6374 24 18.8261 24 16.304V13.6374C24 12.5062 23.9999 11.515 23.9856 10.6349C23.3527 10.6291 22.8868 10.6094 22.4673 10.543C19.1868 10.0234 16.614 7.45053 16.0944 4.17002C16.028 3.75055 16.0083 3.28465 16.0024 2.65178C15.1224 2.63743 14.1311 2.63736 13 2.63736C10.4779 2.63736 8.66666 2.63873 7.26406 2.79069ZM18.0037 2.72728C18.01 3.26721 18.0265 3.58378 18.0698 3.85716C18.4538 6.28188 20.3555 8.18356 22.7802 8.56759C23.0536 8.61089 23.3702 8.62741 23.9101 8.63365C23.785 6.81986 23.4985 5.77251 22.9178 4.97324C22.5682 4.49217 22.1452 4.06912 21.6641 3.7196C20.8648 3.13889 19.8175 2.85231 18.0037 2.72728ZM6.66667 12.304C6.66667 11.7517 7.11438 11.304 7.66667 11.304H11.6667C12.219 11.304 12.6667 11.7517 12.6667 12.304C12.6667 12.8563 12.219 13.304 11.6667 13.304H7.66667C7.11438 13.304 6.66667 12.8563 6.66667 12.304ZM6.66667 17.6374C6.66667 17.0851 7.11438 16.6374 7.66667 16.6374H18.3333C18.8856 16.6374 19.3333 17.0851 19.3333 17.6374C19.3333 18.1896 18.8856 18.6374 18.3333 18.6374H7.66667C7.11438 18.6374 6.66667 18.1896 6.66667 17.6374Z" fill="#356FEC"/>
</svg>
