<svg width="40" height="40" viewBox="0 0 40 40" fill="none" xmlns="http://www.w3.org/2000/svg">
<path d="M7.90214 28.8073L9.15927 31.0097C9.42049 31.4734 9.796 31.8377 10.2368 32.1027L14.7265 24.2202H5.74707C5.74707 24.7336 5.87768 25.2469 6.1389 25.7106L7.90214 28.8073Z" fill="#0066DA"/>
<path d="M19.9999 14.9464L15.5102 7.06396C15.0694 7.32892 14.6939 7.69324 14.4327 8.15691L6.1389 22.7296C5.88249 23.1832 5.74741 23.697 5.74707 24.2199H14.7265L19.9999 14.9464Z" fill="#00AC47"/>
<path d="M29.7629 32.1027C30.2037 31.8377 30.5792 31.4734 30.8404 31.0097L31.3628 30.099L33.8608 25.7106C34.122 25.2469 34.2526 24.7336 34.2526 24.2202H25.2725L27.1833 28.029L29.7629 32.1027Z" fill="#EA4335"/>
<path d="M19.9995 14.9467L24.4892 7.06418C24.0484 6.79923 23.5423 6.66675 23.0199 6.66675H16.9791C16.4567 6.66675 15.9506 6.81579 15.5098 7.06418L19.9995 14.9467Z" fill="#00832D"/>
<path d="M25.2729 24.2202H14.7261L10.2363 32.1027C10.6771 32.3676 11.1833 32.5001 11.7057 32.5001H28.2932C28.8157 32.5001 29.3218 32.3511 29.7626 32.1027L25.2729 24.2202Z" fill="#2684FC"/>
<path d="M29.7142 15.4432L25.5673 8.15691C25.3061 7.69324 24.9305 7.32892 24.4897 7.06396L20 14.9464L25.2734 24.2199H34.2365C34.2365 23.7066 34.1059 23.1932 33.8447 22.7296L29.7142 15.4432Z" fill="#FFBA00"/>
</svg>
