<svg width="32" height="32" viewBox="0 0 32 32" fill="none" xmlns="http://www.w3.org/2000/svg">
<path fill-rule="evenodd" clip-rule="evenodd" d="M14.6064 3H17.3937C19.8425 2.99999 21.7619 2.99998 23.2848 3.16497C24.8388 3.33334 26.098 3.6831 27.1731 4.4642C27.824 4.93708 28.3963 5.50945 28.8692 6.16031C29.0754 6.44405 29.2533 6.74312 29.4062 7.06061C29.8999 8.08505 30.1199 9.27342 30.2271 10.6921C30.3334 12.0998 30.3334 13.8276 30.3334 15.9612V16.0604C30.3334 18.5091 30.3334 20.4285 30.1684 21.9514C30.0001 23.5054 29.6503 24.7646 28.8692 25.8397C28.3963 26.4905 27.824 27.0629 27.1731 27.5358C26.098 28.3169 24.8388 28.6667 23.2848 28.835C21.7619 29 19.8425 29 17.3938 29H14.6064C12.1577 29 10.2382 29 8.71538 28.835C7.16133 28.6667 5.90216 28.3169 4.82706 27.5358C4.1762 27.0629 3.60383 26.4905 3.13095 25.8397C2.34985 24.7646 2.00009 23.5054 1.83172 21.9514C1.66673 20.4285 1.66674 18.509 1.66675 16.0603L1.66675 15.9621C1.66674 13.843 1.66674 12.1243 1.77083 10.7222C1.8757 9.30982 2.09086 8.12539 2.57324 7.10396C2.73076 6.77041 2.91537 6.45703 3.13095 6.16031C3.60383 5.50945 4.1762 4.93708 4.82706 4.4642C5.90216 3.6831 7.16133 3.33334 8.71538 3.16497C10.2382 2.99998 12.1577 2.99999 14.6064 3ZM8.93081 5.15334C7.54693 5.30327 6.67997 5.59012 6.00263 6.08224C5.52179 6.43159 5.09891 6.85441 4.74949 7.33519L7.2791 9.8648C9.52131 12.107 11.1333 13.716 12.5237 14.7769C13.8911 15.8201 14.9259 16.2386 16.0001 16.2386C17.0742 16.2386 18.1091 15.8201 19.4764 14.7769C20.8668 13.716 22.4788 12.107 24.7211 9.86481L27.2507 7.33519C26.9013 6.85441 26.4784 6.43159 25.9975 6.08224C25.3202 5.59012 24.4532 5.30327 23.0694 5.15334C21.6668 5.00137 19.8555 5 17.3334 5H14.6667C12.1447 5 10.3334 5.00137 8.93081 5.15334ZM28.0498 9.3645L26.0812 11.3331C23.9048 13.5095 22.1992 15.2151 20.6896 16.3669C19.1443 17.5459 17.6873 18.2386 16.0001 18.2386C14.3128 18.2386 12.8558 17.5459 11.3106 16.3669C9.80091 15.2151 8.09534 13.5095 5.91897 11.3331L3.95036 9.3645C3.8685 9.79847 3.8081 10.2945 3.76534 10.8703C3.66737 12.1899 3.66675 13.8353 3.66675 16C3.66675 18.5221 3.66812 20.3333 3.82008 21.7359C3.97002 23.1198 4.25687 23.9868 4.74899 24.6641C5.0985 25.1452 5.52156 25.5682 6.00263 25.9178C6.67997 26.4099 7.54693 26.6967 8.93081 26.8467C10.3334 26.9986 12.1447 27 14.6667 27H17.3334C19.8555 27 21.6668 26.9986 23.0694 26.8467C24.4532 26.6967 25.3202 26.4099 25.9975 25.9178C26.4786 25.5682 26.9017 25.1452 27.2512 24.6641C27.7433 23.9868 28.0301 23.1198 28.1801 21.7359C28.332 20.3333 28.3334 18.5221 28.3334 16C28.3334 13.8198 28.3328 12.1666 28.2328 10.8427C28.1901 10.2785 28.1303 9.79148 28.0498 9.3645Z" fill="#356FEC"/>
</svg>
