<svg width="262" height="28" viewBox="0 0 262 28" fill="none" xmlns="http://www.w3.org/2000/svg">
<path d="M134.316 20.3245H128.652L127.491 23.5629H123.376L129.548 6.6462H133.904L140.076 23.5629H135.478L134.316 20.3245ZM129.887 16.9895H133.081L131.484 11.9629L129.887 16.9895ZM148.189 23.877C145.817 23.877 144.042 23.4179 142.864 22.4995C141.703 21.5812 141.098 20.3245 141.049 18.7295H145.406C145.535 19.3418 145.817 19.7929 146.253 20.0829C146.689 20.3568 147.334 20.4937 148.189 20.4937C150.045 20.4937 150.973 19.9781 150.973 18.947C150.973 18.6087 150.884 18.3348 150.706 18.1254C150.529 17.8998 150.271 17.7065 149.932 17.5454C149.593 17.3681 149.173 17.2151 148.673 17.0862C148.173 16.9573 147.592 16.8204 146.931 16.6754C146.091 16.482 145.333 16.2565 144.655 15.9987C143.994 15.7248 143.429 15.3784 142.961 14.9595C142.509 14.5406 142.154 14.0412 141.896 13.4612C141.654 12.8651 141.533 12.1562 141.533 11.3345C141.533 10.5451 141.686 9.84426 141.993 9.23203C142.3 8.6037 142.743 8.0801 143.324 7.6612C143.905 7.2262 144.607 6.89593 145.43 6.67036C146.253 6.4448 147.173 6.33203 148.189 6.33203C150.416 6.33203 152.07 6.75897 153.151 7.61286C154.248 8.46676 154.853 9.6751 154.966 11.2379H150.609C150.513 10.7223 150.278 10.3437 149.908 10.102C149.536 9.84426 148.964 9.71536 148.189 9.71536C147.334 9.71536 146.737 9.8523 146.398 10.1262C146.059 10.4001 145.89 10.7545 145.89 11.1895C145.89 11.7856 146.196 12.2206 146.81 12.4945C147.439 12.7684 148.342 13.0181 149.52 13.2437C150.392 13.4209 151.182 13.6384 151.892 13.8962C152.618 14.1379 153.231 14.4681 153.732 14.887C154.248 15.2898 154.643 15.7893 154.918 16.3854C155.192 16.9654 155.329 17.6823 155.329 18.5362C155.329 20.2118 154.7 21.5248 153.441 22.4754C152.183 23.4098 150.432 23.877 148.189 23.877ZM164.403 23.877C162.031 23.877 160.257 23.4179 159.078 22.4995C157.917 21.5812 157.312 20.3245 157.263 18.7295H161.62C161.749 19.3418 162.031 19.7929 162.467 20.0829C162.903 20.3568 163.548 20.4937 164.403 20.4937C166.259 20.4937 167.187 19.9781 167.187 18.947C167.187 18.6087 167.098 18.3348 166.92 18.1254C166.743 17.8998 166.485 17.7065 166.146 17.5454C165.807 17.3681 165.388 17.2151 164.887 17.0862C164.387 16.9573 163.806 16.8204 163.145 16.6754C162.306 16.482 161.547 16.2565 160.87 15.9987C160.208 15.7248 159.643 15.3784 159.175 14.9595C158.724 14.5406 158.369 14.0412 158.11 13.4612C157.868 12.8651 157.747 12.1562 157.747 11.3345C157.747 10.5451 157.901 9.84426 158.207 9.23203C158.514 8.6037 158.957 8.0801 159.538 7.6612C160.119 7.2262 160.821 6.89593 161.644 6.67036C162.467 6.4448 163.387 6.33203 164.403 6.33203C166.63 6.33203 168.284 6.75897 169.365 7.61286C170.462 8.46676 171.067 9.6751 171.18 11.2379H166.824C166.727 10.7223 166.493 10.3437 166.122 10.102C165.751 9.84426 165.178 9.71536 164.403 9.71536C163.548 9.71536 162.951 9.8523 162.612 10.1262C162.273 10.4001 162.104 10.7545 162.104 11.1895C162.104 11.7856 162.411 12.2206 163.024 12.4945C163.653 12.7684 164.557 13.0181 165.734 13.2437C166.606 13.4209 167.397 13.6384 168.106 13.8962C168.832 14.1379 169.446 14.4681 169.946 14.887C170.462 15.2898 170.858 15.7893 171.132 16.3854C171.406 16.9654 171.543 17.6823 171.543 18.5362C171.543 20.2118 170.914 21.5248 169.655 22.4754C168.397 23.4098 166.646 23.877 164.403 23.877ZM174.446 6.6462H178.802V23.5629H174.446V6.6462ZM188.843 23.877C186.471 23.877 184.696 23.4179 183.518 22.4995C182.357 21.5812 181.751 20.3245 181.703 18.7295H186.06C186.189 19.3418 186.471 19.7929 186.907 20.0829C187.342 20.3568 187.988 20.4937 188.843 20.4937C190.698 20.4937 191.626 19.9781 191.626 18.947C191.626 18.6087 191.537 18.3348 191.36 18.1254C191.183 17.8998 190.924 17.7065 190.586 17.5454C190.247 17.3681 189.827 17.2151 189.327 17.0862C188.827 16.9573 188.246 16.8204 187.584 16.6754C186.745 16.482 185.987 16.2565 185.309 15.9987C184.648 15.7248 184.083 15.3784 183.615 14.9595C183.163 14.5406 182.808 14.0412 182.55 13.4612C182.308 12.8651 182.187 12.1562 182.187 11.3345C182.187 10.5451 182.34 9.84426 182.647 9.23203C182.953 8.6037 183.397 8.0801 183.978 7.6612C184.559 7.2262 185.261 6.89593 186.084 6.67036C186.907 6.4448 187.826 6.33203 188.843 6.33203C191.07 6.33203 192.723 6.75897 193.805 7.61286C194.902 8.46676 195.507 9.6751 195.62 11.2379H191.263C191.167 10.7223 190.932 10.3437 190.561 10.102C190.19 9.84426 189.617 9.71536 188.843 9.71536C187.988 9.71536 187.391 9.8523 187.052 10.1262C186.713 10.4001 186.544 10.7545 186.544 11.1895C186.544 11.7856 186.85 12.2206 187.463 12.4945C188.093 12.7684 188.996 13.0181 190.174 13.2437C191.045 13.4209 191.836 13.6384 192.546 13.8962C193.272 14.1379 193.885 14.4681 194.386 14.887C194.902 15.2898 195.297 15.7893 195.572 16.3854C195.846 16.9654 195.983 17.6823 195.983 18.5362C195.983 20.2118 195.354 21.5248 194.095 22.4754C192.837 23.4098 191.086 23.877 188.843 23.877ZM202.164 10.2229H196.96V6.6462H211.724V10.2229H206.521V23.5629H202.164V10.2229ZM221.698 20.3245H216.034L214.873 23.5629H210.758L216.93 6.6462H221.287L227.458 23.5629H222.86L221.698 20.3245ZM217.269 16.9895H220.464L218.866 11.9629L217.269 16.9895ZM229.394 6.6462H233.242L239.801 16.0712V6.6462H244.4V23.5629H240.285L233.75 14.1379V23.5629H229.394V6.6462ZM251.776 10.2229H246.572V6.6462H261.336V10.2229H256.133V23.5629H251.776V10.2229Z" fill="#2446EA"/>
<path fill-rule="evenodd" clip-rule="evenodd" d="M108.42 16.9299C108.546 16.3432 108.612 15.7343 108.612 15.1101C108.612 10.3279 104.728 6.45117 99.9364 6.45117C95.1448 6.45117 91.2607 10.3279 91.2607 15.1101C91.2607 19.8922 95.1448 23.769 99.9364 23.769C102.459 23.769 104.731 22.6942 106.316 20.9783L102.411 18.8466C101.702 19.3157 100.851 19.5888 99.9364 19.5888C97.458 19.5888 95.4488 17.5836 95.4488 15.1101C95.4488 12.6365 97.458 10.6313 99.9364 10.6313C102.415 10.6313 104.424 12.6365 104.424 15.1101C104.424 15.7581 104.286 16.3739 104.038 16.9299H108.42Z" fill="#2446EA"/>
<path d="M95.2371 13.3564H105.062V16.93H95.2371V13.3564Z" fill="#2446EA"/>
<path d="M85.7327 2.71875H90.0705V23.4702H85.7327V2.71875Z" fill="#2446EA"/>
<path fill-rule="evenodd" clip-rule="evenodd" d="M68.0818 6.89844V27.6499H72.4196V20.1853L74.1747 23.4698H76.9072C81.1703 23.4698 84.3863 20.1854 84.3863 14.9602C84.3863 9.73497 80.1979 6.89844 76.3835 6.89844H68.0818ZM72.4196 10.8546V19.5135H75.7854C79.0761 19.5135 80.1979 16.9756 80.1979 14.9602C80.1979 12.9447 78.6274 10.8546 75.7854 10.8546H72.4196Z" fill="#2446EA"/>
<path fill-rule="evenodd" clip-rule="evenodd" d="M58.3368 23.769C63.1281 23.769 67.0124 19.8922 67.0124 15.1101C67.0124 10.3279 63.1281 6.45117 58.3368 6.45117C53.5451 6.45117 49.6611 10.3279 49.6611 15.1101C49.6611 19.8922 53.5451 23.769 58.3368 23.769ZM58.3368 19.5888C60.8152 19.5888 62.8241 17.5836 62.8241 15.1101C62.8241 12.6365 60.8152 10.6313 58.3368 10.6313C55.8584 10.6313 53.8492 12.6365 53.8492 15.1101C53.8492 17.5836 55.8584 19.5888 58.3368 19.5888Z" fill="#2446EA"/>
<path fill-rule="evenodd" clip-rule="evenodd" d="M48.5716 16.9299C48.6975 16.3432 48.7634 15.7343 48.7634 15.1101C48.7634 10.3279 44.8794 6.45117 40.0878 6.45117C35.2964 6.45117 31.4121 10.3279 31.4121 15.1101C31.4121 19.8922 35.2964 23.769 40.0878 23.769C42.6106 23.769 44.8821 22.6942 46.4674 20.9783L42.5628 18.8466C41.8534 19.3157 41.0026 19.5888 40.0878 19.5888C37.6093 19.5888 35.6005 17.5836 35.6005 15.1101C35.6005 12.6365 37.6093 10.6313 40.0878 10.6313C42.5662 10.6313 44.5753 12.6365 44.5753 15.1101C44.5753 15.7581 44.4374 16.3739 44.1893 16.9299H48.5716Z" fill="#2446EA"/>
<path d="M35.3884 13.3564H45.214V16.93H35.3884V13.3564Z" fill="#2446EA"/>
<path fill-rule="evenodd" clip-rule="evenodd" d="M5.34426 15.5159L0 19.9301V23.4701H14.0831V27.7915H18.421V23.4701H22.9084C27.1715 23.4701 30.3875 20.1857 30.3875 14.9605C30.3875 9.7353 26.1992 6.89876 22.3848 6.89876H20.1963L18.4211 10.2812V6.89876H14.0831V19.4703H5.78191L8.56922 17.3551C9.12208 16.926 9.63652 16.4892 10.1126 16.0447C10.5887 15.6002 10.9956 15.1404 11.3335 14.6652C11.6867 14.1901 11.9554 13.6996 12.1397 13.1938C12.3394 12.688 12.4392 12.1592 12.4392 11.6074C12.4392 10.8564 12.3163 10.1667 12.0706 9.53825C11.8403 8.90985 11.4794 8.37338 10.9879 7.9289C10.4965 7.4691 9.88224 7.11657 9.1451 6.87133C8.40796 6.61076 7.54796 6.48047 6.56513 6.48047C4.44586 6.48047 2.85641 7.01694 1.79677 8.08985C0.752494 9.16276 0.230355 10.6802 0.230355 12.642H4.37676C4.37676 10.8334 5.10622 9.92911 6.56513 9.92911C7.11799 9.92911 7.54031 10.0747 7.83208 10.3659C8.13921 10.6572 8.29278 11.071 8.29278 11.6074C8.29278 11.914 8.23137 12.2129 8.10851 12.5041C8.00101 12.78 7.82439 13.0712 7.5787 13.3777C7.34834 13.6843 7.04886 14.0138 6.6803 14.3663C6.31175 14.7035 5.86638 15.0867 5.34426 15.5159ZM18.421 19.5139V10.855H21.7865C24.6286 10.855 26.1992 12.9451 26.1992 14.9605C26.1992 16.9759 25.0773 19.5139 21.7865 19.5139H18.421Z" fill="#2446EA"/>
<mask id="mask0_4002_1016" style="mask-type:luminance" maskUnits="userSpaceOnUse" x="111" y="6" width="10" height="18">
<path d="M120.109 6.94824H111.637V23.5628H120.109V6.94824Z" fill="white"/>
</mask>
<g mask="url(#mask0_4002_1016)">
<path d="M117.665 7.00586H120.142L114.115 23.6204H111.637L117.665 7.00586Z" fill="#2446EA"/>
</g>
</svg>
