<svg width="177" height="28" viewBox="0 0 177 28" fill="none" xmlns="http://www.w3.org/2000/svg">
<path d="M53.7308 19.6233H48.2631L47.1415 22.7499H43.1692L49.1276 6.41661H53.3335L59.292 22.7499H54.8524L53.7308 19.6233ZM49.4547 16.4033H52.5391L50.9969 11.5499L49.4547 16.4033ZM67.1244 23.0533C64.8345 23.0533 63.1208 22.6099 61.9838 21.7233C60.8622 20.8366 60.278 19.6233 60.2313 18.0833H64.4372C64.5617 18.6744 64.8345 19.1099 65.2551 19.3899C65.6756 19.6544 66.2986 19.7866 67.1244 19.7866C68.9157 19.7866 69.8115 19.2888 69.8115 18.2933C69.8115 17.9666 69.7256 17.7022 69.5545 17.4999C69.383 17.2822 69.1339 17.0955 68.8067 16.9399C68.4796 16.7688 68.0745 16.6211 67.5917 16.4966C67.1086 16.3722 66.5478 16.2399 65.9093 16.0999C65.0991 15.9133 64.3671 15.6955 63.7129 15.4466C63.0741 15.1822 62.5288 14.8477 62.0772 14.4433C61.6409 14.0388 61.2983 13.5566 61.0491 12.9966C60.8154 12.4211 60.6986 11.7366 60.6986 10.9433C60.6986 10.1811 60.8464 9.5044 61.1426 8.91328C61.4384 8.30661 61.8669 7.80107 62.4277 7.39662C62.9885 6.97662 63.6661 6.65774 64.4606 6.43995C65.2551 6.22216 66.143 6.11328 67.1244 6.11328C69.2741 6.11328 70.8706 6.52549 71.9145 7.34995C72.9735 8.1744 73.5577 9.34107 73.6669 10.8499H69.461C69.3675 10.3522 69.1415 9.98661 68.7834 9.75328C68.425 9.5044 67.8721 9.37995 67.1244 9.37995C66.2986 9.37995 65.7224 9.51216 65.3952 9.77661C65.0681 10.0411 64.9046 10.3833 64.9046 10.8033C64.9046 11.3788 65.2004 11.7988 65.7925 12.0633C66.4 12.3277 67.2722 12.5688 68.4095 12.7866C69.2507 12.9577 70.0139 13.1677 70.6994 13.4166C71.4004 13.6499 71.9921 13.9688 72.4752 14.3733C72.9735 14.7622 73.3553 15.2444 73.6202 15.8199C73.8848 16.3799 74.0174 17.0722 74.0174 17.8966C74.0174 19.5144 73.4099 20.7822 72.1949 21.6999C70.9798 22.6022 69.2895 23.0533 67.1244 23.0533ZM82.7778 23.0533C80.4879 23.0533 78.7745 22.6099 77.6372 21.7233C76.5156 20.8366 75.9314 19.6233 75.8847 18.0833H80.0906C80.2154 18.6744 80.4879 19.1099 80.9085 19.3899C81.329 19.6544 81.9523 19.7866 82.7778 19.7866C84.5694 19.7866 85.4649 19.2888 85.4649 18.2933C85.4649 17.9666 85.3793 17.7022 85.2079 17.4999C85.0367 17.2822 84.7873 17.0955 84.4601 16.9399C84.133 16.7688 83.7282 16.6211 83.2451 16.4966C82.7623 16.3722 82.2015 16.2399 81.5627 16.0999C80.7528 15.9133 80.0205 15.6955 79.3663 15.4466C78.7278 15.1822 78.1825 14.8477 77.7306 14.4433C77.2946 14.0388 76.952 13.5566 76.7025 12.9966C76.4688 12.4211 76.352 11.7366 76.352 10.9433C76.352 10.1811 76.5001 9.5044 76.796 8.91328C77.0921 8.30661 77.5203 7.80107 78.0811 7.39662C78.6419 6.97662 79.3195 6.65774 80.114 6.43995C80.9085 6.22216 81.7964 6.11328 82.7778 6.11328C84.9275 6.11328 86.5243 6.52549 87.5679 7.34995C88.6272 8.1744 89.2114 9.34107 89.3203 10.8499H85.1144C85.0209 10.3522 84.7951 9.98661 84.4368 9.75328C84.0787 9.5044 83.5255 9.37995 82.7778 9.37995C81.9523 9.37995 81.3758 9.51216 81.0487 9.77661C80.7215 10.0411 80.558 10.3833 80.558 10.8033C80.558 11.3788 80.8541 11.7988 81.4459 12.0633C82.0534 12.3277 82.9258 12.5688 84.0629 12.7866C84.9041 12.9577 85.6676 13.1677 86.3528 13.4166C87.0538 13.6499 87.6458 13.9688 88.1287 14.3733C88.6272 14.7622 89.009 15.2444 89.2736 15.8199C89.5385 16.3799 89.6708 17.0722 89.6708 17.8966C89.6708 19.5144 89.0633 20.7822 87.8483 21.6999C86.6332 22.6022 84.9432 23.0533 82.7778 23.0533ZM92.473 6.41661H96.679V22.7499H92.473V6.41661ZM106.373 23.0533C104.083 23.0533 102.369 22.6099 101.232 21.7233C100.11 20.8366 99.5262 19.6233 99.4794 18.0833H103.685C103.81 18.6744 104.083 19.1099 104.503 19.3899C104.924 19.6544 105.547 19.7866 106.373 19.7866C108.164 19.7866 109.06 19.2888 109.06 18.2933C109.06 17.9666 108.974 17.7022 108.803 17.4999C108.631 17.2822 108.382 17.0955 108.055 16.9399C107.728 16.7688 107.323 16.6211 106.84 16.4966C106.357 16.3722 105.796 16.2399 105.157 16.0999C104.347 15.9133 103.615 15.6955 102.961 15.4466C102.322 15.1822 101.777 14.8477 101.325 14.4433C100.889 14.0388 100.546 13.5566 100.297 12.9966C100.064 12.4211 99.9468 11.7366 99.9468 10.9433C99.9468 10.1811 100.095 9.5044 100.391 8.91328C100.687 8.30661 101.115 7.80107 101.676 7.39662C102.237 6.97662 102.914 6.65774 103.709 6.43995C104.503 6.22216 105.391 6.11328 106.373 6.11328C108.522 6.11328 110.119 6.52549 111.163 7.34995C112.222 8.1744 112.806 9.34107 112.915 10.8499H108.709C108.616 10.3522 108.39 9.98661 108.032 9.75328C107.673 9.5044 107.12 9.37995 106.373 9.37995C105.547 9.37995 104.971 9.51216 104.643 9.77661C104.316 10.0411 104.153 10.3833 104.153 10.8033C104.153 11.3788 104.449 11.7988 105.041 12.0633C105.648 12.3277 106.52 12.5688 107.658 12.7866C108.499 12.9577 109.262 13.1677 109.948 13.4166C110.649 13.6499 111.24 13.9688 111.723 14.3733C112.222 14.7622 112.603 15.2444 112.868 15.8199C113.133 16.3799 113.266 17.0722 113.266 17.8966C113.266 19.5144 112.658 20.7822 111.443 21.6999C110.228 22.6022 108.538 23.0533 106.373 23.0533ZM119.233 9.86995H114.209V6.41661H128.463V9.86995H123.439V22.7499H119.233V9.86995ZM138.091 19.6233H132.624L131.502 22.7499H127.53L133.488 6.41661H137.694L143.653 22.7499H139.213L138.091 19.6233ZM133.815 16.4033H136.9L135.358 11.5499L133.815 16.4033ZM145.521 6.41661H149.236L155.569 15.5166V6.41661H160.008V22.7499H156.036L149.727 13.6499V22.7499H145.521V6.41661ZM167.129 9.86995H162.106V6.41661H176.359V9.86995H171.335V22.7499H167.129V9.86995Z" fill="#356FEC"/>
<path d="M37.0712 6.69629H39.4631L33.6443 22.738H31.2524L37.0712 6.69629Z" fill="#356FEC"/>
<path fill-rule="evenodd" clip-rule="evenodd" d="M5.15943 15.0772L0 19.341V22.7604H13.5961V26.9345H17.7839V22.7603H22.1162C26.2318 22.7603 29.3364 19.5878 29.3364 14.5407C29.3364 9.49351 25.2931 6.75363 21.6107 6.75363H19.4979L17.7841 10.0208V6.75363H13.5961V18.8968H5.58195L8.27288 16.8538C8.8066 16.4392 9.30328 16.0173 9.76286 15.5879C10.2225 15.1586 10.6154 14.7144 10.9415 14.2555C11.2825 13.7965 11.542 13.3227 11.7199 12.8342C11.9126 12.3456 12.009 11.8349 12.009 11.3019C12.009 10.5764 11.8904 9.91022 11.6532 9.3032C11.4308 8.69621 11.0824 8.17804 10.6079 7.74868C10.1335 7.30453 9.54047 6.964 8.82885 6.72714C8.1172 6.47546 7.28694 6.34961 6.33809 6.34961C4.2921 6.34961 2.75762 6.86778 1.73463 7.90413C0.726471 8.94048 0.222389 10.4062 0.222389 12.3012H4.22539C4.22539 10.5542 4.92963 9.68073 6.33809 9.68073C6.87181 9.68073 7.27952 9.82138 7.56123 10.1027C7.85775 10.384 8.00601 10.7837 8.00601 11.3019C8.00601 11.598 7.94669 11.8867 7.8281 12.168C7.7243 12.4344 7.55381 12.7158 7.31658 13.0119C7.09419 13.308 6.8051 13.6263 6.44928 13.9668C6.09344 14.2925 5.6635 14.6626 5.15943 15.0772ZM17.7839 18.9389V10.575H21.0331C23.7768 10.575 25.2931 12.5939 25.2931 14.5407C25.2931 16.4874 24.2101 18.9389 21.0331 18.9389H17.7839Z" fill="#356FEC"/>
</svg>
