<svg width="40" height="40" viewBox="0 0 40 40" fill="none" xmlns="http://www.w3.org/2000/svg">
<path d="M11.0491 34.346C9.78145 34.346 8.78564 33.3502 8.78564 32.0826V8.54905C8.78564 7.28145 9.78145 6.28564 11.0491 6.28564H24.9878C25.4857 6.28564 25.9379 6.46726 26.2554 6.82926L30.8712 11.445C31.2332 11.807 31.4148 12.2592 31.4148 12.7126V32.0826C31.4148 33.3502 30.419 34.346 29.1514 34.346H11.0491Z" fill="white"/>
<path d="M24.9878 6.73911C25.3498 6.73911 25.7118 6.87501 25.9379 7.14682L30.5537 11.7626C30.8255 12.0344 30.9614 12.3507 30.9614 12.7127V32.0826C30.9614 33.0784 30.1472 33.8926 29.1514 33.8926H11.0491C10.0533 33.8926 9.23911 33.0784 9.23911 32.0826V8.54909C9.23911 7.55329 10.0533 6.73911 11.0491 6.73911H24.9878ZM24.9878 5.8335H11.0491C9.55539 5.8335 8.3335 7.05539 8.3335 8.54909V32.0826C8.3335 33.5763 9.55539 34.7982 11.0491 34.7982H29.1514C30.6451 34.7982 31.867 33.5763 31.867 32.0826V12.7127C31.867 12.1246 31.6409 11.5365 31.1887 11.1288L26.573 6.51301C26.1195 6.05959 25.5759 5.8335 24.9878 5.8335Z" fill="#FF2116"/>
<path d="M25.6555 18.8899C25.4973 18.7207 25.2367 18.5848 24.8969 18.4909C24.5571 18.3982 24.1383 18.3463 23.6639 18.3463C23.3921 18.3463 23.1042 18.3636 22.8015 18.3945C22.4988 18.4254 22.1825 18.4711 21.8539 18.5279C21.6612 18.3463 21.4697 18.1487 21.2794 17.9337C21.0904 17.7187 20.9038 17.4864 20.7222 17.2381C20.5974 17.0565 20.4739 16.8761 20.3553 16.6945C20.2366 16.5129 20.123 16.3325 20.0217 16.1509C20.1909 15.6196 20.338 15.0982 20.443 14.6152C20.548 14.1309 20.6098 13.6848 20.6098 13.3006C20.6098 13.0177 20.5641 12.6384 20.4121 12.3308C20.2589 12.0219 19.9994 11.7847 19.5695 11.7847C19.4558 11.7847 19.3372 11.818 19.2322 11.8773C19.1272 11.9366 19.037 12.0219 18.9802 12.1232C18.8109 12.4284 18.7602 12.9374 18.8331 13.5489C18.9073 14.1605 19.1049 14.8721 19.4323 15.585C19.3187 15.9248 19.1939 16.2695 19.058 16.629C18.9221 16.9885 18.7751 17.3617 18.6169 17.7582C18.481 18.0869 18.334 18.4143 18.1783 18.7367C18.0227 19.0592 17.8583 19.3767 17.6891 19.6807C16.7612 20.0538 15.9977 20.4442 15.4516 20.826C14.9055 21.2077 14.5781 21.5808 14.5213 21.9206C14.4991 22.0343 14.504 22.1405 14.5386 22.2431C14.5719 22.3444 14.635 22.4407 14.7251 22.5309C14.782 22.5766 14.866 22.6384 14.9797 22.6891C15.0933 22.7397 15.2342 22.7793 15.4047 22.7793C15.9359 22.7793 16.5018 22.3888 17.0454 21.797C17.589 21.2065 18.1091 20.4145 18.5502 19.6102C18.7985 19.52 19.0531 19.4348 19.3137 19.3557C19.5744 19.2767 19.8401 19.2038 20.1119 19.1358C20.4059 19.0567 20.6888 18.9888 20.9668 18.9295C21.2436 18.8702 21.5154 18.8195 21.7872 18.7738C22.4321 19.3619 23.0375 19.6844 23.5552 19.8598C24.0728 20.0352 24.5028 20.0637 24.7968 20.0637C25.1477 20.0637 25.3701 20.0093 25.5184 19.9228C25.6666 19.8363 25.7395 19.7177 25.7926 19.5892C25.8396 19.4348 25.8396 19.2939 25.8112 19.1741C25.7815 19.0567 25.7234 18.9579 25.6555 18.8899ZM19.1618 12.2369C19.2075 12.1578 19.2631 12.096 19.3286 12.0528C19.394 12.0108 19.4669 11.9873 19.546 11.9873C19.7042 11.9873 19.8289 12.0552 19.913 12.1887C19.9982 12.3221 20.0427 12.5198 20.0427 12.7792C20.0427 13.051 19.997 13.413 19.913 13.8368C19.8277 14.2618 19.7042 14.7474 19.546 15.2675C19.2297 14.5435 19.0704 13.8936 19.0234 13.3698C18.9752 12.8484 19.037 12.4518 19.1618 12.2369ZM14.7264 21.9453C14.7832 21.6624 15.0773 21.3399 15.5579 21.0039C16.0385 20.6666 16.7069 20.3169 17.5099 19.9772C17.0577 20.7469 16.6043 21.3683 16.1978 21.7983C15.7901 22.2282 15.4281 22.4654 15.1563 22.4654C15.0995 22.4654 15.0488 22.4543 15.0007 22.4346C14.9525 22.4148 14.908 22.3864 14.8623 22.353C14.8055 22.2962 14.7659 22.2282 14.7437 22.1578C14.7202 22.0861 14.7153 22.0133 14.7264 21.9453ZM21.5833 18.5737C21.3461 18.6194 21.0965 18.67 20.842 18.7256C20.5875 18.7825 20.3281 18.8442 20.0674 18.9122C19.8413 18.969 19.6152 19.0308 19.3916 19.0987C19.168 19.1667 18.948 19.2396 18.7331 19.3187C18.8578 19.0814 18.9765 18.8492 19.0839 18.6231C19.1914 18.397 19.2878 18.1758 19.3669 17.9609C19.4682 17.7125 19.5707 17.458 19.6696 17.1998C19.7684 16.9428 19.8648 16.6821 19.955 16.4214C20.0452 16.5796 20.1415 16.7377 20.2441 16.8971C20.3454 17.0553 20.4529 17.2134 20.5665 17.3728C20.7247 17.5877 20.889 17.7978 21.0595 17.9979C21.2263 18.1993 21.4017 18.392 21.5833 18.5737ZM22.0355 18.7096C22.5791 18.6083 23.0882 18.5625 23.5144 18.5539C23.9419 18.5452 24.2866 18.5737 24.5015 18.6194C24.7054 18.6651 24.8635 18.7553 24.9624 18.8801C25.0612 19.0048 25.1008 19.163 25.0674 19.3434C25.034 19.5361 24.9031 19.677 24.719 19.756C24.5349 19.8351 24.2977 19.8524 24.0481 19.7956C23.6404 19.6942 23.2735 19.5349 22.9399 19.3458C22.6063 19.1568 22.3073 18.9357 22.0355 18.7096Z" fill="#FF2116"/>
<path d="M15.4881 26.6133C15.4881 26.6071 15.4881 26.6009 15.4893 26.596C15.4905 26.5911 15.4918 26.5861 15.4942 26.5824C15.4967 26.5787 15.5004 26.575 15.5066 26.5738C15.5115 26.5713 15.5177 26.5701 15.5264 26.5701C15.5881 26.5664 15.6561 26.5639 15.7314 26.5614C15.8056 26.5589 15.8859 26.5565 15.9699 26.5552C16.0539 26.554 16.1429 26.5528 16.2343 26.5515C16.3257 26.5503 16.4184 26.5503 16.5135 26.5503C16.7791 26.5503 17.0077 26.5861 17.2004 26.6528C17.3932 26.7196 17.5513 26.8159 17.6749 26.9345C17.7996 27.0544 17.8898 27.1965 17.9504 27.3558C18.0097 27.5152 18.0393 27.6919 18.0393 27.8784C18.0393 28.1218 17.9949 28.3306 17.9158 28.5073C17.8367 28.6827 17.7218 28.8273 17.5797 28.941C17.4376 29.0546 17.2684 29.1374 17.0806 29.1918C16.8928 29.2461 16.6865 29.2721 16.469 29.2721C16.432 29.2721 16.4023 29.2721 16.3751 29.2708C16.3479 29.2708 16.3257 29.2696 16.3035 29.2684C16.2812 29.2671 16.2615 29.2671 16.2405 29.2659C16.2195 29.2647 16.1972 29.2647 16.1713 29.2647V29.6341V30.0035V30.3729V30.7423C16.1713 30.7509 16.17 30.7571 16.1688 30.7621C16.1676 30.767 16.1651 30.7719 16.1614 30.7757C16.1577 30.7794 16.1527 30.7818 16.1478 30.7831C16.1429 30.7843 16.1354 30.7855 16.128 30.7855H15.9785H15.829H15.6796H15.5301C15.5226 30.7855 15.5152 30.7843 15.5103 30.7831C15.5053 30.7818 15.5004 30.7794 15.4967 30.7757C15.493 30.7719 15.4905 30.767 15.4893 30.7621C15.4881 30.7559 15.4868 30.7497 15.4868 30.7423V29.7107V28.679V27.6474C15.4881 27.6449 15.4881 26.6133 15.4881 26.6133ZM16.1713 28.6506C16.1935 28.6519 16.2145 28.6531 16.2355 28.6543C16.2565 28.6556 16.2788 28.6556 16.3022 28.6556C16.3257 28.6556 16.3517 28.6556 16.3813 28.6568C16.411 28.6568 16.4431 28.6568 16.4814 28.6568C16.5938 28.6568 16.7038 28.6469 16.8063 28.6222C16.9089 28.5975 17.0028 28.5592 17.0831 28.5011C17.1634 28.4431 17.2301 28.3665 17.2758 28.2664C17.3215 28.1663 17.3487 28.0428 17.3487 27.8908C17.3487 27.7685 17.3302 27.6622 17.2943 27.5708C17.2585 27.4794 17.2054 27.4028 17.1362 27.341C17.067 27.2805 16.9818 27.2335 16.8817 27.2026C16.7816 27.1717 16.6667 27.1569 16.5382 27.1569C16.4999 27.1569 16.4628 27.1569 16.427 27.1582C16.3912 27.1594 16.3566 27.1594 16.3245 27.1606C16.2924 27.1619 16.2627 27.1631 16.2368 27.1643C16.2108 27.1656 16.1886 27.168 16.1713 27.1693V27.5399V27.9106V28.2812V28.6506Z" fill="#2C2C2C"/>
<path d="M18.7227 26.6193C18.7227 26.6106 18.7227 26.6044 18.7239 26.5995C18.7252 26.5933 18.7276 26.5896 18.7301 26.5847C18.7338 26.581 18.7375 26.5772 18.7437 26.5748C18.7499 26.5723 18.7573 26.5698 18.7672 26.5686C18.8042 26.5674 18.8574 26.5649 18.9228 26.5624C18.9896 26.5599 19.0686 26.5587 19.1563 26.5562C19.2441 26.5538 19.3417 26.5525 19.4442 26.5513C19.5455 26.5501 19.653 26.5488 19.7605 26.5488C20.0817 26.5488 20.3622 26.6007 20.6031 26.6971C20.844 26.7935 21.0442 26.9355 21.2035 27.1147C21.3642 27.2938 21.484 27.5125 21.5643 27.7608C21.6446 28.0092 21.6841 28.2884 21.6841 28.5936C21.6841 29.0161 21.615 29.3657 21.4976 29.6511C21.3802 29.9365 21.2147 30.1589 21.0232 30.3294C20.8317 30.4999 20.613 30.616 20.3881 30.6902C20.1645 30.7643 19.9347 30.7964 19.721 30.7964C19.6407 30.7964 19.5505 30.7964 19.459 30.7952C19.3676 30.7952 19.2725 30.794 19.1835 30.7927C19.0933 30.7915 19.0093 30.7902 18.9364 30.789C18.8635 30.7878 18.8018 30.7853 18.7597 30.7841C18.7536 30.7841 18.7474 30.7828 18.7425 30.7804C18.7375 30.7779 18.7338 30.7754 18.7301 30.7705C18.7264 30.7655 18.7252 30.7606 18.7227 30.7544C18.7215 30.7482 18.7202 30.7408 18.7202 30.7334V29.7043V28.6751V27.6459L18.7227 26.6193ZM19.4133 30.1762C19.4405 30.1774 19.4664 30.1799 19.4924 30.1812C19.5183 30.1824 19.5443 30.1836 19.5702 30.1849C19.5962 30.1861 19.6221 30.1873 19.6505 30.1873C19.6777 30.1873 19.7061 30.1886 19.737 30.1886C19.9149 30.1886 20.0805 30.1577 20.2287 30.0934C20.3782 30.0292 20.5104 29.9341 20.6204 29.8043C20.7304 29.6746 20.8193 29.5115 20.8798 29.3126C20.9404 29.1149 20.975 28.8814 20.9762 28.6121C20.9774 28.3502 20.9453 28.1265 20.8848 27.9412C20.8242 27.7559 20.7353 27.6064 20.6253 27.4903C20.5154 27.3741 20.3844 27.2901 20.2374 27.2358C20.0916 27.1814 19.9298 27.1567 19.7605 27.1567C19.7271 27.1567 19.6962 27.1567 19.6654 27.1579C19.6345 27.1592 19.6061 27.1592 19.5776 27.1604C19.5492 27.1616 19.522 27.1629 19.4949 27.1641C19.4677 27.1653 19.4405 27.1678 19.4133 27.169V27.9202V28.6714V29.4226C19.4133 29.4238 19.4133 30.1762 19.4133 30.1762Z" fill="#2C2C2C"/>
<path d="M23.1347 30.7332C23.1347 30.7431 23.1335 30.7505 23.1322 30.7567C23.131 30.7629 23.1285 30.7691 23.1248 30.7728C23.1211 30.7765 23.1162 30.779 23.1112 30.7814C23.1063 30.7827 23.0989 30.7839 23.0915 30.7839H22.9407H22.79H22.6393H22.4886C22.4811 30.7839 22.4737 30.7827 22.4688 30.7814C22.4638 30.7802 22.4589 30.7765 22.4552 30.7728C22.4515 30.7691 22.449 30.7641 22.4478 30.7567C22.4465 30.7505 22.4453 30.7419 22.4453 30.7332V29.7016V28.67V27.6383V26.6067C22.4453 26.5993 22.4465 26.5919 22.4478 26.5869C22.449 26.582 22.4515 26.5771 22.4552 26.5734C22.4589 26.5697 22.4638 26.5672 22.4688 26.5659C22.4737 26.5647 22.4811 26.5635 22.4886 26.5635H23.0149H23.5412H24.0675H24.5938C24.6037 26.5635 24.6111 26.5647 24.6173 26.5659C24.6235 26.5672 24.6272 26.5697 24.6309 26.5734C24.6346 26.5771 24.6371 26.582 24.6395 26.5869C24.642 26.5919 24.6432 26.5993 24.6445 26.6067L24.6605 26.7402L24.6766 26.8736L24.6927 27.007L24.7087 27.1404C24.71 27.1503 24.71 27.1577 24.7087 27.1639C24.7075 27.1701 24.7038 27.1763 24.7001 27.18C24.6964 27.1837 24.6902 27.1862 24.6828 27.1886C24.6754 27.1899 24.668 27.1911 24.6581 27.1911H24.2763H23.8958H23.514H23.1322V27.4913V27.7915V28.0918V28.392H23.4745H23.8167H24.1589H24.5012C24.5098 28.392 24.516 28.392 24.5209 28.3932C24.5271 28.3945 24.5308 28.3969 24.5345 28.3994C24.5382 28.4031 24.5407 28.4068 24.5419 28.413C24.5432 28.4192 24.5444 28.4266 24.5444 28.4365V28.5699V28.7033V28.8368V28.9702C24.5444 28.9801 24.5432 28.9875 24.5419 28.9937C24.5407 28.9999 24.5382 29.0036 24.5345 29.0073C24.5308 29.011 24.5259 29.0122 24.5209 29.0134C24.5148 29.0147 24.5086 29.0147 24.5012 29.0147H24.1602H23.8179H23.4757H23.1335V29.4446V29.8746V30.3045L23.1347 30.7332Z" fill="#2C2C2C"/>
</svg>
