<svg width="32" height="29" viewBox="0 0 32 29" fill="none" xmlns="http://www.w3.org/2000/svg">
<path fill-rule="evenodd" clip-rule="evenodd" d="M20.0447 0H11.9552C10.1262 0 8.6923 -1.3272e-05 7.53984 0.0941467C6.3663 0.190027 5.39684 0.388507 4.51932 0.835613C3.07675 1.57064 1.90389 2.74349 1.16887 4.18607C0.721757 5.06359 0.523281 6.03305 0.427401 7.20659C0.333241 8.35905 0.333245 9.79296 0.333252 11.6219V11.7115C0.333245 13.5404 0.333241 14.9743 0.427401 16.1268C0.523281 17.3003 0.721757 18.2697 1.16887 19.1472C1.90389 20.5899 3.07675 21.7627 4.51932 22.4977C5.39684 22.9448 6.3663 23.1433 7.53984 23.2392C8.69228 23.3333 10.1262 23.3333 11.9551 23.3333H14.9999V25.7787C14.1674 25.8368 13.3387 25.9679 12.5236 26.1716L10.4241 26.6965C9.88825 26.8305 9.56249 27.3735 9.69644 27.9092C9.83038 28.4449 10.3733 28.7708 10.9091 28.6368L13.0087 28.1119C13.9906 27.8664 14.9953 27.7437 15.9999 27.7437C17.0046 27.7437 18.0093 27.8664 18.9913 28.1119L21.0907 28.6368C21.6265 28.7708 22.1694 28.4449 22.3034 27.9092C22.4374 27.3735 22.1115 26.8305 21.5758 26.6965L19.4763 26.1716C18.6611 25.9679 17.8325 25.8368 16.9999 25.7787V23.3333H20.0447C21.8736 23.3333 23.3075 23.3333 24.4601 23.2392C25.6335 23.1433 26.603 22.9448 27.4804 22.4977C28.9231 21.7627 30.0959 20.5899 30.831 19.1472C31.2781 18.2697 31.4766 17.3003 31.5724 16.1268C31.6666 14.9743 31.6666 13.5404 31.6666 11.7115V11.6219C31.6666 9.79292 31.6666 8.35903 31.5724 7.20659C31.4766 6.03305 31.2781 5.06359 30.831 4.18607C30.0959 2.74349 28.9231 1.57064 27.4804 0.835613C26.603 0.388507 25.6335 0.190027 24.4601 0.0941467C23.3075 -1.3272e-05 21.8736 0 20.0447 0ZM24.2971 21.2459C23.2357 21.3325 21.8833 21.3333 19.9999 21.3333H11.9999C10.1166 21.3333 8.76421 21.3325 7.70269 21.2459C6.65285 21.16 5.97588 20.9952 5.4273 20.7157C4.36105 20.1724 3.49416 19.3055 2.95088 18.2393C2.67137 17.6907 2.50653 17.0137 2.42076 15.9639C2.33403 14.9024 2.33325 13.55 2.33325 11.6667C2.33325 9.78332 2.33403 8.43096 2.42076 7.36944C2.50653 6.3196 2.67137 5.64263 2.95088 5.09405C3.49416 4.0278 4.36105 3.16091 5.4273 2.61763C5.97588 2.33812 6.65285 2.17328 7.70269 2.08751C8.76421 2.00077 10.1166 2 11.9999 2H19.9999C21.8833 2 23.2357 2.00077 24.2971 2.08751C25.347 2.17328 26.0239 2.33812 26.5726 2.61763C27.6387 3.16091 28.5057 4.0278 29.049 5.09405C29.3285 5.64263 29.4933 6.3196 29.5791 7.36944C29.6658 8.43096 29.6666 9.78332 29.6666 11.6667C29.6666 13.55 29.6658 14.9024 29.5791 15.9639C29.4933 17.0137 29.3285 17.6907 29.049 18.2393C28.5057 19.3055 27.6387 20.1724 26.5726 20.7157C26.0239 20.9952 25.347 21.16 24.2971 21.2459ZM23.9999 19.3333C24.5522 19.3333 24.9999 18.8856 24.9999 18.3333C24.9999 17.7811 24.5522 17.3333 23.9999 17.3333H15.9999C15.4477 17.3333 14.9999 17.7811 14.9999 18.3333C14.9999 18.8856 15.4477 19.3333 15.9999 19.3333H23.9999ZM9.33325 19.6667C10.0696 19.6667 10.6666 19.0697 10.6666 18.3333C10.6666 17.5969 10.0696 17 9.33325 17C8.59688 17 7.99992 17.5969 7.99992 18.3333C7.99992 19.0697 8.59688 19.6667 9.33325 19.6667Z" fill="#356FEC"/>
</svg>
