<svg width="40" height="40" viewBox="0 0 40 40" fill="none" xmlns="http://www.w3.org/2000/svg">
<path fill-rule="evenodd" clip-rule="evenodd" d="M17.6922 5.84331C17.1481 7.61477 16.0304 11.4898 15.4058 15.3074C17.0268 15.5691 18.6103 15.7364 19.9997 15.7364C21.3891 15.7364 22.9726 15.5691 24.5935 15.3074C23.969 11.4898 22.8512 7.61477 22.3071 5.84332C21.5566 5.72199 20.7859 5.65883 19.9997 5.65883C19.2135 5.65883 18.4428 5.72199 17.6922 5.84331ZM24.9386 6.53167C25.5359 8.59992 26.3639 11.7455 26.8808 14.8849C29.1128 14.4251 31.2185 13.864 32.7478 13.4237C31.1087 10.2533 28.3214 7.77269 24.9386 6.53167ZM33.6484 15.5841C32.0326 16.0545 29.692 16.6863 27.1988 17.1936C27.3027 18.1576 27.364 19.1048 27.364 19.9999C27.364 21.306 27.2333 22.7275 27.0286 24.1566C30.013 23.5344 32.7506 22.7392 34.1563 22.3074C34.2776 21.5568 34.3408 20.7861 34.3408 19.9999C34.3408 18.4576 34.0977 16.974 33.6484 15.5841ZM33.468 24.9388C31.728 25.4413 29.2278 26.1064 26.6122 26.6124C26.1062 29.2281 25.4411 31.7283 24.9385 33.4682C28.8854 32.0203 32.0201 28.8856 33.468 24.9388ZM22.3072 34.1565C22.739 32.7508 23.5342 30.0132 24.1564 27.0288C22.7273 27.2335 21.3057 27.3643 19.9997 27.3643C18.6936 27.3643 17.2721 27.2335 15.843 27.0288C16.4652 30.0132 17.2604 32.7508 17.6922 34.1565C18.4428 34.2778 19.2135 34.341 19.9997 34.341C20.7859 34.341 21.5566 34.2778 22.3072 34.1565ZM15.0608 33.4682C14.5583 31.7283 13.8932 29.2281 13.3872 26.6124C10.7715 26.1064 8.27131 25.4413 6.53139 24.9388C7.97926 28.8856 11.114 32.0203 15.0608 33.4682ZM5.84307 22.3074C7.2488 22.7392 9.98636 23.5344 12.9708 24.1566C12.766 22.7275 12.6353 21.306 12.6353 19.9999C12.6353 19.1048 12.6967 18.1576 12.8005 17.1936C10.3074 16.6863 7.96677 16.0545 6.35097 15.5841C5.90164 16.974 5.65859 18.4576 5.65859 19.9999C5.65859 20.7861 5.72174 21.5568 5.84307 22.3074ZM7.25159 13.4238C8.78088 13.864 10.8866 14.4251 13.1185 14.8849C13.6355 11.7455 14.4634 8.59992 15.0608 6.53167C11.6779 7.77269 8.89063 10.2533 7.25159 13.4238ZM15.0948 17.6129C15.0091 18.4509 14.9609 19.2545 14.9609 19.9999C14.9609 21.3924 15.1289 22.9807 15.392 24.6075C17.0189 24.8707 18.6072 25.0387 19.9997 25.0387C21.3921 25.0387 22.9804 24.8707 24.6073 24.6075C24.8704 22.9807 25.0384 21.3924 25.0384 19.9999C25.0384 19.2545 24.9902 18.4509 24.9045 17.6129C23.2258 17.8818 21.5328 18.0619 19.9997 18.0619C18.4666 18.0619 16.7735 17.8818 15.0948 17.6129ZM16.5519 3.69055C17.6653 3.45625 18.8188 3.33325 19.9997 3.33325C21.1806 3.33325 22.334 3.45625 23.4475 3.69055C28.9046 4.83884 33.3747 8.65321 35.4367 13.7062C36.2298 15.6496 36.6663 17.7753 36.6663 19.9999C36.6663 21.1808 36.5433 22.3343 36.3091 23.4477C34.9542 29.8867 29.8864 34.9544 23.4475 36.3093C22.334 36.5436 21.1806 36.6666 19.9997 36.6666C18.8188 36.6666 17.6653 36.5436 16.5519 36.3093C10.1129 34.9544 5.04518 29.8867 3.6903 23.4477C3.45601 22.3343 3.33301 21.1808 3.33301 19.9999C3.33301 17.7735 3.77019 15.6463 4.56446 13.7016C6.62737 8.65092 11.0964 4.83849 16.5519 3.69055Z" fill="#356FEC"/>
</svg>
